{"glyphs":{"0":{"ha":790,"x_min":35,"x_max":756,"o":"m 386 -15 q 213 29 281 -15 q 105 144 144 74 q 50 304 65 215 q 35 482 35 393 q 51 666 35 575 q 110 828 68 757 q 224 944 151 900 q 406 988 296 988 q 579 947 511 988 q 686 841 647 907 q 740 690 725 775 q 756 517 756 606 q 739 327 756 422 q 681 156 722 232 q 567 33 639 81 q 386 -15 496 -15 m 290 472 q 292 430 290 457 q 297 371 293 403 q 309 306 301 339 q 329 246 317 272 q 358 202 342 219 q 399 185 375 185 q 441 204 424 185 q 470 254 458 224 q 489 322 482 285 q 499 393 496 358 q 503 456 503 428 q 504 499 504 485 q 501 577 504 526 q 487 677 497 628 q 456 763 476 726 q 404 799 436 799 q 363 779 381 799 q 333 730 346 760 q 313 663 321 700 q 299 588 304 625 q 292 521 294 551 q 290 472 290 490 z "},"1":{"ha":519,"x_min":13,"x_max":500,"o":"m 28 115 q 31 151 28 131 q 42 192 33 172 q 64 225 50 211 q 100 239 78 239 l 113 239 q 142 243 131 239 q 154 268 154 247 q 155 363 154 321 q 156 443 156 404 q 158 524 157 482 q 158 618 158 565 q 159 635 158 622 q 156 649 160 649 q 132 639 151 649 q 90 629 113 629 q 58 643 72 629 q 33 678 43 657 q 17 722 22 699 q 13 761 13 744 q 37 841 13 801 q 98 912 61 881 q 178 963 135 943 q 260 982 222 982 q 342 961 313 982 q 385 903 371 940 q 403 813 400 865 q 406 696 406 760 q 403 474 406 578 q 400 253 400 371 q 412 232 400 236 q 440 228 424 228 q 487 194 474 228 q 500 104 500 161 q 485 44 500 65 q 440 14 469 24 q 365 2 410 4 q 260 0 319 0 l 201 0 q 132 4 164 0 q 77 21 100 8 q 41 56 54 33 q 28 115 28 79 z "},"2":{"ha":753,"x_min":38,"x_max":729,"o":"m 701 679 q 676 550 701 608 q 614 446 651 492 q 532 365 576 400 q 448 306 488 331 q 381 265 408 281 q 349 239 353 249 q 349 225 344 231 q 364 219 353 219 q 461 222 408 219 q 567 225 514 225 q 688 199 646 225 q 729 108 729 174 q 712 49 729 71 q 665 16 694 28 q 594 1 635 4 q 504 -1 553 -1 l 343 -1 q 247 1 300 -1 q 147 18 193 3 q 69 66 100 33 q 38 158 38 99 q 68 258 38 211 q 144 347 99 304 q 243 432 190 390 q 342 515 296 474 q 418 597 388 556 q 449 685 449 639 q 435 751 449 731 q 376 772 422 772 q 299 740 325 772 q 257 647 272 708 q 216 590 247 611 q 144 569 185 569 q 97 581 117 569 q 66 613 78 593 q 49 656 54 632 q 43 704 43 681 q 68 831 43 778 q 137 920 93 885 q 242 972 181 956 q 376 989 304 989 q 623 917 544 989 q 701 679 701 844 z "},"3":{"ha":707,"x_min":24,"x_max":686,"o":"m 333 790 q 261 772 285 790 q 238 706 238 754 q 215 638 238 660 q 143 615 193 615 q 68 645 90 615 q 46 724 46 675 q 70 837 46 788 q 135 920 94 886 q 229 972 176 954 q 340 989 282 989 q 480 976 419 989 q 581 930 540 963 q 643 840 622 897 q 664 696 664 783 q 647 603 664 639 q 610 545 631 567 q 572 513 589 524 q 556 496 556 503 q 576 481 556 490 q 621 451 596 471 q 666 394 646 431 q 686 299 686 358 q 660 163 686 221 q 588 66 635 104 q 476 9 540 28 q 333 -10 411 -10 q 222 6 278 -10 q 123 53 167 21 q 51 133 79 85 q 24 246 24 181 q 32 288 24 267 q 55 327 40 310 q 89 356 69 344 q 131 367 108 367 q 194 351 168 367 q 221 307 221 335 q 245 228 221 260 q 335 196 269 196 q 410 221 382 196 q 438 293 438 246 q 410 380 438 356 q 324 404 382 404 q 274 406 294 404 q 242 417 254 408 q 224 443 229 425 q 218 493 218 461 q 226 541 218 524 q 249 567 235 558 q 286 577 264 575 q 335 579 308 579 q 402 603 374 579 q 431 685 431 626 q 405 759 431 728 q 333 790 379 790 z "},"4":{"ha":775,"x_min":13,"x_max":757,"o":"m 542 0 q 488 10 510 0 q 452 38 465 21 q 433 75 439 54 q 426 117 426 96 q 420 162 426 143 q 401 181 414 181 q 272 183 336 181 q 142 185 207 185 q 92 198 115 185 q 50 233 68 211 q 22 281 32 254 q 13 332 13 307 q 36 432 13 369 q 99 567 60 494 q 189 715 139 640 q 292 851 239 790 q 398 949 346 911 q 493 988 450 988 q 594 965 557 988 q 651 904 632 942 q 676 819 671 867 q 682 724 682 772 q 681 656 682 694 q 678 576 679 617 q 676 497 678 536 q 675 428 675 458 l 675 406 q 685 388 675 392 q 713 385 696 385 q 745 367 733 385 q 757 288 757 350 q 735 215 757 246 q 676 185 713 185 q 663 172 663 185 q 664 126 664 158 q 654 77 664 100 q 628 37 644 54 q 589 10 611 19 q 542 0 567 0 m 265 407 q 283 389 265 394 q 325 383 300 383 q 378 383 350 382 q 425 385 406 385 q 439 406 433 385 q 448 458 444 426 q 452 525 451 489 q 451 592 453 561 q 445 644 449 624 q 438 665 442 665 q 395 634 424 665 q 338 560 367 603 q 287 474 308 518 q 265 407 265 431 z "},"5":{"ha":761,"x_min":22,"x_max":739,"o":"m 149 426 q 79 447 103 426 q 45 508 56 467 q 34 615 35 550 q 33 767 33 679 q 55 889 33 846 q 116 952 76 932 q 210 976 156 972 q 331 979 264 979 l 515 979 q 572 978 543 979 q 623 966 600 976 q 660 933 646 956 q 674 869 674 911 q 658 815 674 835 q 619 786 643 796 q 568 774 596 776 q 515 771 540 771 q 406 776 460 771 q 296 781 351 781 q 278 763 283 781 q 272 724 274 746 q 271 681 269 703 q 272 651 272 660 l 272 650 q 276 649 272 644 q 337 678 296 668 q 429 688 378 688 q 556 669 499 688 q 653 608 613 650 q 716 501 693 567 q 739 343 739 436 q 707 198 739 264 q 623 83 675 132 q 503 8 571 35 q 363 -19 435 -19 q 248 -3 308 -19 q 138 47 188 14 q 55 128 88 79 q 22 240 22 176 q 28 284 22 263 q 45 323 33 306 q 75 351 57 340 q 118 363 93 363 q 194 339 168 363 q 233 278 219 315 q 285 208 249 238 q 375 179 322 179 q 428 194 406 179 q 466 232 451 208 q 488 285 481 256 q 496 343 496 314 q 467 454 496 417 q 371 492 438 492 q 322 481 344 492 q 276 459 300 471 q 223 437 253 447 q 149 426 193 426 z "},"6":{"ha":765,"x_min":26,"x_max":743,"o":"m 296 650 q 301 621 292 621 q 313 626 304 621 q 365 651 332 640 q 465 663 397 663 q 577 648 526 663 q 665 597 628 633 q 722 501 701 561 q 743 349 743 440 q 713 194 743 263 q 634 78 683 125 q 520 6 585 31 q 386 -19 456 -19 q 220 17 289 -19 q 108 110 151 53 q 46 240 65 168 q 26 382 26 311 q 58 623 26 511 q 151 817 89 735 q 306 947 214 900 q 518 994 397 994 q 567 990 542 994 q 615 976 593 986 q 651 946 636 965 q 665 894 665 926 q 658 847 665 864 q 633 820 650 829 q 592 809 617 811 q 531 807 567 807 q 456 794 496 807 q 383 760 417 782 q 324 710 349 739 q 296 650 300 682 m 261 325 q 265 281 261 307 q 283 233 269 256 q 322 195 296 211 q 393 179 349 179 q 479 220 454 179 q 504 319 504 261 q 482 422 504 382 q 397 461 460 461 q 297 424 332 461 q 261 325 261 388 z "},"7":{"ha":660,"x_min":24,"x_max":639,"o":"m 332 757 q 253 755 290 757 q 175 753 217 753 q 124 757 151 753 q 75 773 97 761 q 38 806 53 785 q 24 860 24 826 q 35 926 24 901 q 69 963 46 950 q 129 978 93 975 q 217 982 165 982 l 390 982 q 481 978 436 982 q 561 963 526 975 q 617 926 596 950 q 639 860 639 901 q 631 823 639 842 q 611 785 622 804 q 587 749 600 767 q 564 718 574 732 q 495 597 526 664 q 440 457 464 529 q 399 312 415 385 q 376 172 383 239 q 368 110 372 142 q 353 54 364 79 q 319 14 342 29 q 254 -1 296 -1 q 172 32 201 -1 q 143 115 143 65 q 181 399 143 264 q 272 647 219 533 q 299 698 285 675 q 332 744 313 721 q 332 757 343 757 z "},"8":{"ha":736,"x_min":21,"x_max":715,"o":"m 21 286 q 35 373 21 336 q 66 437 49 410 q 97 482 83 464 q 111 513 111 500 q 102 543 111 525 q 81 585 93 561 q 60 638 69 608 q 51 701 51 667 q 137 921 51 851 q 371 990 222 990 q 610 917 524 990 q 697 688 697 844 q 686 617 697 650 q 662 556 675 583 q 638 509 649 529 q 626 476 626 489 q 640 447 626 460 q 671 415 654 433 q 701 368 688 396 q 715 296 715 340 q 684 169 715 225 q 601 73 653 113 q 487 12 550 33 q 358 -10 424 -10 q 222 8 283 -10 q 115 62 160 25 q 46 154 71 99 q 21 286 21 210 m 276 704 q 308 615 276 644 q 392 586 340 586 q 428 597 413 586 q 454 622 443 607 q 471 656 465 638 q 476 692 476 675 q 472 744 476 719 q 457 785 468 768 q 426 813 446 803 q 376 824 407 824 q 303 788 331 824 q 276 704 276 751 m 478 294 q 463 348 478 324 q 424 389 447 372 q 374 415 401 406 q 325 424 347 424 q 289 411 304 424 q 263 379 274 399 q 247 337 253 360 q 242 293 242 314 q 354 183 242 183 q 440 213 403 183 q 478 294 478 242 z "},"9":{"ha":768,"x_min":26,"x_max":743,"o":"m 474 325 q 468 354 478 354 q 457 349 465 354 q 405 324 438 335 q 304 313 372 313 q 192 327 243 313 q 105 378 142 342 q 47 474 68 414 q 26 626 26 535 q 56 781 26 713 q 135 897 86 850 q 249 969 185 944 q 383 994 314 994 q 550 958 482 994 q 661 865 618 922 q 724 735 704 807 q 743 593 743 664 q 712 352 743 464 q 618 158 681 240 q 464 28 556 75 q 251 -19 372 -19 q 203 -15 229 -19 q 155 -1 176 -11 q 119 30 133 10 q 104 81 104 50 q 112 128 104 111 q 136 155 119 146 q 178 166 153 164 q 239 168 204 168 q 313 181 274 168 q 387 215 353 193 q 445 265 421 236 q 474 325 469 293 m 508 650 q 505 694 508 669 q 488 742 501 719 q 447 780 474 764 q 376 796 421 796 q 290 755 315 796 q 265 656 265 714 q 288 553 265 593 q 372 514 310 514 q 473 551 438 514 q 508 650 508 588 z "},"\u0000":{"ha":0,"x_min":0,"x_max":0,"o":""},"\r":{"ha":347,"x_min":0,"x_max":0,"o":""}," ":{"ha":306,"x_min":0,"x_max":0,"o":""},"!":{"ha":442,"x_min":67,"x_max":351,"o":"m 326 433 q 290 277 326 324 q 200 231 253 231 q 136 248 158 231 q 103 292 114 265 q 90 355 92 319 q 88 425 88 390 q 77 630 88 526 q 67 835 67 733 q 102 951 67 906 q 221 997 138 997 q 325 955 299 997 q 351 838 351 913 q 347 728 351 783 q 339 620 343 672 q 331 520 335 568 q 326 433 326 472 m 85 103 q 96 155 85 133 q 124 190 107 176 q 165 208 142 203 q 213 214 188 214 q 253 206 233 214 q 290 182 274 197 q 317 147 307 167 q 328 103 328 126 q 317 55 328 76 q 290 19 307 33 q 251 -2 272 6 q 207 -10 229 -10 q 123 19 161 -10 q 85 103 85 47 z "},"\"":{"ha":508,"x_min":43,"x_max":475,"o":"m 143 681 q 99 690 115 681 q 73 713 82 699 q 60 749 64 728 q 51 792 56 769 q 44 861 46 824 q 43 935 43 899 q 53 983 43 965 q 80 1009 64 1000 q 115 1021 96 1018 q 153 1024 135 1024 q 225 1006 200 1024 q 250 935 250 989 q 248 861 250 904 q 235 778 246 818 q 203 709 225 738 q 143 681 182 681 m 368 681 q 324 690 340 681 q 298 713 307 699 q 285 749 289 728 q 276 792 281 769 q 269 861 271 824 q 268 935 268 899 q 278 983 268 965 q 305 1009 289 1000 q 340 1021 321 1018 q 378 1024 360 1024 q 450 1006 425 1024 q 475 935 475 989 q 473 861 475 904 q 460 778 471 818 q 428 709 450 738 q 368 681 407 681 z "},"#":{"ha":1024,"x_min":17,"x_max":996,"o":"m 899 689 q 908 658 899 672 q 933 644 918 644 q 983 619 969 644 q 983 547 996 593 q 970 520 979 535 q 948 494 961 506 q 920 474 935 482 q 890 467 906 467 q 842 458 860 467 q 825 431 825 450 q 829 407 825 415 q 849 399 833 399 q 893 368 878 399 q 908 304 908 338 q 883 253 908 272 q 831 235 857 235 q 784 222 804 235 q 757 194 764 210 q 735 133 747 169 q 707 65 724 97 q 666 9 690 32 q 606 -14 642 -14 q 558 -3 578 -14 q 525 27 538 8 q 506 69 513 46 q 500 117 500 92 q 505 171 500 144 q 510 224 510 197 q 500 233 510 233 q 455 232 476 233 q 410 231 433 231 q 383 213 394 231 q 362 167 372 194 q 340 109 351 140 q 312 51 328 78 q 273 6 296 24 q 217 -12 250 -12 q 171 -2 190 -12 q 139 26 151 8 q 120 67 126 44 q 114 113 114 89 q 117 151 114 132 q 119 189 119 169 q 109 224 119 215 q 79 233 99 233 q 31 262 44 233 q 17 339 17 290 q 20 367 17 351 q 31 394 24 382 q 50 415 39 407 q 75 424 61 424 q 101 422 83 424 q 139 422 119 421 q 173 428 158 422 q 188 446 188 433 q 164 478 188 469 q 115 488 140 488 q 81 497 93 488 q 63 519 69 506 q 56 550 57 533 q 54 582 54 567 q 84 645 54 622 q 149 668 114 668 q 181 668 164 668 q 213 669 197 668 q 240 676 228 671 q 256 690 251 681 q 278 767 268 721 q 303 856 288 813 q 344 929 318 899 q 417 960 371 960 q 506 928 475 960 q 536 838 536 896 q 531 787 536 814 q 518 735 525 760 q 506 692 511 711 q 500 663 500 672 q 508 654 500 657 q 528 651 517 651 q 549 650 539 650 q 563 650 558 650 q 583 651 572 650 q 606 654 594 651 q 625 663 617 657 q 638 681 633 669 q 659 757 649 710 q 688 849 669 804 q 733 927 706 894 q 801 960 760 960 q 890 927 860 960 q 919 838 919 894 q 909 763 919 799 q 899 689 899 726 m 436 414 q 473 413 451 414 q 514 411 494 411 q 548 414 533 411 q 565 425 563 417 l 571 443 q 560 458 574 454 q 527 464 547 463 q 485 465 507 465 q 447 464 463 464 q 438 456 442 464 q 432 439 433 449 q 431 422 431 429 q 436 414 432 414 z "},"$":{"ha":754,"x_min":35,"x_max":728,"o":"m 411 -160 q 329 -131 356 -160 q 303 -65 303 -101 q 293 -16 303 -39 q 260 15 283 7 q 174 55 214 31 q 102 114 133 79 q 53 192 71 149 q 35 288 35 235 q 41 335 35 311 q 60 378 47 358 q 92 410 72 397 q 138 422 111 422 q 203 404 174 422 q 238 351 232 386 q 256 291 243 319 q 289 242 269 263 q 335 208 308 221 q 392 196 361 196 q 444 215 422 196 q 467 271 467 235 q 436 320 467 299 q 360 363 406 342 q 260 408 314 383 q 161 467 207 432 q 85 550 115 501 q 54 667 54 599 q 108 826 54 758 q 254 932 163 893 q 278 949 269 939 q 288 976 286 958 q 295 1022 290 1000 q 310 1061 300 1043 q 338 1090 321 1079 q 383 1100 356 1100 q 449 1073 424 1100 q 475 1010 475 1046 q 473 966 475 982 q 486 943 471 950 q 553 909 518 929 q 616 863 588 889 q 663 805 644 838 q 682 733 682 772 q 676 678 682 704 q 658 631 671 651 q 625 599 646 611 q 574 588 604 588 q 497 617 524 588 q 478 688 471 647 q 460 749 483 722 q 393 775 436 775 q 353 763 369 775 q 325 733 336 750 q 308 699 314 717 q 303 671 303 682 q 334 620 303 642 q 413 578 365 599 q 515 535 460 558 q 618 478 571 511 q 697 401 665 446 q 728 292 728 356 q 711 200 728 242 q 665 126 694 158 q 598 68 636 93 q 517 24 560 43 q 494 8 503 17 q 485 -17 485 -1 q 484 -66 485 -40 q 477 -112 483 -92 q 456 -147 471 -133 q 411 -160 440 -160 z "},"%":{"ha":1342,"x_min":7,"x_max":1321,"o":"m 557 738 q 540 606 557 665 q 487 503 522 546 q 398 437 451 460 q 272 414 344 414 q 145 435 196 414 q 64 495 94 456 q 20 592 33 535 q 7 724 7 650 q 22 857 7 799 q 69 956 36 915 q 156 1017 103 996 q 288 1038 210 1038 q 413 1017 361 1038 q 496 959 464 997 q 542 865 528 921 q 557 738 557 808 m 272 -10 q 293 83 268 24 q 353 206 318 142 q 424 330 388 271 q 478 422 460 389 q 522 503 493 449 q 585 624 550 557 q 660 761 621 690 q 740 890 700 832 q 815 988 779 949 q 876 1029 850 1026 q 943 1015 914 1033 q 976 957 972 997 q 970 890 981 922 q 944 826 960 857 q 906 753 931 800 q 848 646 881 706 q 777 518 815 586 q 699 381 739 450 q 619 246 658 313 q 546 124 581 179 q 483 26 511 68 q 438 -36 454 -17 q 401 -65 422 -53 q 357 -79 381 -76 q 299 -64 322 -83 q 272 -10 276 -44 m 233 728 q 235 692 233 715 q 243 648 238 669 q 259 610 249 626 q 286 593 269 593 q 310 609 301 593 q 322 646 318 625 q 327 688 326 667 q 328 719 328 710 q 326 755 328 731 q 321 805 325 779 q 308 850 317 831 q 286 869 300 869 q 260 851 271 869 q 244 810 250 833 q 235 763 238 786 q 233 728 233 739 m 1039 -18 q 915 5 967 -18 q 833 69 864 28 q 787 167 801 110 q 772 292 772 224 q 786 431 772 372 q 832 529 800 490 q 918 587 864 568 q 1053 606 972 606 q 1177 585 1126 606 q 1260 525 1228 564 q 1306 431 1292 486 q 1321 306 1321 375 q 1306 169 1321 229 q 1258 67 1292 108 q 1172 3 1225 25 q 1039 -18 1118 -18 m 1092 314 q 1090 342 1092 322 q 1083 384 1088 363 q 1072 422 1079 406 q 1051 438 1064 438 q 1024 419 1035 438 q 1008 378 1014 401 q 1001 331 1003 354 q 999 294 999 307 q 1000 260 999 282 q 1007 215 1001 238 q 1023 177 1013 193 q 1051 161 1033 161 q 1070 173 1063 161 q 1083 201 1078 185 q 1090 235 1088 218 q 1092 260 1092 251 l 1092 314 z "},"&":{"ha":836,"x_min":47,"x_max":811,"o":"m 531 15 q 483 3 518 11 q 401 -9 447 -6 q 305 -7 356 -12 q 208 21 254 -1 q 153 56 182 33 q 101 112 125 79 q 63 188 78 144 q 47 282 47 231 q 68 363 47 328 q 113 425 89 399 q 158 470 138 451 q 179 503 179 489 q 164 535 179 518 q 131 575 149 551 q 97 632 113 599 q 82 713 82 665 q 101 819 82 768 q 160 910 121 871 q 258 974 200 950 q 396 997 317 997 q 528 976 474 997 q 616 921 582 956 q 665 841 650 886 q 681 746 681 796 q 664 658 681 696 q 621 591 647 619 q 563 543 594 563 q 503 511 532 524 q 494 499 496 508 q 496 483 493 490 q 527 435 507 460 q 567 392 547 411 q 578 380 571 388 q 592 365 585 372 q 608 353 600 357 q 621 354 615 350 q 637 375 632 363 q 642 403 642 388 q 642 437 643 419 q 642 472 642 454 q 663 501 642 483 q 714 518 683 518 q 751 509 733 518 q 782 485 768 500 q 803 453 796 471 q 811 418 811 435 q 803 338 811 369 q 785 285 796 307 q 765 248 775 264 q 747 214 754 232 q 753 191 744 203 q 768 172 761 179 q 797 128 790 150 q 802 85 804 106 q 792 49 800 65 q 775 21 783 32 q 751 1 767 10 q 719 -8 736 -7 q 683 -2 701 -10 q 647 26 664 6 q 630 48 640 36 q 608 60 619 60 q 594 54 603 60 q 574 41 585 49 q 551 26 563 33 q 531 15 540 19 m 372 631 q 430 663 404 631 q 456 740 456 694 q 452 758 456 749 q 442 778 449 768 q 423 794 435 788 q 396 800 411 800 q 338 778 358 800 q 317 704 317 757 q 322 682 317 694 q 335 658 326 669 q 353 639 343 647 q 372 631 363 631 m 453 231 q 414 274 435 251 q 374 317 393 297 q 340 349 356 336 q 313 361 324 361 q 299 340 304 360 q 294 304 294 319 q 328 223 294 246 q 414 200 361 200 q 433 201 422 200 q 451 204 443 201 q 462 213 460 207 q 453 231 464 219 z "},"'":{"ha":283,"x_min":43,"x_max":250,"o":"m 143 681 q 99 690 115 681 q 73 713 82 699 q 60 749 64 728 q 51 792 56 769 q 44 861 46 824 q 43 935 43 899 q 53 983 43 965 q 80 1009 64 1000 q 115 1021 96 1018 q 153 1024 135 1024 q 225 1006 200 1024 q 250 935 250 989 q 248 861 250 904 q 235 778 246 818 q 203 709 225 738 q 143 681 182 681 z "},"(":{"ha":593,"x_min":71,"x_max":608,"o":"m 321 492 q 326 383 321 447 q 348 260 332 319 q 394 157 364 201 q 472 107 424 113 q 510 101 492 106 q 544 88 529 97 q 567 64 558 79 q 576 24 576 49 q 547 -71 576 -39 q 442 -103 517 -103 q 308 -74 365 -103 q 210 3 251 -44 q 142 112 168 50 q 99 238 115 174 q 77 367 83 303 q 71 482 71 431 q 80 610 71 542 q 108 747 89 679 q 159 878 128 815 q 235 989 190 940 q 340 1066 281 1038 q 474 1094 399 1094 q 521 1089 497 1094 q 564 1072 544 1083 q 596 1040 583 1060 q 608 992 608 1021 q 499 888 608 888 q 436 875 456 888 q 403 844 417 863 q 365 770 381 815 q 340 675 350 725 q 326 576 331 625 q 321 492 321 528 z "},")":{"ha":589,"x_min":6,"x_max":543,"o":"m 293 494 q 288 603 293 539 q 266 726 282 667 q 220 829 250 785 q 142 879 190 874 q 103 885 122 882 q 70 898 85 889 q 47 922 56 907 q 38 963 38 938 q 67 1057 38 1025 q 172 1089 97 1089 q 306 1060 249 1089 q 404 983 363 1031 q 472 874 446 936 q 515 748 499 813 q 537 619 531 683 q 543 504 543 556 q 534 376 543 444 q 506 239 525 307 q 455 108 486 171 q 378 -3 424 46 q 274 -80 333 -51 q 140 -108 215 -108 q 93 -103 117 -108 q 50 -85 69 -97 q 18 -54 31 -74 q 6 -6 6 -35 q 115 99 6 99 q 178 111 158 99 q 211 142 197 124 q 249 216 233 171 q 274 311 264 261 q 288 410 283 361 q 293 494 293 458 z "},"*":{"ha":529,"x_min":54,"x_max":478,"o":"m 194 706 q 179 699 188 706 q 161 684 171 692 q 143 669 151 676 q 128 663 135 663 q 77 681 97 663 q 57 733 57 700 q 65 753 57 746 q 83 766 74 761 q 100 775 92 771 q 108 783 108 779 q 100 791 108 788 q 81 801 92 794 q 63 816 71 807 q 54 839 54 825 q 60 869 54 854 q 77 897 67 885 q 101 917 88 910 q 129 925 115 925 q 145 920 136 925 q 163 910 154 915 q 179 899 172 904 q 189 894 186 894 q 192 901 192 894 q 194 918 193 908 q 195 936 194 928 q 196 947 196 944 q 225 984 203 975 q 271 993 247 993 q 322 966 308 993 q 339 899 336 939 q 342 893 339 896 q 351 898 343 893 q 370 909 360 903 q 392 920 381 915 q 413 925 404 925 q 433 918 422 925 q 454 899 444 911 q 471 871 464 886 q 478 839 478 856 q 467 822 478 831 q 444 807 457 814 q 420 794 431 800 q 410 788 410 789 q 420 780 410 786 q 442 765 431 774 q 465 749 454 757 q 475 733 475 740 q 455 681 475 699 q 403 663 435 663 q 388 670 396 663 q 373 687 381 678 q 358 703 365 696 q 343 711 350 711 q 337 701 339 711 q 334 676 335 690 q 333 650 333 663 q 331 635 332 638 q 301 606 319 615 q 260 597 282 597 q 219 620 229 597 q 208 665 208 643 q 207 694 208 683 q 194 706 206 706 z "},"+":{"ha":667,"x_min":42,"x_max":625,"o":"m 446 689 q 445 649 446 667 q 444 611 444 632 q 453 590 444 597 q 476 581 461 583 q 508 577 490 578 q 544 576 526 576 q 605 555 585 576 q 625 481 625 533 q 614 431 625 450 q 582 402 603 413 q 531 389 561 392 q 465 386 501 386 q 443 371 443 386 q 444 325 443 351 q 436 275 444 299 q 406 235 428 251 q 338 219 383 219 q 289 233 307 219 q 262 268 271 247 q 250 313 253 289 q 247 356 247 336 q 238 385 247 381 q 221 392 229 390 q 165 397 196 396 q 106 403 133 397 q 60 428 79 410 q 42 485 42 446 q 61 547 42 518 q 117 576 81 576 q 163 576 140 576 q 208 575 185 575 q 242 597 238 575 q 247 663 247 619 q 269 724 247 696 q 353 753 290 753 q 384 749 368 753 q 414 738 400 746 q 437 718 428 731 q 446 689 446 706 z "},",":{"ha":499,"x_min":82,"x_max":400,"o":"m 99 -107 q 108 -75 99 -92 q 131 -43 118 -58 q 153 -13 143 -28 q 163 11 163 1 q 154 19 163 19 q 121 30 135 19 q 99 56 107 40 q 86 91 90 72 q 82 126 82 110 q 94 187 82 158 q 128 236 107 215 q 178 269 150 257 q 239 281 207 281 q 300 269 271 281 q 351 237 329 257 q 387 189 374 217 q 400 128 400 161 q 379 35 400 86 q 324 -60 358 -15 q 245 -135 289 -104 q 157 -165 201 -165 q 115 -149 131 -165 q 99 -107 99 -133 z "},"-":{"ha":586,"x_min":42,"x_max":543,"o":"m 42 431 q 67 488 42 460 q 136 517 93 515 l 471 525 q 529 496 515 526 q 543 417 543 465 q 519 353 543 381 q 432 318 496 326 q 369 312 401 314 q 306 310 336 310 q 249 310 275 310 q 208 310 224 310 q 146 313 176 310 q 92 329 115 317 q 56 365 69 342 q 42 431 42 389 z "},".":{"ha":522,"x_min":82,"x_max":400,"o":"m 82 140 q 96 206 82 178 q 132 254 110 235 q 183 283 154 274 q 242 293 213 293 q 299 283 271 293 q 350 254 328 274 q 386 206 372 235 q 400 140 400 178 q 386 74 400 103 q 350 25 372 44 q 299 -4 328 6 q 242 -14 271 -14 q 183 -4 211 -14 q 132 25 154 6 q 96 73 110 44 q 82 140 82 101 z "},"/":{"ha":658,"x_min":26,"x_max":640,"o":"m 550 1069 q 617 1042 593 1069 q 640 974 640 1015 q 627 902 640 947 q 594 803 614 857 q 549 690 574 749 q 499 578 524 632 q 451 478 474 524 q 417 404 429 432 q 346 245 379 325 q 274 86 313 165 q 249 37 264 65 q 214 -17 233 8 q 171 -60 194 -43 q 119 -78 147 -78 q 48 -47 69 -78 q 26 29 26 -17 q 42 125 26 78 q 74 218 58 172 q 156 412 110 318 q 244 603 203 506 q 288 703 264 647 q 340 815 313 758 q 394 926 367 872 q 446 1018 421 979 q 490 1057 461 1044 q 550 1069 519 1069 z "},":":{"ha":507,"x_min":82,"x_max":400,"o":"m 82 833 q 96 899 82 871 q 132 947 110 928 q 183 976 154 967 q 242 986 213 986 q 299 976 271 986 q 350 947 328 967 q 386 899 372 928 q 400 833 400 871 q 386 767 400 796 q 350 718 372 738 q 299 689 328 699 q 242 679 271 679 q 183 689 211 679 q 132 718 154 699 q 96 766 110 738 q 82 833 82 794 m 82 140 q 96 206 82 178 q 132 254 110 235 q 183 283 154 274 q 242 293 213 293 q 299 283 271 293 q 350 254 328 274 q 386 206 372 235 q 400 140 400 178 q 386 74 400 103 q 350 25 372 44 q 299 -4 328 6 q 242 -14 271 -14 q 183 -4 211 -14 q 132 25 154 6 q 96 73 110 44 q 82 140 82 101 z "},";":{"ha":526,"x_min":72,"x_max":400,"o":"m 82 833 q 94 896 82 868 q 128 944 107 924 q 179 975 150 964 q 242 986 208 986 q 354 944 308 986 q 400 833 400 901 q 355 722 400 764 q 242 679 310 679 q 127 721 172 679 q 82 833 82 763 m 119 3 q 133 25 126 14 q 147 47 140 36 q 94 93 117 63 q 72 156 72 124 q 82 206 72 181 q 112 250 92 231 q 161 282 132 269 q 229 294 190 294 q 299 281 269 294 q 347 247 328 268 q 375 201 365 226 q 385 150 385 175 q 368 57 385 107 q 320 -36 351 7 q 244 -108 289 -79 q 146 -136 200 -136 q 115 -128 126 -136 q 99 -112 104 -121 q 97 -110 97 -110 q 90 -93 92 -101 q 89 -78 89 -85 q 99 -37 89 -57 q 119 3 108 -17 z "},"<":{"ha":688,"x_min":108,"x_max":606,"o":"m 501 164 q 458 169 481 164 q 417 188 435 174 l 160 383 q 145 395 154 388 q 128 413 136 403 q 114 434 119 422 q 108 458 108 446 q 115 487 108 472 q 133 514 122 501 q 158 538 144 526 q 182 557 171 549 q 252 608 222 585 q 312 655 282 632 q 376 701 342 678 q 460 749 410 724 q 483 757 471 756 q 508 758 496 758 q 541 753 524 758 q 573 737 558 747 q 597 713 588 726 q 606 681 606 699 q 572 600 606 632 q 498 545 539 568 q 424 504 457 522 q 390 465 390 486 q 424 428 390 444 q 497 389 457 411 q 571 335 538 367 q 604 250 604 303 q 594 215 604 231 q 570 188 585 199 q 537 170 556 176 q 501 164 518 164 z "},"=":{"ha":586,"x_min":28,"x_max":554,"o":"m 28 581 q 33 613 28 597 q 48 642 39 629 q 70 664 57 656 q 97 672 83 672 q 279 676 189 672 q 461 679 369 679 q 521 644 499 679 q 543 564 543 608 q 513 513 543 531 q 442 485 483 494 q 361 474 401 476 q 300 472 321 472 q 251 471 276 472 q 200 472 225 469 q 144 476 175 475 q 88 488 114 478 q 45 519 63 497 q 28 581 28 540 m 40 381 q 51 422 40 407 q 78 443 61 436 q 114 451 94 450 q 151 453 133 453 q 232 455 192 453 q 313 457 272 457 q 362 456 338 457 q 410 454 386 454 q 460 454 435 454 q 507 446 486 454 q 541 419 528 438 q 554 363 554 400 q 520 307 554 326 q 440 279 486 288 q 350 270 394 271 q 285 269 306 269 q 240 269 271 269 q 174 272 208 269 q 110 278 139 274 q 74 290 82 282 q 49 331 58 306 q 40 381 40 357 z "},">":{"ha":696,"x_min":108,"x_max":606,"o":"m 213 758 q 256 753 233 758 q 297 735 279 749 l 554 539 q 569 527 560 535 q 586 510 578 519 q 600 488 594 500 q 606 464 606 476 q 599 435 606 450 q 581 408 592 421 q 556 385 569 396 q 532 365 543 374 q 462 315 492 339 q 402 267 432 290 q 338 222 372 244 q 254 174 304 199 q 231 165 243 167 q 206 164 218 164 q 173 169 190 164 q 141 185 156 175 q 117 210 126 196 q 108 242 108 224 q 140 322 108 290 q 209 377 171 354 q 278 418 247 400 q 310 457 310 436 q 278 494 310 478 q 210 533 247 511 q 141 588 172 556 q 110 672 110 619 q 119 708 110 692 q 144 735 129 724 q 177 752 158 746 q 213 758 196 758 z "},"?":{"ha":689,"x_min":19,"x_max":672,"o":"m 450 335 q 403 252 433 283 q 324 221 372 221 q 281 227 304 221 q 239 247 258 233 q 206 283 219 261 q 193 335 193 304 q 224 426 193 383 q 294 511 256 469 q 363 594 332 553 q 394 681 394 635 q 379 751 394 729 q 338 774 364 774 q 303 751 314 774 q 293 686 293 728 q 281 636 293 658 q 249 599 269 614 q 200 575 228 583 q 142 567 172 567 q 53 604 86 567 q 19 689 19 642 q 47 810 19 754 q 122 906 75 865 q 232 970 169 947 q 363 993 294 993 q 481 973 425 993 q 580 914 538 953 q 647 819 622 875 q 672 690 672 763 q 659 596 672 635 q 625 528 646 557 q 578 479 604 500 q 527 438 551 458 q 482 393 503 417 q 450 335 461 369 m 168 86 q 209 167 168 136 q 315 199 250 199 q 356 192 335 199 q 394 172 376 186 q 422 137 411 158 q 433 86 433 115 q 394 2 433 31 q 303 -26 354 -26 q 253 -19 278 -26 q 210 1 229 -12 q 180 37 192 15 q 168 86 168 58 z "},"@":{"ha":1154,"x_min":46,"x_max":1107,"o":"m 860 25 q 782 47 813 25 q 731 94 751 68 q 694 141 710 119 q 664 163 679 163 q 641 156 654 163 q 610 140 628 149 q 571 125 593 132 q 522 118 549 118 q 428 143 472 118 q 351 211 385 168 q 299 312 318 254 q 279 435 279 369 q 303 571 279 508 q 372 679 328 633 q 481 751 417 725 q 626 776 546 776 q 709 767 671 776 q 776 738 747 758 q 821 685 804 718 q 838 606 838 653 q 834 545 838 583 q 826 462 831 507 q 819 371 822 417 q 819 287 817 325 q 828 225 821 249 q 854 201 836 201 q 888 231 874 201 q 910 300 901 260 q 922 384 918 340 q 925 457 925 428 q 903 608 925 540 q 840 724 882 676 q 738 798 799 772 q 597 824 676 824 q 476 797 538 824 q 363 717 414 769 q 278 590 311 665 q 246 418 246 515 q 269 278 246 340 q 329 172 292 215 q 415 106 367 129 q 515 83 464 83 q 591 95 560 83 q 649 107 622 107 q 698 85 681 107 q 715 31 715 64 q 692 -35 715 -10 q 633 -77 668 -61 q 560 -99 599 -93 q 490 -106 521 -106 q 326 -62 406 -106 q 183 55 246 -19 q 83 228 121 129 q 46 442 46 328 q 94 684 46 579 q 222 861 143 789 q 401 970 301 933 q 603 1007 501 1007 q 805 975 713 1007 q 965 876 897 943 q 1069 708 1032 810 q 1107 469 1107 607 q 1093 316 1107 394 q 1049 173 1079 238 q 972 67 1018 108 q 860 25 925 25 m 654 592 q 639 606 654 601 q 608 610 624 610 q 555 594 578 610 q 516 555 532 579 q 492 499 500 531 q 483 435 483 468 q 488 387 483 414 q 500 337 492 360 q 522 298 508 314 q 556 282 536 282 q 590 299 575 282 q 617 341 606 315 q 635 398 628 367 q 646 460 642 429 q 652 518 650 492 q 654 560 654 544 l 654 592 z "},"A":{"ha":803,"x_min":28,"x_max":775,"o":"m 638 1 q 565 24 590 1 q 528 81 540 47 q 511 156 515 115 q 502 230 507 196 q 488 287 497 264 q 454 310 478 310 l 375 310 q 320 294 335 310 q 294 242 306 278 q 276 166 285 208 q 253 86 268 124 q 213 22 239 49 q 138 -4 186 -4 q 78 17 100 -4 q 44 67 56 38 q 31 132 33 97 q 28 194 28 167 q 35 332 28 251 q 60 501 43 413 q 107 678 78 590 q 178 835 136 765 q 279 949 221 906 q 413 992 338 992 q 505 972 464 992 q 578 918 546 951 q 634 843 610 885 q 678 760 658 801 q 758 476 740 621 q 775 181 775 332 q 767 118 775 150 q 742 60 758 86 q 699 17 725 33 q 638 1 674 1 m 339 518 q 360 493 339 501 q 408 485 382 485 q 456 495 435 486 q 478 521 478 504 q 474 583 478 546 q 461 656 469 621 q 441 717 453 692 q 415 742 429 742 q 388 719 401 742 q 363 662 374 696 q 346 589 353 628 q 339 518 339 550 z "},"B":{"ha":761,"x_min":35,"x_max":735,"o":"m 708 769 q 692 661 708 704 q 652 591 676 618 q 600 551 628 564 q 548 531 572 538 q 508 524 524 525 q 492 518 492 522 q 510 512 492 514 q 555 503 528 510 q 613 485 582 497 q 672 448 644 472 q 717 384 699 424 q 735 285 735 344 q 697 147 735 201 q 598 59 658 92 q 465 13 538 26 q 322 0 392 0 q 249 3 288 0 q 177 15 211 7 q 117 38 143 24 q 78 72 90 51 q 56 146 64 94 q 43 263 47 197 q 37 401 39 328 q 35 540 35 474 q 35 658 35 606 q 36 735 36 710 q 44 828 36 783 q 79 908 53 874 q 155 962 106 942 q 286 982 204 982 l 378 982 q 489 974 431 982 q 596 942 547 965 q 676 876 644 918 q 708 769 708 835 m 286 685 q 288 642 286 664 q 294 600 289 619 q 310 589 297 590 q 329 588 322 588 q 414 612 379 588 q 449 693 449 636 q 422 760 449 743 q 354 778 394 778 q 310 773 325 778 q 291 758 296 768 q 286 729 286 747 q 286 685 286 711 m 314 246 q 345 236 321 238 q 395 242 369 235 q 442 268 421 250 q 463 318 463 286 q 452 371 463 354 q 424 394 442 388 q 385 401 407 401 q 342 400 364 400 q 320 397 333 400 q 307 386 307 393 q 307 339 307 363 q 308 296 307 315 q 310 263 308 276 q 314 246 311 250 z "},"C":{"ha":768,"x_min":24,"x_max":735,"o":"m 600 581 q 523 597 556 575 q 490 674 490 618 q 469 736 490 710 q 411 763 449 763 q 350 742 372 763 q 317 686 328 722 q 302 599 306 650 q 299 486 299 549 q 303 383 299 433 q 319 292 307 332 q 355 227 332 251 q 415 203 378 203 q 476 230 461 203 q 490 289 490 257 q 505 341 490 321 q 540 372 519 361 q 583 387 561 383 q 618 390 604 390 q 669 378 647 390 q 706 347 692 367 q 728 302 721 328 q 735 247 735 276 q 703 135 735 185 q 621 49 672 85 q 506 -6 569 14 q 376 -25 442 -25 q 210 17 278 -25 q 101 128 143 58 q 42 290 60 199 q 24 479 24 381 q 42 672 24 578 q 106 839 61 765 q 224 958 150 913 q 408 1003 299 1003 q 529 986 472 1003 q 628 937 586 969 q 696 856 671 904 q 721 744 721 808 q 697 631 721 674 q 600 581 672 589 z "},"D":{"ha":785,"x_min":38,"x_max":751,"o":"m 275 0 q 97 57 151 0 q 43 240 43 114 q 42 288 43 260 q 41 347 42 315 q 40 411 40 379 q 39 469 39 443 q 38 574 39 507 q 41 710 38 640 q 53 842 44 781 q 81 932 63 903 q 304 997 124 997 q 494 971 411 997 q 635 888 578 944 q 722 740 692 831 q 751 522 751 650 q 717 284 751 383 q 619 122 682 185 q 469 29 557 58 q 275 0 382 0 m 286 358 q 298 284 286 313 q 349 256 310 256 q 414 283 388 256 q 457 351 440 310 q 481 444 474 393 q 488 544 488 496 q 485 599 488 564 q 471 667 482 633 q 435 725 460 700 q 369 750 411 750 q 307 722 328 750 q 286 643 286 694 l 286 358 z "},"E":{"ha":676,"x_min":26,"x_max":661,"o":"m 304 694 q 304 672 304 683 q 308 650 304 660 q 319 635 311 640 q 342 629 326 629 q 388 631 368 629 q 425 633 407 632 q 463 634 443 633 q 508 635 482 635 q 584 603 557 635 q 611 526 611 571 q 581 458 611 486 q 507 431 551 431 l 328 431 q 301 415 306 431 q 296 382 296 399 q 298 333 296 358 q 309 286 300 307 q 336 251 318 265 q 385 238 354 238 q 451 248 422 238 q 503 278 479 258 q 534 297 521 292 q 567 303 547 303 q 635 269 610 303 q 661 169 661 236 q 628 85 661 119 q 549 32 596 51 q 449 4 501 13 q 360 -4 397 -4 q 226 18 282 -4 q 134 78 171 40 q 76 167 97 117 q 43 276 54 218 q 29 397 32 335 q 26 519 26 460 q 37 690 26 607 q 74 838 47 774 q 147 940 101 901 q 261 979 192 979 l 442 979 q 506 976 474 979 q 565 960 538 972 q 608 922 592 947 q 625 854 625 897 q 612 797 625 819 q 578 763 599 775 q 531 745 557 750 q 478 740 504 740 q 441 742 457 740 q 409 748 425 744 q 377 753 393 751 q 340 756 361 756 q 324 749 331 756 q 313 732 317 742 q 306 712 308 722 q 304 694 304 701 z "},"F":{"ha":639,"x_min":35,"x_max":621,"o":"m 368 757 q 332 747 344 757 q 315 721 319 738 q 310 682 310 704 q 310 636 310 660 q 312 587 310 606 q 319 558 314 568 q 335 547 325 549 q 358 546 344 544 q 377 547 369 547 q 394 547 385 547 q 415 547 403 547 q 446 547 426 547 q 504 543 478 547 q 550 528 531 539 q 580 495 569 517 q 590 440 590 474 q 562 348 590 372 q 485 324 533 324 q 427 322 449 324 q 382 321 406 321 q 325 305 346 321 q 304 246 304 289 q 308 211 304 233 q 311 149 311 189 q 274 42 311 86 q 171 -1 238 -1 q 76 39 104 -1 q 47 150 47 79 q 41 433 47 310 q 35 658 35 556 q 56 811 35 749 q 113 913 76 874 q 198 971 149 953 q 304 989 247 989 q 356 990 326 989 q 419 989 386 990 q 487 983 453 988 q 550 965 521 978 q 601 931 582 953 q 621 875 621 910 q 599 786 621 822 q 529 750 576 750 q 435 753 476 750 q 368 757 394 757 z "},"G":{"ha":803,"x_min":22,"x_max":778,"o":"m 426 258 q 476 267 456 258 q 510 290 497 276 q 528 320 522 304 q 533 349 533 336 q 493 383 533 383 q 463 383 479 383 q 418 381 446 382 q 355 403 369 378 q 340 472 340 428 q 356 532 340 510 q 399 566 372 554 q 463 581 426 578 q 538 583 499 583 q 624 576 582 583 q 701 545 667 568 q 757 478 736 522 q 778 361 778 435 q 750 213 778 281 q 673 96 722 144 q 557 20 624 47 q 411 -7 490 -7 q 260 19 331 -7 q 136 102 189 44 q 53 252 83 160 q 22 476 22 344 q 127 869 22 742 q 433 996 232 996 q 676 941 592 996 q 761 768 761 886 q 749 688 761 718 q 717 643 736 658 q 675 623 699 628 q 631 618 651 618 q 557 636 588 618 q 508 700 526 654 q 474 742 499 726 q 418 757 450 757 q 354 731 379 757 q 314 663 329 704 q 292 573 299 622 q 286 478 286 524 q 294 398 286 438 q 320 327 303 358 q 364 277 338 296 q 426 258 390 258 z "},"H":{"ha":807,"x_min":40,"x_max":764,"o":"m 40 663 q 44 755 40 700 q 62 860 47 810 q 107 947 76 911 q 190 983 138 983 q 250 967 228 983 q 285 925 272 950 q 301 869 297 900 q 306 808 306 838 q 305 742 306 782 q 304 676 304 703 q 319 621 304 633 q 375 608 333 608 l 456 608 q 488 619 481 608 q 500 651 496 629 q 506 710 506 676 q 509 782 507 744 q 516 855 511 819 q 534 919 521 890 q 570 966 547 949 q 631 983 593 983 q 698 963 672 983 q 738 910 724 942 q 758 843 753 879 q 764 776 764 807 q 762 594 764 685 q 760 413 760 504 q 760 345 760 386 q 758 258 761 304 q 749 167 756 213 q 726 83 742 121 q 683 23 710 46 q 617 0 657 0 q 544 31 569 0 q 506 105 518 61 q 491 195 493 149 q 489 275 489 242 q 490 305 489 292 q 492 329 490 318 q 494 353 493 340 q 494 383 494 367 q 483 399 494 394 q 458 407 472 404 q 428 410 443 410 q 407 410 414 410 q 382 410 399 410 q 349 409 365 411 q 319 402 332 407 q 306 386 306 397 q 308 339 306 356 q 310 292 310 322 q 308 208 310 258 q 293 112 306 158 q 254 32 281 65 q 179 -1 228 -1 q 121 17 144 -1 q 82 63 97 35 q 58 128 67 92 q 46 201 50 164 q 41 272 42 238 q 40 329 40 306 l 40 663 z "},"I":{"ha":528,"x_min":17,"x_max":507,"o":"m 28 122 q 35 178 28 160 q 55 203 43 196 q 81 213 67 211 q 106 220 94 215 q 126 236 118 225 q 133 274 133 247 q 130 503 133 378 q 126 763 126 629 q 118 785 126 779 q 98 791 110 790 q 72 792 86 792 q 45 797 57 792 q 25 817 33 803 q 17 863 17 832 q 49 940 17 915 q 124 976 81 965 q 211 985 167 986 q 282 985 256 985 q 344 983 306 985 q 418 970 382 981 q 481 937 454 960 q 507 874 507 914 q 473 816 507 836 q 400 789 439 796 q 390 786 394 788 q 385 778 385 785 q 387 585 385 675 q 389 392 389 494 q 388 319 389 351 q 386 254 386 286 q 394 221 386 231 q 415 208 403 211 q 443 205 428 206 q 471 197 458 204 q 492 174 483 190 q 500 125 500 158 q 470 52 500 78 q 399 15 440 26 q 314 1 357 3 q 244 0 271 0 q 181 1 218 0 q 109 15 143 3 q 51 51 75 26 q 28 122 28 76 z "},"J":{"ha":686,"x_min":26,"x_max":651,"o":"m 396 506 q 395 564 396 539 q 394 613 394 589 q 392 661 393 636 q 392 719 392 686 q 364 768 392 768 q 321 767 347 768 q 265 765 294 767 q 210 763 236 764 q 167 763 183 763 q 89 788 121 763 q 57 863 57 813 q 83 931 57 907 q 147 967 110 956 q 224 981 185 978 q 289 983 264 983 l 450 983 q 529 976 493 983 q 591 950 565 969 q 631 897 617 931 q 646 810 646 864 q 649 694 646 761 q 651 557 651 628 q 638 316 651 421 q 588 140 624 211 q 488 33 551 69 q 325 -4 424 -4 q 188 26 244 -4 q 96 106 132 56 q 43 219 60 156 q 26 350 26 283 q 35 410 26 379 q 63 465 44 440 q 108 506 81 490 q 169 521 135 521 q 209 517 189 521 q 244 501 229 513 q 269 472 260 490 q 279 425 279 453 q 278 365 279 403 q 281 292 278 328 q 292 231 283 257 q 318 206 300 206 q 381 278 365 206 q 396 506 396 351 z "},"K":{"ha":783,"x_min":38,"x_max":761,"o":"m 619 0 q 556 25 588 0 q 495 87 524 50 q 441 167 467 124 q 394 247 415 210 q 356 308 372 283 q 329 333 339 333 q 300 282 300 333 q 301 224 300 257 q 300 157 303 192 q 292 99 299 126 q 272 49 286 71 q 236 13 258 26 q 181 0 214 0 q 99 38 128 0 q 58 128 71 75 q 42 237 44 181 q 40 329 40 293 q 40 413 40 367 q 39 508 39 460 q 38 603 39 557 q 38 688 38 650 q 41 778 38 728 q 60 874 44 829 q 107 951 75 919 q 196 982 139 982 q 256 970 233 982 q 292 938 279 958 q 308 890 304 917 q 313 832 313 863 q 310 765 313 804 q 308 700 308 726 q 310 678 308 692 q 324 664 313 664 q 351 688 333 664 q 391 747 368 711 q 442 823 414 782 q 502 899 471 864 q 566 958 533 935 q 631 982 599 982 q 680 969 658 982 q 717 935 701 956 q 742 886 733 914 q 750 829 750 858 q 732 757 750 793 q 688 686 714 721 q 630 620 661 651 q 572 563 599 589 q 528 517 546 536 q 510 488 510 499 q 516 467 510 476 q 531 451 522 458 q 606 390 565 424 q 681 317 646 356 q 738 238 715 278 q 761 157 761 197 q 724 43 761 86 q 619 0 688 0 z "},"L":{"ha":604,"x_min":33,"x_max":589,"o":"m 289 408 q 290 370 289 393 q 296 326 292 347 q 310 290 300 306 q 336 275 319 275 q 380 292 356 275 q 450 332 404 308 q 488 342 469 342 q 530 328 511 342 q 562 293 549 314 q 582 247 575 272 q 589 199 589 222 q 522 54 589 110 q 338 -1 456 -1 q 212 3 268 -1 q 116 35 156 8 q 55 115 76 61 q 33 267 33 169 l 33 738 q 38 819 33 775 q 58 900 43 863 q 103 963 74 938 q 181 988 132 988 q 243 970 221 988 q 277 926 265 953 q 292 866 289 899 q 294 804 294 833 q 294 700 294 747 q 292 607 293 653 q 290 513 290 561 q 289 408 289 465 z "},"M":{"ha":967,"x_min":38,"x_max":931,"o":"m 322 172 q 316 107 322 139 q 296 51 310 75 q 259 13 282 28 q 201 -1 236 -1 q 118 30 150 -1 q 68 111 86 61 q 44 224 50 161 q 38 350 38 288 l 38 611 q 46 742 38 676 q 73 861 54 808 q 122 947 92 914 q 199 979 153 979 q 273 959 238 979 q 339 908 308 939 q 395 842 369 878 q 441 775 421 806 q 476 724 461 744 q 497 704 490 704 q 519 725 506 704 q 549 776 532 746 q 589 844 567 807 q 638 911 611 881 q 694 963 664 942 q 761 983 725 983 q 839 962 807 983 q 891 909 871 940 q 919 841 911 878 q 928 775 928 804 l 928 453 q 929 376 928 422 q 929 280 931 331 q 922 179 928 229 q 901 89 915 129 q 863 24 888 49 q 800 -1 839 -1 q 717 17 747 -1 q 673 65 688 36 q 655 129 658 94 q 651 196 651 164 q 658 348 651 275 q 664 481 664 421 q 663 515 664 500 q 656 529 663 529 q 635 499 647 529 q 603 431 624 468 q 554 363 583 393 q 481 332 525 332 q 413 358 436 332 q 375 416 389 385 q 353 474 361 447 q 329 500 344 500 q 314 485 315 500 q 313 447 313 471 q 317 312 313 385 q 322 172 322 239 z "},"N":{"ha":818,"x_min":36,"x_max":783,"o":"m 601 -3 q 526 29 563 -3 q 459 108 490 61 q 401 211 428 156 q 354 314 375 267 q 317 393 333 361 q 293 425 301 425 q 285 419 288 425 q 281 404 282 413 q 279 388 279 396 q 279 376 279 379 q 292 279 279 332 q 304 182 304 226 q 302 125 304 157 q 288 64 300 93 q 251 15 276 35 q 176 -4 225 -4 q 94 41 122 -4 q 52 157 65 86 q 38 315 39 228 q 36 488 36 403 q 37 597 36 542 q 38 706 38 651 q 44 806 38 756 q 69 895 51 856 q 117 959 86 935 q 199 983 149 983 q 274 948 236 983 q 346 858 311 913 q 412 742 381 804 q 467 626 443 681 q 509 537 492 572 q 532 501 526 501 q 542 517 540 501 q 542 538 543 533 q 523 692 529 613 q 524 836 517 771 q 557 943 532 901 q 633 985 582 985 q 720 967 690 985 q 765 919 750 950 q 781 847 779 889 q 783 754 783 804 q 782 640 783 703 q 778 518 781 578 q 775 409 776 458 q 774 335 774 360 q 769 202 774 264 q 747 95 764 140 q 695 24 729 50 q 601 -3 661 -3 z "},"O":{"ha":899,"x_min":36,"x_max":861,"o":"m 446 -15 q 284 13 358 -15 q 154 102 210 42 q 67 255 99 163 q 36 474 36 347 q 67 704 36 607 q 155 864 99 801 q 290 957 211 926 q 464 988 368 988 q 761 865 661 988 q 861 504 861 743 q 755 122 861 258 q 446 -15 649 -15 m 303 474 q 311 390 303 436 q 338 302 319 343 q 386 233 357 261 q 458 206 415 206 q 531 232 504 206 q 572 299 557 258 q 590 388 586 339 q 594 479 594 436 q 585 573 594 524 q 558 665 576 622 q 511 736 539 708 q 447 764 483 764 q 395 742 421 764 q 349 683 369 721 q 315 591 328 644 q 303 474 303 538 z "},"P":{"ha":760,"x_min":36,"x_max":738,"o":"m 738 632 q 718 482 738 557 q 658 346 699 407 q 555 247 618 285 q 404 208 492 208 q 381 210 396 208 q 351 211 367 211 q 324 208 336 211 q 307 197 311 206 q 305 184 304 190 q 306 171 306 178 q 306 96 306 128 q 294 42 306 64 q 255 10 283 21 q 169 0 226 0 q 92 42 119 0 q 53 140 65 83 q 38 256 40 197 q 36 349 36 314 l 36 626 q 46 760 36 696 q 83 873 56 824 q 163 952 111 922 q 299 982 215 982 q 483 970 401 982 q 620 922 564 958 q 707 816 676 885 q 738 632 738 747 m 293 631 q 294 547 293 589 q 294 464 294 506 q 302 434 294 446 q 329 422 310 422 q 397 440 369 422 q 442 485 425 457 q 467 547 460 513 q 475 617 475 582 q 472 671 475 644 q 457 718 468 697 q 426 751 446 739 q 372 764 406 764 q 322 753 339 764 q 299 723 306 742 q 293 681 293 704 q 293 631 293 657 z "},"Q":{"ha":896,"x_min":36,"x_max":861,"o":"m 446 -15 q 284 13 358 -15 q 154 102 210 42 q 67 255 99 163 q 36 474 36 347 q 67 704 36 607 q 155 864 99 801 q 290 957 211 926 q 464 988 368 988 q 761 865 661 988 q 861 504 861 743 q 853 387 861 440 q 831 289 844 333 q 799 206 817 244 q 760 133 781 168 q 754 116 754 124 q 758 102 754 108 q 768 90 763 96 q 776 81 774 85 q 797 48 788 65 q 806 13 806 31 q 783 -56 806 -21 q 701 -103 760 -92 q 660 -103 679 -107 q 624 -92 640 -100 q 595 -74 607 -85 q 578 -54 583 -64 q 565 -26 571 -44 q 544 -6 558 -8 q 506 -9 532 -3 q 446 -15 479 -15 m 303 474 q 311 390 303 436 q 338 302 319 343 q 386 233 357 261 q 458 206 415 206 q 531 232 504 206 q 572 299 557 258 q 590 388 586 339 q 594 479 594 436 q 585 573 594 524 q 558 665 576 622 q 511 736 539 708 q 447 764 483 764 q 395 742 421 764 q 349 683 369 721 q 315 591 328 644 q 303 474 303 538 z "},"R":{"ha":785,"x_min":33,"x_max":761,"o":"m 304 240 q 302 159 304 201 q 288 81 300 117 q 251 22 276 46 q 176 -1 225 -1 q 99 19 126 -1 q 58 72 71 40 q 41 144 44 104 q 36 221 38 183 q 33 299 33 260 q 33 376 33 338 q 34 469 33 408 q 35 595 35 531 q 38 715 36 660 q 43 790 40 771 q 69 863 47 828 q 128 924 90 897 q 220 966 165 950 q 347 982 275 982 q 470 971 401 982 q 599 926 539 960 q 701 830 660 892 q 743 667 743 768 q 720 538 743 589 q 663 454 697 486 q 588 406 628 422 q 514 381 549 389 q 456 369 479 372 q 433 360 433 365 q 458 342 433 354 q 518 311 482 329 q 597 269 554 293 q 676 219 640 246 q 737 161 713 192 q 761 97 761 131 q 731 16 761 47 q 651 -15 700 -15 q 566 5 607 -15 q 489 56 525 25 q 424 122 453 86 q 372 189 394 158 q 335 240 350 219 q 314 260 319 260 q 306 252 307 260 q 304 240 304 244 m 306 565 q 321 538 306 546 q 353 529 336 529 q 404 541 381 529 q 446 572 428 553 q 474 615 464 590 q 485 667 485 640 q 454 749 485 715 q 374 783 424 783 q 326 769 347 783 q 306 725 306 754 l 306 565 z "},"S":{"ha":743,"x_min":15,"x_max":719,"o":"m 128 418 q 190 401 163 418 q 224 351 218 383 q 269 247 235 282 q 371 213 304 213 q 435 224 411 213 q 458 256 458 236 q 428 301 458 278 q 351 352 397 325 q 251 411 306 379 q 151 483 197 443 q 75 573 106 524 q 44 685 44 622 q 72 808 44 751 q 148 906 100 865 q 261 969 196 946 q 401 992 326 992 q 533 972 476 992 q 628 919 590 953 q 685 840 667 886 q 704 740 704 794 q 674 648 704 682 q 594 614 643 614 q 522 638 542 614 q 494 693 503 661 q 460 749 485 728 q 394 769 435 769 q 340 755 361 769 q 318 711 318 740 q 348 661 318 685 q 422 613 378 638 q 519 559 467 589 q 615 490 571 529 q 690 399 660 451 q 719 278 719 347 q 691 156 719 210 q 616 64 663 101 q 510 6 569 26 q 390 -14 451 -14 q 229 8 299 -14 q 112 69 160 29 q 40 163 64 108 q 15 286 15 218 q 22 335 15 311 q 43 377 29 358 q 78 407 57 396 q 128 418 100 418 z "},"T":{"ha":724,"x_min":7,"x_max":717,"o":"m 367 -3 q 300 12 331 -3 q 251 61 269 26 q 237 110 240 85 q 233 160 233 135 q 233 297 233 232 q 233 425 233 361 q 232 553 232 489 q 232 690 232 618 q 224 711 232 703 q 203 719 215 719 q 140 724 174 719 q 76 742 106 729 q 27 781 47 756 q 7 846 7 806 q 26 917 7 890 q 76 958 46 943 q 140 977 106 972 q 203 982 174 982 l 474 982 q 544 978 503 982 q 624 960 586 974 q 690 922 663 947 q 717 853 717 896 q 695 790 717 815 q 643 748 674 764 q 578 726 613 732 q 517 719 543 719 q 493 696 490 719 q 498 592 497 640 q 498 498 499 544 q 496 403 497 451 q 494 299 494 356 q 496 206 494 258 q 488 108 497 154 q 451 29 478 61 q 367 -3 424 -3 z "},"U":{"ha":810,"x_min":35,"x_max":775,"o":"m 408 -7 q 195 42 271 -7 q 84 170 119 92 q 42 347 49 249 q 35 546 35 446 q 38 715 35 636 q 56 853 42 793 q 101 947 71 913 q 185 981 131 981 q 256 957 231 981 q 293 898 281 933 q 308 822 306 863 q 311 747 311 782 q 308 603 311 675 q 306 458 306 531 q 308 387 306 425 q 322 315 311 349 q 351 260 332 282 q 404 238 371 238 q 469 260 446 238 q 503 328 492 283 q 516 437 514 372 q 518 585 518 501 q 514 728 518 657 q 510 871 510 799 q 543 956 510 926 q 628 986 576 986 q 703 968 674 986 q 748 918 732 950 q 769 842 764 886 q 775 743 775 797 l 775 608 q 772 460 775 535 q 758 318 769 386 q 724 190 747 250 q 660 87 700 131 q 558 18 619 43 q 408 -7 496 -7 z "},"V":{"ha":814,"x_min":21,"x_max":793,"o":"m 142 983 q 258 919 219 983 q 271 879 264 910 q 286 806 278 849 q 304 711 294 763 q 324 609 314 660 q 344 513 333 558 q 367 433 356 467 q 388 383 378 401 q 406 364 397 364 q 421 372 414 364 q 433 390 428 379 q 441 411 438 400 q 446 428 444 422 q 463 501 453 453 q 485 609 472 549 q 511 738 497 669 q 540 869 525 806 q 585 955 553 922 q 665 988 617 988 q 756 958 718 988 q 793 878 793 929 q 780 789 793 853 q 745 641 767 725 q 696 463 724 557 q 639 286 668 369 q 581 138 610 203 q 528 50 551 74 q 462 3 493 14 q 393 -8 431 -8 q 288 44 338 -8 q 197 180 238 97 q 123 363 156 263 q 67 560 90 464 q 33 738 44 657 q 21 861 21 818 q 53 949 21 914 q 142 983 86 983 z "},"W":{"ha":1071,"x_min":33,"x_max":1039,"o":"m 732 -18 q 650 0 685 -18 q 590 40 615 18 q 549 81 565 63 q 521 99 532 99 q 493 81 511 99 q 449 43 475 64 q 391 5 424 22 q 318 -12 358 -12 q 203 12 250 -12 q 124 77 156 36 q 75 172 93 118 q 48 284 57 225 q 37 403 39 343 q 35 518 35 464 q 34 594 35 549 q 36 692 33 640 q 47 795 39 743 q 73 888 56 847 q 119 956 90 929 q 192 982 147 982 q 256 958 233 982 q 290 901 279 935 q 303 828 301 867 q 306 761 306 790 q 302 611 306 686 q 299 461 299 536 q 299 410 299 446 q 306 337 300 374 q 322 272 311 300 q 354 243 333 243 q 395 260 379 243 q 420 302 411 276 q 432 358 429 328 q 435 415 435 389 q 432 497 435 456 q 429 578 429 538 q 430 696 429 643 q 440 786 431 749 q 470 844 449 824 q 532 864 492 864 q 595 850 572 864 q 628 805 618 836 q 641 722 639 774 q 643 596 643 671 q 644 552 643 583 q 649 482 646 521 q 657 401 651 443 q 672 325 663 360 q 693 268 681 290 q 724 246 706 246 q 760 277 749 246 q 775 353 771 308 q 778 448 779 399 q 778 535 778 497 l 778 639 q 772 747 778 701 q 767 832 767 793 q 799 947 767 907 q 888 986 831 986 q 972 942 942 986 q 1017 834 1003 897 q 1035 701 1032 771 q 1039 583 1039 632 q 1036 462 1039 528 q 1022 329 1033 396 q 992 199 1011 263 q 938 88 972 136 q 853 11 903 40 q 732 -18 803 -18 z "},"X":{"ha":894,"x_min":19,"x_max":875,"o":"m 747 -4 q 683 17 715 -4 q 622 69 651 38 q 565 136 592 100 q 515 203 538 172 q 474 256 492 235 q 443 276 456 276 q 413 256 431 276 q 372 203 394 235 q 324 136 350 172 q 268 69 297 100 q 207 17 239 38 q 142 -4 175 -4 q 56 24 93 -4 q 19 106 19 53 q 38 172 19 135 q 83 247 56 208 q 141 322 110 285 q 199 391 172 360 q 244 446 226 422 q 263 481 263 469 q 244 512 263 490 q 200 563 226 533 q 142 628 174 593 q 85 701 111 664 q 40 777 58 739 q 22 850 22 815 q 60 949 22 915 q 144 982 99 982 q 197 963 169 982 q 251 915 224 943 q 306 852 279 886 q 357 790 333 818 q 399 742 381 761 q 431 722 418 722 q 464 742 443 722 q 510 793 485 763 q 565 860 536 824 q 623 926 593 896 q 681 977 653 957 q 735 997 710 997 q 835 964 801 997 q 868 869 868 931 q 849 810 868 844 q 802 738 831 775 q 740 663 774 700 q 678 592 707 625 q 631 533 650 558 q 613 496 613 508 q 632 459 613 483 q 681 402 651 435 q 744 331 710 369 q 807 253 778 293 q 856 174 836 214 q 875 100 875 135 q 863 56 875 75 q 833 23 851 36 q 792 3 814 10 q 747 -4 769 -4 z "},"Y":{"ha":729,"x_min":7,"x_max":722,"o":"m 243 238 q 244 319 243 278 q 246 400 246 360 q 228 446 246 415 q 184 517 211 476 q 126 604 157 558 q 69 694 96 650 q 24 776 42 738 q 7 839 7 814 q 47 948 7 914 q 139 982 86 982 q 192 958 167 982 q 240 897 217 933 q 282 819 263 861 q 318 742 301 778 q 348 681 335 706 q 372 657 361 657 q 394 681 383 657 q 420 742 406 706 q 452 822 435 779 q 491 902 469 865 q 540 963 513 939 q 599 988 567 988 q 688 958 653 988 q 722 881 722 928 q 705 797 722 843 q 662 701 688 750 q 606 605 636 653 q 549 517 575 557 q 506 451 524 478 q 489 415 489 424 q 492 338 489 376 q 494 260 494 299 q 493 178 494 224 q 480 94 492 133 q 442 27 468 54 q 365 0 415 0 q 294 24 319 0 q 258 85 269 49 q 245 163 247 122 q 243 238 243 204 z "},"Z":{"ha":751,"x_min":24,"x_max":731,"o":"m 717 807 q 691 727 717 775 q 627 624 665 679 q 544 511 589 568 q 462 406 500 454 q 398 322 424 357 q 372 274 372 286 q 391 249 372 253 q 425 244 410 244 q 477 247 451 244 q 529 249 503 249 q 615 249 578 249 q 678 240 653 250 q 717 206 704 231 q 731 131 731 181 q 692 49 731 76 q 602 8 654 21 q 497 -6 550 -4 q 411 -7 443 -7 q 328 -6 369 -7 q 244 -4 286 -4 q 169 3 208 -4 q 98 28 131 10 q 44 78 65 47 q 24 157 24 110 q 51 256 24 199 q 121 377 79 314 q 210 503 163 440 q 300 617 258 565 q 369 705 342 669 q 397 749 397 740 q 385 764 397 761 q 365 767 374 767 q 314 763 346 767 q 244 756 282 758 q 169 753 207 753 q 101 764 132 754 q 51 794 71 774 q 32 853 32 815 q 65 931 32 903 q 143 973 97 960 q 237 989 189 986 q 314 992 285 992 q 471 988 397 992 q 599 967 544 985 q 685 913 654 950 q 717 807 717 875 z "},"[":{"ha":588,"x_min":61,"x_max":558,"o":"m 325 -104 q 197 -95 243 -104 q 125 -56 150 -86 q 90 34 100 -25 q 71 193 81 93 q 64 305 65 250 q 63 417 63 360 q 62 518 63 468 q 61 619 61 568 q 69 874 61 779 q 108 1017 78 968 q 197 1080 139 1065 q 351 1094 254 1094 q 431 1090 396 1094 q 492 1073 467 1085 q 532 1040 518 1061 q 546 988 546 1019 q 513 911 546 931 q 428 892 481 892 q 367 889 396 892 q 322 879 339 886 q 308 858 310 874 q 306 831 306 842 q 306 749 306 810 q 308 609 307 688 q 310 444 308 531 q 313 285 311 358 q 319 162 315 211 q 326 107 322 113 q 341 94 335 96 q 363 93 347 93 q 406 99 385 93 q 450 104 426 104 q 489 99 469 104 q 524 83 508 93 q 549 56 539 72 q 558 18 558 40 q 540 -48 558 -24 q 491 -85 522 -72 q 417 -101 460 -97 q 325 -104 374 -104 z "},"\\":{"ha":681,"x_min":26,"x_max":640,"o":"m 117 1069 q 176 1057 147 1069 q 221 1018 206 1044 q 273 926 246 979 q 327 815 300 872 q 378 703 354 758 q 422 603 403 647 q 510 412 464 506 q 593 218 557 318 q 624 125 608 172 q 640 29 640 78 q 619 -47 640 -17 q 547 -78 597 -78 q 496 -60 519 -78 q 453 -17 472 -43 q 419 37 433 8 q 393 86 404 65 q 321 245 354 165 q 250 404 288 325 q 215 478 238 432 q 168 578 193 524 q 118 690 143 632 q 73 803 93 749 q 40 902 53 857 q 26 974 26 947 q 50 1042 26 1015 q 117 1069 74 1069 z "},"]":{"ha":579,"x_min":35,"x_max":532,"o":"m 268 1094 q 397 1085 350 1094 q 468 1046 443 1076 q 503 956 493 1015 q 522 797 513 897 q 529 685 528 740 q 531 574 531 631 q 531 472 531 522 q 532 371 532 422 q 524 117 532 211 q 485 -26 515 22 q 397 -90 454 -75 q 242 -104 340 -104 q 163 -99 199 -104 q 101 -83 126 -94 q 61 -50 75 -71 q 47 3 47 -29 q 80 79 47 60 q 165 99 113 99 q 226 101 197 99 q 271 111 254 104 q 285 133 283 117 q 288 160 288 149 q 287 242 288 182 q 285 381 286 303 q 283 546 285 460 q 280 706 282 632 q 274 828 278 779 q 267 883 271 878 q 252 896 258 894 q 231 897 246 897 q 188 892 208 897 q 143 886 167 886 q 104 892 124 886 q 69 908 85 897 q 44 934 54 918 q 35 972 35 950 q 53 1038 35 1014 q 102 1075 71 1063 q 176 1091 133 1088 q 268 1094 219 1094 z "},"^":{"ha":676,"x_min":38,"x_max":640,"o":"m 339 1025 q 408 1003 379 1025 q 460 944 438 981 l 615 686 q 633 655 625 671 q 640 622 640 639 q 610 563 640 586 q 540 540 579 540 q 459 575 492 540 q 404 651 426 610 q 367 728 382 693 q 339 763 351 763 q 324 746 333 763 q 303 705 315 729 q 276 652 292 681 q 242 599 261 624 q 199 558 222 575 q 150 542 176 542 q 68 567 99 542 q 38 625 38 593 q 45 659 38 643 q 63 690 53 675 l 224 953 q 278 1006 244 986 q 339 1025 311 1025 z "},"_":{"ha":642,"x_min":57,"x_max":594,"o":"m 57 -85 q 83 -28 57 -56 q 151 1 108 0 l 522 10 q 581 -19 567 11 q 594 -99 594 -50 q 571 -162 594 -135 q 483 -197 547 -189 q 415 -203 453 -201 q 339 -206 376 -206 q 270 -206 301 -206 q 224 -206 239 -206 q 161 -202 192 -206 q 108 -186 131 -199 q 71 -150 85 -174 q 57 -85 57 -126 z "},"`":{"ha":492,"x_min":69,"x_max":375,"o":"m 69 1144 q 79 1180 69 1164 q 103 1207 89 1196 q 136 1224 118 1218 q 171 1231 154 1231 q 230 1210 194 1231 q 297 1161 265 1190 q 352 1099 329 1132 q 375 1043 375 1067 q 358 999 375 1017 q 315 981 342 981 q 253 998 294 981 q 172 1041 213 1015 q 100 1095 131 1067 q 69 1144 69 1124 z "},"a":{"ha":835,"x_min":28,"x_max":794,"o":"m 667 -29 q 632 -28 650 -29 q 598 -20 614 -26 q 571 -2 582 -14 q 556 31 560 10 q 553 43 554 35 q 549 60 551 51 q 542 74 546 68 q 529 81 538 81 q 510 65 524 81 q 473 33 496 50 q 417 0 450 15 q 338 -15 383 -15 q 209 10 267 -15 q 111 81 151 36 q 49 185 71 125 q 28 314 28 246 q 53 474 28 406 q 127 588 79 543 q 242 656 175 633 q 390 678 308 678 q 456 669 432 678 q 494 650 479 661 q 512 642 507 640 q 517 647 517 644 q 508 699 517 681 q 482 727 499 718 q 442 738 465 736 q 390 739 419 739 q 291 728 338 739 q 192 717 244 717 q 155 724 174 717 q 121 743 136 731 q 95 773 106 756 q 85 811 85 790 q 118 900 85 865 q 200 955 151 935 q 303 982 249 975 q 399 989 357 989 q 594 954 518 989 q 715 857 671 919 q 777 707 760 794 q 794 514 794 619 q 794 307 794 410 q 789 100 794 204 q 757 6 786 42 q 667 -29 728 -29 m 508 457 q 476 478 497 468 q 431 488 454 488 q 322 443 357 488 q 286 335 286 399 q 317 254 286 288 q 401 221 349 221 q 460 233 435 221 q 503 266 486 246 q 528 311 519 286 q 536 361 536 336 q 530 422 536 401 q 508 457 524 442 z "},"b":{"ha":769,"x_min":35,"x_max":749,"o":"m 749 401 q 731 249 749 325 q 673 113 713 174 q 572 15 633 53 q 424 -22 511 -22 q 362 -11 385 -22 q 325 14 339 0 q 303 39 311 28 q 288 50 296 50 q 271 42 276 50 q 260 24 265 35 q 238 -3 251 8 q 208 -20 224 -14 q 175 -29 192 -26 q 146 -32 158 -32 q 115 -24 133 -32 q 78 4 96 -17 q 49 63 61 25 q 36 160 36 100 l 36 633 q 35 695 36 658 q 37 773 35 732 q 46 854 39 814 q 68 926 53 894 q 110 978 83 958 q 176 999 136 999 q 244 989 218 999 q 283 960 269 979 q 301 913 296 942 q 306 846 306 885 q 304 806 306 828 q 305 767 303 785 q 315 737 307 749 q 339 725 322 725 q 368 733 353 725 q 400 750 383 740 q 435 767 417 760 q 475 775 454 775 q 593 744 542 775 q 679 660 644 713 q 731 541 714 608 q 749 401 749 474 m 390 526 q 362 525 378 526 q 332 518 346 524 q 308 503 318 513 q 299 478 299 493 q 298 408 299 436 q 297 338 297 379 q 315 269 297 293 q 383 244 333 244 q 427 258 408 244 q 459 294 446 272 q 479 342 472 315 q 486 392 486 368 q 465 490 486 453 q 390 526 443 526 z "},"c":{"ha":788,"x_min":28,"x_max":765,"o":"m 458 229 q 527 240 503 229 q 570 263 551 250 q 610 285 589 275 q 668 296 631 296 q 740 260 714 296 q 765 176 765 224 q 728 86 765 122 q 638 28 690 50 q 527 -4 585 6 q 429 -14 469 -14 q 237 22 314 -14 q 113 122 160 57 q 47 276 67 186 q 28 474 28 365 q 46 669 28 574 q 108 839 64 765 q 225 958 151 913 q 408 1003 299 1003 q 552 978 489 1003 q 659 906 615 953 q 726 793 703 858 q 749 646 749 728 q 743 585 749 615 q 724 531 738 556 q 686 492 710 507 q 626 476 663 476 q 565 492 585 476 q 538 532 546 507 q 528 591 529 557 q 522 663 526 625 q 515 705 519 685 q 501 741 510 725 q 477 767 492 757 q 440 776 463 776 q 376 748 401 776 q 335 678 350 719 q 313 590 319 636 q 306 511 306 544 q 306 411 306 461 q 318 320 306 361 q 363 254 331 279 q 458 229 394 229 z "},"d":{"ha":835,"x_min":28,"x_max":800,"o":"m 667 -29 q 632 -28 650 -29 q 598 -20 614 -26 q 571 -2 582 -14 q 556 31 560 10 q 553 43 554 35 q 549 60 551 51 q 542 74 546 68 q 529 81 538 81 q 510 65 524 81 q 473 33 496 50 q 417 0 450 15 q 338 -15 383 -15 q 209 17 267 -15 q 111 101 151 49 q 49 221 71 154 q 28 356 28 288 q 53 523 28 447 q 122 653 78 599 q 225 736 165 707 q 356 765 285 765 q 410 760 388 765 q 449 748 433 756 q 476 733 465 740 q 494 719 488 725 q 511 711 507 711 l 514 711 q 517 717 517 714 q 515 768 517 736 q 513 836 513 800 q 636 989 513 989 q 721 973 689 989 q 771 927 753 957 q 794 855 789 897 q 800 760 800 813 q 797 646 800 707 q 794 514 794 585 q 794 307 794 410 q 789 100 794 204 q 757 6 786 42 q 667 -29 728 -29 m 504 522 q 472 543 493 533 q 426 553 450 553 q 363 537 390 553 q 318 494 336 521 q 291 436 300 468 q 282 372 282 404 q 290 322 282 349 q 313 271 299 294 q 349 232 328 247 q 397 217 371 217 q 456 236 431 217 q 499 283 482 256 q 524 342 515 311 q 532 399 532 374 q 526 473 532 439 q 504 522 519 507 z "},"e":{"ha":796,"x_min":36,"x_max":764,"o":"m 335 369 q 322 372 326 372 q 313 363 315 372 q 313 331 310 354 q 323 291 315 310 q 347 258 331 272 q 389 236 363 244 q 457 228 415 228 q 540 240 511 228 q 590 267 569 253 q 628 294 610 282 q 682 306 647 306 q 743 278 722 306 q 764 214 764 250 q 740 116 764 158 q 672 45 715 74 q 567 2 628 17 q 433 -12 507 -12 q 253 26 328 -12 q 130 128 178 64 q 59 278 82 193 q 36 460 36 364 q 51 647 36 553 q 105 817 65 742 q 215 941 144 893 q 396 989 285 989 q 531 968 467 989 q 644 907 596 947 q 722 807 693 867 q 751 669 751 747 q 726 529 751 589 q 660 430 701 469 q 562 371 618 390 q 443 351 506 351 q 382 357 407 351 q 335 369 357 363 m 303 651 q 313 605 303 625 q 339 571 324 585 q 372 550 354 557 q 401 543 389 543 q 447 554 426 543 q 481 584 467 565 q 503 626 496 603 q 511 671 511 649 q 483 740 511 710 q 397 771 456 771 q 326 738 350 771 q 303 651 303 704 z "},"f":{"ha":672,"x_min":0,"x_max":653,"o":"m 121 368 q 101 379 121 379 q 57 379 81 379 q 15 410 29 379 q 0 488 0 442 q 21 557 0 531 q 81 583 42 583 q 117 600 108 583 q 121 638 125 617 q 113 669 118 654 q 101 698 107 683 q 92 729 96 713 q 88 767 88 746 q 110 865 88 824 q 171 933 132 906 q 262 974 210 961 q 372 988 314 988 q 466 975 417 988 q 557 938 515 963 q 626 877 599 913 q 653 796 653 842 q 620 714 653 743 q 539 685 588 685 q 488 697 506 685 q 456 724 469 710 q 429 751 443 739 q 392 764 415 764 q 356 751 372 764 q 339 721 340 738 q 338 683 338 704 q 343 642 339 661 q 356 610 347 624 q 382 597 365 597 l 542 597 q 613 570 586 597 q 640 499 640 543 q 582 389 640 417 q 542 381 568 382 q 488 380 515 379 q 434 382 460 381 q 396 383 408 383 q 365 353 365 383 q 366 285 365 315 q 368 228 367 256 q 370 172 369 201 q 371 104 371 142 q 334 24 371 50 q 250 -1 297 -1 q 151 30 182 -1 q 121 128 121 61 l 121 368 z "},"g":{"ha":824,"x_min":21,"x_max":813,"o":"m 307 236 q 210 238 256 231 q 131 265 165 246 q 78 313 97 283 q 58 383 58 343 q 73 430 58 411 q 103 463 88 449 q 127 487 118 476 q 125 507 136 497 q 97 530 113 518 q 67 560 81 542 q 44 610 53 579 q 35 689 35 640 q 63 831 35 772 q 143 928 92 890 q 265 982 194 965 q 418 999 335 999 q 503 994 463 999 q 579 992 543 990 q 642 1008 615 994 q 706 1033 669 1021 q 735 1039 721 1039 q 792 1009 771 1039 q 813 946 813 979 q 802 904 813 922 q 768 879 792 886 q 753 877 764 878 q 732 875 743 876 q 712 871 721 874 q 703 864 703 868 q 706 858 703 861 q 739 803 729 839 q 749 728 749 768 q 718 605 749 656 q 642 522 688 554 q 542 476 596 490 q 442 461 489 461 l 339 461 q 324 460 333 461 q 306 457 315 460 q 289 447 296 454 q 282 429 282 440 q 299 411 282 418 q 347 411 315 404 q 429 425 379 418 q 546 432 479 432 q 664 422 615 432 q 744 387 713 411 q 790 322 775 363 q 804 222 804 282 q 770 90 804 144 q 677 3 736 36 q 538 -45 618 -31 q 365 -60 458 -60 q 230 -48 293 -60 q 120 -11 167 -36 q 47 53 74 14 q 21 146 21 92 q 32 189 21 171 q 60 218 43 207 q 98 235 76 229 q 140 240 119 240 q 213 224 189 240 q 247 188 236 207 q 301 151 258 168 q 426 135 343 135 q 540 154 501 135 q 579 200 579 174 q 569 233 579 221 q 545 252 560 246 q 513 260 531 258 q 478 263 494 263 q 388 251 435 263 q 307 236 342 239 m 513 717 q 501 758 513 740 q 472 786 489 775 q 433 802 454 797 q 393 807 413 807 q 341 797 365 807 q 299 772 317 788 q 272 739 282 757 q 263 703 263 721 q 274 669 263 683 q 302 646 285 656 q 342 632 319 636 q 386 628 364 628 q 476 651 440 628 q 513 717 513 675 z "},"h":{"ha":800,"x_min":38,"x_max":764,"o":"m 311 776 q 310 758 311 771 q 309 731 308 744 q 313 708 310 718 q 326 697 317 697 q 344 705 333 697 q 376 722 356 713 q 428 738 396 731 q 507 746 460 746 q 600 735 561 746 q 667 706 639 725 q 712 660 694 688 q 740 600 729 633 q 755 536 750 569 q 762 463 760 503 q 764 374 764 422 q 764 264 764 325 q 762 183 764 229 q 748 94 760 136 q 709 24 736 53 q 632 -4 682 -4 q 558 25 583 -4 q 521 96 532 54 q 508 183 510 138 q 507 263 507 229 l 507 410 q 487 488 507 463 q 418 514 467 514 q 373 499 396 514 q 332 459 350 483 q 303 404 314 435 q 292 344 292 374 q 294 285 292 315 q 297 226 297 256 q 297 157 297 197 q 288 81 296 117 q 258 19 279 44 q 196 -6 238 -6 q 106 29 138 -6 q 58 114 74 64 q 40 219 43 164 q 38 313 38 274 l 38 624 q 40 755 38 690 q 58 870 43 819 q 104 952 72 921 q 196 983 136 983 q 259 963 236 983 q 293 910 282 942 q 308 843 304 879 q 311 776 311 807 z "},"i":{"ha":336,"x_min":35,"x_max":301,"o":"m 168 778 q 117 786 142 778 q 74 808 93 794 q 45 840 56 822 q 35 878 35 858 q 47 928 35 906 q 77 965 58 950 q 120 989 96 981 q 169 997 144 997 q 219 990 194 997 q 261 969 243 983 q 290 933 279 954 q 301 883 301 911 q 262 804 301 831 q 168 778 222 778 m 38 621 q 49 685 38 660 q 78 726 60 711 q 119 749 96 742 q 168 758 143 757 q 217 756 193 760 q 259 740 240 753 q 290 705 278 728 q 301 646 301 682 l 301 115 q 294 58 301 86 q 270 7 286 29 q 230 -28 254 -15 q 172 -42 206 -42 q 99 -31 126 -42 q 58 0 72 -19 q 39 47 43 19 q 35 108 35 75 q 35 226 35 158 q 36 365 36 293 q 37 503 36 436 q 38 621 38 571 z "},"j":{"ha":357,"x_min":-58,"x_max":321,"o":"m 183 786 q 132 792 157 786 q 88 809 107 797 q 56 839 68 821 q 44 883 44 857 q 56 933 44 913 q 87 969 68 954 q 130 990 106 983 q 181 997 154 997 q 272 968 232 997 q 311 883 311 939 q 274 814 311 842 q 183 786 236 786 m -58 -110 q -49 -83 -58 -94 q -27 -62 -40 -71 q 2 -47 -14 -54 q 32 -35 18 -40 q 57 -1 50 -28 q 64 83 64 25 q 63 158 64 125 q 62 224 63 190 q 60 296 61 257 q 60 389 60 335 q 56 531 60 460 q 51 672 51 601 q 80 740 51 715 q 181 765 108 765 q 287 726 256 765 q 318 586 318 686 q 319 482 318 539 q 321 378 321 425 q 317 132 321 242 q 288 -56 313 22 q 210 -176 263 -133 q 60 -218 157 -218 q -31 -195 -4 -218 q -58 -110 -58 -172 z "},"k":{"ha":725,"x_min":35,"x_max":706,"o":"m 572 0 q 516 19 544 0 q 460 69 488 39 q 407 133 432 99 q 361 197 382 167 q 326 246 340 226 q 306 265 311 265 q 297 258 299 265 q 296 246 296 250 q 296 170 296 213 q 286 90 296 128 q 251 26 276 51 q 175 0 225 0 q 92 38 121 0 q 52 127 64 75 q 39 235 40 179 q 38 329 38 292 q 36 478 38 404 q 35 626 35 551 q 37 763 35 697 q 51 878 39 828 q 89 958 63 928 q 163 988 115 988 q 240 972 211 988 q 283 930 268 956 q 303 873 299 904 q 308 811 308 842 q 306 765 308 793 q 301 705 304 736 q 297 645 299 674 q 294 599 294 617 q 294 587 294 596 q 300 578 294 578 q 322 595 307 578 q 358 638 336 613 q 405 694 379 664 q 458 749 431 724 q 512 792 485 775 q 563 810 539 810 q 656 769 625 810 q 688 665 688 728 q 663 594 688 626 q 605 534 639 561 q 533 483 571 507 q 469 439 496 460 q 452 425 461 432 q 443 411 443 418 q 451 399 443 404 q 469 386 460 393 q 537 334 499 363 q 610 275 575 306 q 670 213 644 244 q 700 154 696 182 q 694 91 706 119 q 662 42 682 63 q 617 11 642 22 q 572 0 593 0 z "},"l":{"ha":449,"x_min":35,"x_max":432,"o":"m 290 368 q 288 328 290 357 q 285 269 285 299 q 293 221 286 240 q 321 210 300 201 q 343 213 332 213 q 372 208 356 213 q 401 191 388 203 q 423 158 414 179 q 432 104 432 138 q 397 6 432 33 q 274 -21 361 -21 q 90 39 144 -21 q 35 218 35 99 l 35 672 q 38 765 35 711 q 55 869 40 819 q 100 953 69 918 q 185 988 131 988 q 245 967 222 988 q 281 915 268 946 q 297 849 293 885 q 301 783 301 813 l 301 674 q 296 521 301 592 q 290 368 290 450 z "},"m":{"ha":1033,"x_min":35,"x_max":993,"o":"m 369 747 q 328 726 344 747 q 301 659 311 706 q 286 539 290 613 q 282 360 282 465 q 285 277 282 318 q 288 194 288 236 q 287 128 288 165 q 276 59 286 92 q 242 4 265 26 q 172 -18 218 -18 q 105 8 131 -18 q 64 78 79 33 q 43 182 49 122 q 36 310 38 242 q 36 451 35 378 q 38 594 38 524 q 38 661 38 622 q 43 743 39 700 q 56 829 47 786 q 83 906 65 872 q 127 962 100 940 q 193 983 154 983 q 240 969 225 983 q 263 939 256 956 q 273 908 269 922 q 285 894 276 894 q 301 910 292 894 q 328 942 311 925 q 373 975 346 960 q 442 990 400 990 q 494 975 471 990 q 535 942 517 960 q 568 910 553 925 q 597 894 583 894 q 626 910 613 894 q 661 942 640 925 q 714 975 682 960 q 794 990 746 990 q 928 933 882 990 q 988 765 975 875 q 992 694 992 729 q 993 622 993 658 l 993 261 q 993 177 993 225 q 983 86 993 129 q 947 13 972 43 q 869 -17 921 -17 q 798 17 824 -17 q 761 96 772 50 q 748 190 750 142 q 746 271 746 239 l 746 676 q 737 722 746 697 q 708 747 728 747 q 657 699 678 747 q 636 535 636 651 q 635 423 636 476 q 633 311 633 369 q 633 254 633 288 q 631 184 633 221 q 622 112 629 147 q 601 48 615 76 q 565 1 588 19 q 510 -17 543 -17 q 458 3 478 -17 q 425 56 438 24 q 408 129 413 89 q 401 209 403 169 q 401 284 400 249 q 401 340 401 319 q 405 503 401 428 q 408 665 408 578 q 408 686 408 672 q 403 713 407 700 q 392 737 400 726 q 369 747 385 747 z "},"n":{"ha":788,"x_min":38,"x_max":757,"o":"m 411 757 q 324 649 357 757 q 292 343 292 542 q 294 255 292 299 q 297 167 297 211 q 295 113 297 142 q 284 58 293 83 q 256 15 275 32 q 203 -1 236 -1 q 128 20 158 -1 q 81 77 99 42 q 53 157 63 113 q 41 247 44 201 q 38 333 38 292 q 39 404 39 375 l 40 593 q 40 658 40 619 q 43 741 40 697 q 53 828 46 785 q 76 906 60 871 q 118 962 92 940 q 185 983 144 983 q 243 967 224 983 q 272 931 263 951 q 288 895 282 911 q 307 879 294 879 q 325 897 317 879 q 350 935 333 914 q 397 973 367 956 q 476 990 426 990 q 641 944 581 990 q 725 799 701 899 q 738 727 732 769 q 749 640 744 685 q 755 553 753 596 q 757 478 757 510 q 756 409 757 443 q 754 340 754 375 q 753 248 754 306 q 742 135 753 190 q 706 40 732 81 q 629 0 681 0 q 575 20 597 0 q 538 72 553 40 q 516 144 524 104 q 505 222 508 183 q 501 296 501 261 q 500 353 500 331 q 503 467 500 411 q 506 582 506 524 q 503 648 506 617 q 491 703 500 679 q 463 742 482 728 q 411 757 444 757 z "},"o":{"ha":854,"x_min":32,"x_max":822,"o":"m 822 503 q 807 304 822 399 q 748 139 792 210 q 627 26 704 68 q 425 -15 550 -15 q 217 23 294 -15 q 98 128 139 61 q 44 286 57 194 q 32 485 32 378 q 37 603 32 543 q 56 719 42 663 q 98 825 71 775 q 169 913 125 875 q 279 972 214 950 q 435 993 344 993 q 633 953 557 993 q 751 847 708 914 q 808 690 793 779 q 822 503 822 601 m 425 200 q 494 225 468 200 q 536 292 521 250 q 557 392 551 335 q 563 515 563 450 q 558 628 563 579 q 541 710 554 676 q 503 760 528 743 q 440 776 479 776 q 365 757 394 776 q 321 700 336 738 q 300 609 306 663 q 294 489 294 556 q 299 377 294 429 q 317 285 303 325 q 356 223 331 246 q 425 200 382 200 z "},"p":{"ha":724,"x_min":33,"x_max":700,"o":"m 700 676 q 685 568 700 622 q 641 466 669 514 q 572 381 613 418 q 478 324 531 344 q 412 308 446 313 q 350 304 378 304 q 318 291 331 304 q 306 254 306 278 q 307 180 306 224 q 301 96 308 136 q 272 28 294 56 q 203 0 250 0 q 135 22 160 0 q 89 76 111 43 q 64 150 74 100 q 48 265 54 200 q 39 404 42 331 q 35 547 36 478 q 33 676 33 617 q 33 771 33 735 q 35 840 33 800 q 49 917 38 881 q 83 980 60 954 q 146 1006 106 1006 q 206 995 185 1006 q 240 972 228 985 q 259 949 253 960 q 275 939 265 939 q 288 947 278 939 q 315 965 297 956 q 357 983 332 975 q 414 992 382 992 q 527 964 475 992 q 617 892 579 936 q 678 791 656 847 q 700 676 700 735 m 338 492 q 399 510 375 492 q 435 558 422 529 q 453 620 449 586 q 457 683 457 654 q 452 721 457 703 q 438 754 447 739 q 413 778 428 769 q 375 788 397 788 q 342 766 357 788 q 318 715 328 744 q 303 657 308 686 q 299 614 299 628 q 299 583 299 603 q 302 542 299 563 q 313 507 306 522 q 338 492 321 492 z "},"q":{"ha":747,"x_min":18,"x_max":722,"o":"m 18 632 q 40 778 18 714 q 101 887 63 843 q 190 953 139 931 q 301 976 242 976 q 360 968 335 976 q 405 950 386 960 q 435 932 424 940 q 451 924 446 924 q 463 934 458 924 q 476 957 467 944 q 503 980 486 969 q 551 990 521 990 q 625 964 600 990 q 661 898 650 938 q 673 813 672 858 q 674 731 674 768 q 673 661 674 707 q 672 559 672 615 q 669 442 671 503 q 668 325 668 381 q 667 265 668 288 q 678 242 665 242 q 715 213 707 242 q 722 143 722 183 q 710 80 722 101 q 667 58 699 58 q 651 51 654 58 q 646 32 647 43 q 633 -1 644 13 q 603 -25 621 -15 q 565 -39 585 -35 q 528 -43 544 -43 q 460 -26 488 -43 q 433 28 433 -8 q 433 49 433 40 q 415 58 433 58 l 315 58 q 265 83 282 58 q 249 149 249 108 q 262 215 249 189 q 301 242 275 242 l 388 242 q 408 253 403 242 q 413 278 413 264 q 408 293 413 286 q 392 305 404 300 q 358 313 379 310 q 300 317 336 317 q 195 334 246 317 q 105 389 144 351 q 42 486 65 426 q 18 632 18 546 m 347 504 q 393 522 376 504 q 418 560 410 539 q 429 603 426 582 q 432 633 432 625 q 426 673 432 650 q 407 717 419 696 q 376 752 394 738 q 335 767 358 767 q 281 733 300 767 q 261 647 261 700 q 265 600 261 625 q 279 553 269 575 q 306 518 289 532 q 347 504 322 504 z "},"r":{"ha":549,"x_min":35,"x_max":538,"o":"m 175 983 q 234 973 214 983 q 265 950 254 963 q 280 927 275 938 q 290 917 285 917 q 308 926 296 917 q 335 949 319 936 q 371 971 351 961 q 411 981 390 981 q 502 948 467 981 q 538 844 538 915 q 518 737 538 774 q 451 700 499 700 q 410 706 431 700 q 336 679 365 717 q 299 553 307 642 q 293 460 294 513 q 292 346 292 408 q 294 285 292 315 q 297 222 297 254 q 296 152 297 193 q 285 74 294 111 q 252 10 275 36 q 188 -17 229 -17 q 116 10 144 -17 q 71 81 88 36 q 47 187 54 126 q 37 316 39 247 q 35 457 35 385 q 36 599 36 529 q 35 665 36 626 q 37 747 35 704 q 46 831 39 789 q 69 908 53 874 q 110 963 85 942 q 175 983 136 983 z "},"s":{"ha":733,"x_min":31,"x_max":703,"o":"m 561 565 q 489 590 511 565 q 467 651 467 615 q 458 708 467 685 q 438 746 450 731 q 410 768 425 761 q 382 775 394 775 q 322 749 342 775 q 301 678 301 724 q 331 631 301 651 q 406 588 361 610 q 502 543 450 567 q 599 485 554 519 q 673 406 643 451 q 703 296 703 360 q 675 165 703 222 q 600 67 647 107 q 492 7 553 28 q 364 -14 431 -14 q 242 0 301 -14 q 135 44 182 14 q 60 124 89 75 q 31 243 31 174 q 38 299 31 272 q 60 347 46 326 q 95 379 75 367 q 140 392 115 392 q 196 381 172 392 q 235 338 219 369 q 253 296 244 318 q 274 254 261 274 q 306 222 286 235 q 360 208 326 208 q 384 210 371 208 q 408 219 397 213 q 427 235 419 225 q 435 264 435 246 q 406 315 435 293 q 335 359 378 338 q 242 406 292 381 q 150 465 193 431 q 78 548 107 500 q 50 663 50 596 q 69 783 50 724 q 129 888 89 842 q 230 963 169 935 q 374 992 290 992 q 504 969 447 992 q 601 908 561 947 q 661 818 640 869 q 682 708 682 767 q 653 603 682 642 q 561 565 624 565 z "},"t":{"ha":661,"x_min":0,"x_max":642,"o":"m 351 324 q 352 292 351 313 q 357 252 353 272 q 370 217 361 232 q 397 203 379 203 q 419 213 411 203 q 431 241 426 224 q 439 280 436 258 q 443 322 442 301 q 468 369 446 350 q 522 388 490 388 q 607 356 572 388 q 642 274 642 325 q 620 138 642 194 q 561 44 599 81 q 474 -10 524 7 q 365 -28 424 -28 q 168 58 235 -28 q 101 289 101 143 q 103 359 101 329 q 106 417 104 389 q 108 475 107 444 q 110 544 110 506 q 101 570 110 565 q 78 575 92 575 l 57 575 q 16 594 32 575 q 0 664 0 614 q 28 742 0 713 q 97 771 56 771 q 113 771 106 771 q 121 782 119 771 q 124 840 124 810 q 124 897 124 869 q 136 938 124 921 q 167 967 149 956 q 209 983 186 978 q 251 988 232 988 q 334 960 300 988 q 368 879 368 933 q 366 853 368 869 q 365 820 364 836 q 371 793 365 804 q 392 782 376 782 q 419 782 401 782 q 457 783 438 782 q 495 783 476 783 q 524 783 514 783 q 583 758 560 783 q 606 688 606 732 q 600 653 606 672 q 584 618 594 635 q 559 590 574 601 q 525 579 544 579 q 490 579 511 579 q 445 579 468 579 q 403 579 422 579 q 375 578 383 579 q 356 557 358 576 q 348 440 344 499 q 351 324 351 382 z "},"u":{"ha":819,"x_min":36,"x_max":781,"o":"m 668 -19 q 622 -10 642 -19 q 588 10 603 -1 q 562 30 572 21 q 544 39 551 39 q 528 27 535 39 q 504 2 521 15 q 453 -23 488 -11 q 353 -35 418 -35 q 196 2 257 -35 q 99 99 135 39 q 50 238 64 160 q 36 399 36 315 q 37 527 36 478 q 38 606 38 576 q 38 652 38 636 q 39 681 39 668 q 42 772 39 721 q 58 870 46 824 q 96 949 71 917 q 163 981 121 981 q 235 957 208 981 q 276 898 263 933 q 294 822 290 863 q 299 747 299 782 q 296 603 299 675 q 293 458 293 531 q 297 363 293 406 q 310 290 300 321 q 341 244 321 260 q 394 228 361 228 q 445 247 424 228 q 481 298 467 267 q 503 368 494 329 q 517 445 513 407 q 522 517 521 483 q 524 569 524 550 q 519 710 524 640 q 515 850 515 779 q 548 951 515 917 q 633 986 581 986 q 715 962 686 986 q 759 901 744 938 q 777 823 774 864 q 781 749 781 782 l 778 185 q 774 119 778 154 q 757 53 769 83 q 723 1 744 22 q 668 -19 701 -19 z "},"v":{"ha":783,"x_min":17,"x_max":767,"o":"m 122 982 q 177 972 151 982 q 222 938 203 961 q 267 838 247 907 q 303 688 286 768 q 335 529 319 607 q 368 403 350 451 q 378 379 371 393 q 399 365 386 365 q 428 395 413 365 q 458 472 443 425 q 485 573 472 518 q 508 678 499 628 q 524 766 518 728 q 531 815 531 804 q 532 892 531 857 q 543 953 533 928 q 574 994 553 979 q 636 1008 596 1008 q 708 995 682 1008 q 747 957 733 982 q 763 895 760 932 q 767 813 767 858 q 756 700 767 771 q 724 547 744 629 q 676 376 704 464 q 613 214 647 289 q 540 83 579 139 q 460 7 501 26 q 396 -8 429 -8 q 303 28 346 -8 q 224 120 260 64 q 162 246 189 176 q 114 383 135 315 q 79 507 93 450 q 57 596 65 564 q 29 719 42 658 q 17 844 17 781 q 22 897 17 872 q 38 940 26 921 q 70 971 50 960 q 122 982 90 982 z "},"w":{"ha":1117,"x_min":21,"x_max":1096,"o":"m 129 983 q 179 973 156 983 q 222 946 203 963 q 249 894 236 933 q 270 810 261 856 q 286 720 279 764 q 297 656 293 676 q 310 583 304 619 q 322 511 315 547 q 324 500 322 508 q 330 483 326 492 q 340 469 333 475 q 356 463 346 463 q 377 488 364 463 q 404 558 390 513 q 432 665 418 603 q 457 799 446 726 q 470 866 463 835 q 490 922 478 897 q 519 960 501 946 q 561 974 536 974 q 644 924 618 974 q 685 789 669 875 q 705 672 694 728 q 726 572 715 615 q 747 501 736 528 q 768 475 757 475 q 791 504 779 475 q 813 571 803 533 q 832 644 824 608 q 843 692 840 679 q 867 813 856 758 q 894 906 879 868 q 929 966 908 944 q 983 988 950 988 q 1064 959 1032 988 q 1096 878 1096 931 q 1087 771 1096 842 q 1063 613 1078 700 q 1028 430 1049 525 q 984 253 1007 335 q 936 110 961 171 q 888 28 911 49 q 840 1 868 11 q 785 -8 811 -8 q 712 22 744 -8 q 654 96 679 51 q 611 193 629 140 q 580 290 593 246 q 559 365 567 335 q 547 394 551 394 q 537 365 543 394 q 520 290 531 335 q 494 193 510 246 q 455 96 478 140 q 401 22 432 51 q 331 -8 371 -8 q 251 22 288 -8 q 184 105 214 53 q 131 224 154 157 q 89 366 107 292 q 58 517 71 440 q 36 661 44 593 q 24 785 28 729 q 21 874 21 840 q 51 955 21 926 q 129 983 81 983 z "},"x":{"ha":792,"x_min":21,"x_max":771,"o":"m 675 -7 q 608 17 638 -7 q 554 75 578 40 q 512 151 531 110 q 476 226 493 192 q 442 285 458 261 q 406 308 425 308 q 368 285 386 308 q 332 225 350 261 q 294 147 314 189 q 249 69 274 106 q 196 10 225 33 q 129 -14 167 -14 q 54 22 79 -14 q 29 104 29 58 q 58 208 29 154 q 120 310 86 263 q 183 395 154 358 q 211 446 211 432 q 181 490 211 458 q 116 573 151 522 q 51 695 81 624 q 21 858 21 767 q 52 953 21 917 q 135 989 83 989 q 203 972 178 989 q 244 929 229 956 q 265 869 258 903 q 278 801 272 835 q 290 756 281 785 q 313 698 299 726 q 344 649 326 669 q 385 628 363 628 q 421 648 403 628 q 455 695 439 668 q 482 750 471 722 q 497 793 493 778 q 513 856 506 822 q 532 919 519 890 q 567 969 544 949 q 631 989 590 989 q 717 956 685 989 q 750 869 750 924 q 722 732 750 799 q 662 612 694 665 q 601 523 629 558 q 574 476 574 488 q 604 431 574 463 q 672 356 635 400 q 740 253 710 311 q 771 128 771 196 q 764 81 771 104 q 744 38 757 57 q 714 6 732 18 q 675 -7 696 -7 z "},"y":{"ha":786,"x_min":31,"x_max":753,"o":"m 326 217 q 391 228 364 217 q 437 256 418 239 q 465 291 456 272 q 474 324 474 310 q 463 353 474 347 q 443 358 453 358 q 389 352 415 358 q 335 346 363 346 q 219 360 274 346 q 122 403 164 374 q 56 481 81 433 q 32 594 32 528 q 32 623 32 606 q 31 659 32 640 q 31 695 31 678 q 31 722 31 713 q 33 811 31 765 q 49 894 36 857 q 90 956 63 932 q 165 981 117 981 q 233 967 211 981 q 265 932 256 954 q 273 881 274 910 q 272 822 272 853 q 270 758 272 790 q 268 693 268 725 q 272 635 268 667 q 285 576 275 603 q 317 532 296 550 q 374 514 339 514 q 414 521 393 514 q 451 540 435 528 q 478 570 468 553 q 489 610 489 588 q 486 712 489 661 q 483 814 483 763 q 488 874 483 843 q 506 930 493 904 q 542 972 519 956 q 601 988 565 988 q 681 963 651 988 q 726 903 711 939 q 744 823 740 867 q 749 742 749 779 q 751 647 749 693 q 753 551 753 600 q 749 410 753 481 q 721 274 744 340 q 667 164 701 215 q 584 74 633 113 q 469 14 535 36 q 321 -8 404 -8 q 222 4 274 -8 q 128 42 171 17 q 59 106 86 67 q 32 199 32 144 q 40 239 32 218 q 60 277 47 260 q 90 306 72 294 q 126 317 107 317 q 188 301 165 317 q 230 267 211 286 q 270 233 249 249 q 326 217 292 217 z "},"z":{"ha":831,"x_min":21,"x_max":810,"o":"m 744 511 q 722 422 744 456 q 643 389 699 389 q 602 390 624 389 q 551 390 581 390 q 501 386 515 390 q 481 375 488 382 q 456 348 472 367 q 421 308 439 329 q 390 266 403 286 q 376 238 376 246 q 390 217 376 222 q 417 213 404 213 q 460 214 438 213 q 509 217 482 215 q 572 221 536 219 q 653 222 607 222 q 707 219 679 222 q 758 204 735 215 q 795 171 781 193 q 810 111 810 149 q 783 41 810 65 q 717 6 756 17 q 635 -6 678 -4 q 561 -7 592 -7 q 499 -6 539 -7 q 417 -6 460 -6 q 334 -5 374 -6 q 272 -4 294 -4 q 192 0 236 -4 q 110 18 149 4 q 47 60 72 32 q 21 136 21 89 q 33 187 21 158 q 65 244 46 215 q 108 302 85 274 q 150 354 131 331 q 183 394 169 378 q 199 414 197 410 q 190 427 201 424 q 161 431 179 431 q 133 451 146 431 q 119 490 119 471 q 126 523 119 507 q 145 552 133 539 q 173 574 157 565 q 207 582 189 582 q 292 581 265 582 q 335 592 318 581 q 364 614 342 596 q 409 654 386 632 q 450 696 432 676 q 468 721 468 715 q 451 732 468 728 q 407 738 433 736 q 349 740 381 740 q 291 740 318 740 q 244 740 264 740 q 221 739 224 739 q 165 744 194 739 q 112 765 136 750 q 72 806 88 781 q 57 872 57 832 q 83 938 57 917 q 146 969 108 960 q 224 978 183 978 q 296 978 265 978 q 361 978 321 978 q 448 977 401 978 q 545 974 494 976 q 643 967 596 971 q 765 926 722 960 q 807 825 807 892 q 795 786 807 808 q 765 740 783 764 q 726 692 747 717 q 686 647 704 668 q 656 608 668 625 q 644 582 644 592 q 650 575 644 578 q 664 571 656 572 q 680 569 672 569 q 692 568 688 568 q 731 552 717 568 q 744 511 744 536 z "},"{":{"ha":525,"x_min":65,"x_max":521,"o":"m 358 635 q 347 578 358 601 q 322 538 335 554 q 297 510 308 521 q 285 493 285 500 q 295 478 285 488 q 318 454 306 468 q 341 419 331 440 q 351 369 351 399 q 346 322 351 344 q 334 276 340 299 q 322 229 328 253 q 317 182 317 206 q 329 133 317 149 q 360 112 342 118 q 401 104 379 106 q 442 97 424 103 q 474 76 461 92 q 486 25 486 60 q 473 -35 486 -11 q 437 -73 460 -58 q 385 -94 414 -87 q 325 -100 357 -100 q 244 -85 283 -100 q 176 -44 206 -71 q 129 19 147 -18 q 111 99 111 56 q 118 152 111 126 q 133 203 125 178 q 149 254 142 228 q 156 307 156 281 q 142 356 156 335 q 110 399 128 378 q 79 441 93 419 q 65 489 65 463 q 81 535 65 515 q 114 573 96 554 q 147 612 132 592 q 163 657 163 632 q 159 696 163 676 q 150 735 156 715 l 140 772 q 131 811 135 792 q 128 850 128 831 q 191 1035 128 974 q 378 1097 254 1097 q 433 1094 407 1097 q 478 1079 458 1090 q 510 1048 499 1068 q 521 993 521 1028 q 507 931 521 951 q 472 903 493 911 q 427 895 451 896 q 382 890 403 894 q 347 874 361 886 q 333 829 333 861 q 346 732 333 781 q 358 635 358 683 z "},"|":{"ha":447,"x_min":100,"x_max":350,"o":"m 100 960 q 104 1017 100 986 q 122 1076 108 1049 q 160 1121 135 1103 q 226 1139 185 1139 q 292 1121 268 1139 q 330 1069 317 1103 q 347 984 343 1035 q 350 867 350 933 q 344 474 350 669 q 339 82 339 279 q 338 -8 339 35 q 326 -81 336 -50 q 296 -131 317 -112 q 235 -149 275 -149 q 168 -133 193 -149 q 129 -85 143 -117 q 110 -8 115 -54 q 106 101 106 39 q 104 294 106 199 q 103 488 103 390 l 103 574 q 101 767 103 671 q 100 960 100 863 z "},"}":{"ha":524,"x_min":31,"x_max":486,"o":"m 193 363 q 205 419 193 396 q 230 460 217 443 q 255 488 243 476 q 267 504 267 499 q 256 520 267 511 q 233 543 246 529 q 210 578 221 557 q 200 628 200 599 q 206 676 200 653 q 217 722 211 699 q 229 768 224 744 q 235 815 235 792 q 222 865 235 850 q 191 885 210 879 q 150 893 172 892 q 109 900 128 894 q 78 922 90 906 q 65 972 65 938 q 78 1032 65 1008 q 115 1070 92 1056 q 167 1091 138 1085 q 226 1097 196 1097 q 307 1083 268 1097 q 375 1042 346 1068 q 422 978 404 1015 q 440 899 440 942 q 436 856 440 876 q 425 815 432 835 l 411 774 q 400 733 404 754 q 396 690 396 713 q 410 642 396 664 q 441 599 424 619 q 472 556 458 578 q 486 508 486 535 q 471 463 486 482 q 438 424 456 443 q 404 385 419 406 q 389 340 389 365 q 392 301 389 321 q 401 263 396 282 l 411 225 q 420 186 417 206 q 424 147 424 167 q 360 -38 424 24 q 174 -100 297 -100 q 119 -97 144 -100 q 73 -82 93 -93 q 42 -51 53 -71 q 31 4 31 -31 q 44 66 31 46 q 79 94 58 86 q 124 102 100 101 q 169 107 149 103 q 204 124 190 111 q 218 168 218 138 q 206 265 218 217 q 193 363 193 314 z "},"~":{"ha":751,"x_min":107,"x_max":649,"o":"m 290 403 q 275 393 281 403 q 263 372 269 383 q 243 350 256 360 q 206 340 231 340 q 137 368 167 340 q 107 436 107 396 q 119 496 107 468 q 152 544 132 524 q 199 578 172 565 q 254 590 225 590 q 309 579 286 590 q 353 554 332 568 q 396 529 374 540 q 447 518 418 518 q 474 528 465 518 q 490 551 482 539 q 510 573 497 563 q 549 583 522 583 q 619 557 589 583 q 649 490 649 531 q 633 428 649 457 q 593 378 618 399 q 538 344 568 357 q 479 332 508 332 q 424 343 449 332 q 378 367 400 354 q 335 392 356 381 q 290 403 314 403 z "},"":{"ha":451,"x_min":67,"x_max":351,"o":"m 333 732 q 322 680 333 701 q 294 645 311 658 q 253 626 276 632 q 206 621 231 621 q 165 629 185 621 q 128 653 144 638 q 101 688 111 668 q 90 732 90 708 q 101 781 90 760 q 128 815 111 801 q 167 837 146 829 q 211 844 189 844 q 295 816 257 844 q 333 732 333 788 m 92 401 q 128 558 92 511 q 218 604 165 604 q 282 587 260 604 q 315 542 304 569 q 328 481 326 515 q 331 410 331 446 q 341 205 331 308 q 351 0 351 101 q 316 -117 351 -71 q 197 -162 281 -162 q 93 -120 119 -162 q 67 -3 67 -78 q 71 107 67 51 q 79 215 75 163 q 88 315 83 267 q 92 401 92 363 z "},"":{"ha":849,"x_min":28,"x_max":821,"o":"m 454 -149 q 383 -120 403 -149 q 353 -56 363 -92 q 335 13 343 -19 q 299 56 326 46 q 262 68 281 63 q 226 82 243 74 q 128 155 167 111 q 68 252 90 199 q 37 365 46 306 q 28 486 28 425 q 37 609 28 549 q 69 724 46 669 q 130 823 92 778 q 225 901 168 868 q 248 912 232 906 q 281 925 264 918 q 312 938 299 932 q 325 947 325 944 q 327 1007 325 974 q 340 1069 329 1040 q 371 1119 350 1099 q 428 1139 392 1139 q 485 1126 464 1139 q 519 1092 507 1113 q 537 1047 531 1071 q 549 1000 543 1022 q 565 960 556 978 q 592 938 574 943 q 690 896 647 919 q 763 838 733 872 q 806 756 792 803 q 821 646 821 710 q 816 589 821 617 q 799 540 811 561 q 767 506 788 518 q 718 493 747 493 q 667 509 689 493 q 632 549 646 525 q 611 601 618 572 q 603 657 604 631 q 588 705 601 693 q 567 717 574 717 q 556 708 563 717 q 547 688 549 700 q 548 473 542 583 q 554 250 554 363 q 556 244 554 246 q 581 261 568 244 q 610 298 594 278 q 647 335 626 318 q 693 353 667 353 q 774 333 739 353 q 810 268 810 314 q 787 188 810 225 q 731 122 764 151 q 658 74 697 93 q 585 46 618 54 q 558 25 567 42 q 547 -13 550 8 q 540 -58 543 -35 q 529 -102 538 -82 q 503 -135 521 -122 q 454 -149 486 -149 m 331 636 q 324 695 331 678 q 306 713 317 713 q 277 690 292 713 q 251 633 263 668 q 233 556 240 599 q 226 475 226 514 q 235 398 226 436 q 256 329 243 360 q 285 280 269 299 q 314 261 300 261 q 328 280 326 261 q 331 343 331 299 l 331 636 z "},"":{"ha":710,"x_min":4,"x_max":678,"o":"m 403 338 q 385 338 397 338 q 363 338 374 339 q 342 334 351 338 q 332 322 333 331 q 326 280 329 299 q 322 238 322 261 q 333 214 322 222 q 358 206 344 206 q 394 208 372 206 q 444 213 417 210 q 501 219 471 217 q 560 221 531 221 q 615 210 592 221 q 651 181 638 199 q 672 141 665 163 q 678 99 678 119 q 660 26 678 51 q 599 0 642 0 l 107 0 q 56 25 72 0 q 39 82 39 50 q 44 108 39 97 q 54 135 49 119 q 63 169 57 143 q 73 222 68 194 q 81 273 78 250 q 85 299 85 296 q 80 330 85 318 q 54 342 75 342 q 20 362 36 342 q 4 418 4 382 q 19 481 4 454 q 53 508 35 508 q 100 547 100 508 q 97 560 100 554 q 80 642 86 606 q 74 726 74 679 q 146 922 74 856 q 349 988 218 988 q 476 976 419 988 q 573 934 533 964 q 634 854 613 904 q 656 728 656 804 q 619 642 656 675 q 536 610 583 610 q 506 617 521 610 q 478 639 490 625 q 457 670 465 653 q 449 706 449 688 q 438 769 449 743 q 393 796 426 796 q 360 789 372 796 q 343 771 349 782 q 336 745 338 760 q 335 714 335 731 q 335 672 335 699 q 337 619 335 646 q 343 571 339 593 q 356 540 347 549 q 421 511 385 511 q 475 509 451 511 q 515 499 499 507 q 539 476 531 492 q 547 432 547 460 q 513 357 547 376 q 403 338 479 338 z "},"":{"ha":856,"x_min":42,"x_max":803,"o":"m 707 -6 q 656 12 679 -6 q 613 51 632 29 q 578 90 593 72 q 550 107 563 107 q 483 96 518 107 q 411 85 447 85 q 342 94 375 85 q 272 111 308 104 q 247 101 263 114 q 213 54 231 88 q 172 10 199 26 q 117 -6 144 -6 q 70 15 89 -6 q 51 71 51 36 q 62 119 51 97 q 84 158 72 140 q 106 192 96 176 q 117 221 117 207 q 105 252 117 232 q 79 304 93 272 q 53 380 65 336 q 42 479 42 424 q 54 589 42 543 q 81 667 67 635 q 108 720 96 699 q 121 756 121 742 q 110 787 121 771 q 86 822 99 803 q 63 865 74 842 q 51 915 51 888 q 70 969 51 949 q 117 990 89 990 q 160 977 139 990 q 203 944 182 964 q 242 901 224 924 q 274 861 260 879 q 276 860 276 860 q 354 877 318 868 q 432 886 390 886 q 549 868 490 886 q 556 871 553 868 q 587 908 569 888 q 624 947 604 928 q 665 978 644 965 q 707 990 686 990 q 755 969 736 990 q 774 915 774 949 q 764 869 774 890 q 742 829 754 847 q 721 797 731 811 q 711 771 711 782 q 726 740 711 761 q 757 686 740 719 q 788 606 774 653 q 803 499 803 560 q 789 389 803 439 q 758 302 775 339 q 728 242 742 265 q 714 211 714 219 q 723 186 714 200 q 744 156 732 172 q 765 117 756 139 q 774 71 774 96 q 756 15 774 36 q 707 -6 738 -6 m 257 469 q 301 339 257 382 q 417 296 346 296 q 536 351 493 296 q 579 499 579 407 q 535 633 579 583 q 422 683 492 683 q 351 667 382 683 q 299 621 319 650 q 267 553 278 592 q 257 469 257 514 z "},"":{"ha":732,"x_min":7,"x_max":722,"o":"m 74 449 q 80 481 74 465 q 97 510 86 497 q 121 532 107 524 q 151 540 135 540 q 162 542 156 540 q 165 547 168 543 q 113 630 140 588 q 61 710 85 672 q 22 782 38 749 q 7 839 7 815 q 47 948 7 914 q 139 982 86 982 q 192 958 167 982 q 240 897 217 933 q 282 819 263 861 q 318 742 301 778 q 348 681 335 706 q 372 657 361 657 q 394 681 383 657 q 420 742 406 706 q 452 822 435 779 q 491 902 469 865 q 540 963 513 939 q 599 988 567 988 q 688 958 653 988 q 722 881 722 928 q 711 827 722 858 q 683 762 700 796 q 645 694 665 728 q 608 630 625 660 q 579 578 590 600 q 568 547 568 556 q 577 532 568 535 q 618 529 586 529 q 638 519 631 529 q 650 493 646 508 q 656 461 654 478 q 657 432 657 444 q 631 385 657 399 q 574 366 606 372 q 517 355 543 360 q 492 335 492 350 l 492 328 q 497 324 492 325 q 506 322 503 322 q 563 322 533 322 q 615 314 592 322 q 654 287 639 306 q 669 231 669 268 q 642 194 669 208 q 581 169 614 179 q 519 154 547 160 q 489 142 490 149 q 476 88 485 114 q 454 43 468 63 q 419 12 440 24 q 365 0 397 0 q 313 16 335 0 q 278 54 292 32 q 257 100 264 76 q 247 139 250 124 q 228 150 246 147 q 190 153 211 153 q 149 154 168 154 q 125 158 129 154 q 97 199 107 174 q 88 249 88 225 q 99 290 88 275 q 130 311 111 304 q 171 319 149 318 q 213 321 193 321 q 228 321 221 321 q 242 325 235 321 q 246 334 246 328 q 240 342 246 340 q 183 349 213 346 q 130 363 154 353 q 90 392 106 372 q 74 449 74 411 z "},"":{"ha":451,"x_min":107,"x_max":342,"o":"m 107 960 q 110 1017 107 986 q 124 1076 113 1049 q 159 1121 136 1103 q 222 1139 182 1139 q 289 1123 265 1139 q 324 1074 313 1107 q 339 992 336 1042 q 342 872 342 942 l 342 760 q 341 684 342 722 q 329 614 340 646 q 292 562 318 582 q 215 542 267 542 q 138 573 167 542 q 110 651 110 604 q 108 728 110 690 q 107 806 107 767 l 107 960 m 235 -149 q 159 -128 185 -149 q 122 -75 133 -107 q 110 -4 111 -43 q 110 72 110 35 l 111 207 q 111 278 111 240 q 119 347 111 315 q 151 399 128 378 q 222 419 175 419 q 287 410 264 419 q 321 381 310 400 q 334 334 332 361 q 336 271 336 307 q 335 162 336 217 q 332 53 335 107 q 330 -9 331 26 q 321 -75 329 -44 q 293 -127 313 -106 q 235 -149 274 -149 z "},"":{"ha":797,"x_min":38,"x_max":742,"o":"m 503 647 q 587 619 544 635 q 663 575 629 603 q 719 503 697 547 q 742 388 742 458 q 733 346 742 363 q 715 317 725 329 q 696 294 704 304 q 688 274 688 285 q 695 254 688 261 q 713 235 703 247 q 730 202 722 224 q 738 138 738 181 q 701 44 738 83 q 612 -19 665 6 q 497 -56 558 -44 q 382 -67 435 -67 q 266 -55 326 -67 q 155 -15 206 -43 q 71 58 104 13 q 38 171 38 104 q 44 220 38 196 q 63 263 50 244 q 95 294 75 282 q 144 306 115 306 q 192 288 175 306 q 218 249 208 269 q 240 208 226 229 q 273 171 253 188 q 324 143 293 154 q 397 132 354 132 q 420 133 406 132 q 448 137 435 133 q 471 147 461 140 q 481 167 481 154 q 448 206 481 190 q 367 238 415 222 q 260 272 318 253 q 154 321 203 290 q 73 398 106 351 q 40 514 40 444 q 47 549 40 533 q 62 580 54 565 q 75 608 69 594 q 78 635 81 621 q 56 688 72 658 q 40 751 40 717 q 72 863 40 815 q 151 942 103 911 q 259 990 200 974 q 374 1006 318 1006 q 476 992 419 1006 q 581 951 532 979 q 663 883 631 924 q 696 785 696 842 q 669 706 696 726 q 592 682 642 685 q 553 684 569 681 q 525 694 538 688 q 502 713 513 701 q 481 739 492 724 q 462 764 471 751 q 442 786 453 776 q 419 801 432 796 q 388 807 406 807 q 338 794 363 807 q 314 753 314 782 q 365 700 314 726 q 503 647 417 674 m 524 414 q 492 444 524 428 q 420 477 460 461 q 344 504 381 493 q 297 517 307 515 q 284 511 286 519 q 282 499 282 503 q 310 455 282 476 q 376 417 339 433 q 447 390 413 400 q 492 379 481 379 q 515 387 507 379 q 524 414 524 394 z "},"":{"ha":588,"x_min":46,"x_max":543,"o":"m 46 1108 q 56 1152 46 1133 q 82 1183 65 1171 q 120 1203 99 1196 q 164 1210 142 1210 q 207 1203 186 1210 q 244 1183 228 1196 q 271 1151 261 1169 q 281 1108 281 1132 q 244 1034 281 1061 q 164 1007 208 1007 q 82 1033 118 1007 q 46 1108 46 1060 m 308 1108 q 318 1152 308 1133 q 344 1183 328 1171 q 383 1203 361 1196 q 426 1210 404 1210 q 469 1203 449 1210 q 507 1183 490 1196 q 533 1151 524 1169 q 543 1108 543 1132 q 507 1034 543 1061 q 426 1007 471 1007 q 344 1033 381 1007 q 308 1108 308 1060 z "},"":{"ha":999,"x_min":28,"x_max":971,"o":"m 28 475 q 60 687 28 592 q 156 849 93 782 q 310 951 218 915 q 522 988 403 988 q 722 953 638 988 q 863 856 807 919 q 944 703 918 792 q 971 503 971 614 q 941 292 971 388 q 852 128 911 196 q 703 22 793 60 q 492 -15 613 -15 q 290 19 376 -15 q 144 118 203 54 q 57 272 86 182 q 28 475 28 363 m 838 501 q 819 644 838 578 q 763 759 801 710 q 665 836 725 808 q 522 864 606 864 q 364 835 431 864 q 253 756 297 807 q 187 633 208 704 q 165 475 165 561 q 186 328 165 396 q 249 211 207 261 q 354 133 292 161 q 500 104 417 104 q 653 136 589 104 q 758 222 717 168 q 818 349 799 276 q 838 501 838 421 m 503 335 q 541 351 531 335 q 561 385 551 367 q 586 419 571 404 q 636 435 601 435 q 694 409 674 435 q 714 347 714 383 q 695 273 714 306 q 646 217 676 240 q 578 183 615 194 q 503 171 540 171 q 391 197 439 171 q 312 264 343 222 q 265 360 281 306 q 250 474 250 415 q 266 594 250 536 q 315 698 282 653 q 398 771 347 743 q 518 799 449 799 q 594 788 557 799 q 659 755 631 776 q 705 701 688 733 q 722 626 722 668 q 699 553 722 586 q 632 519 676 519 q 599 531 613 519 q 576 558 585 542 q 559 590 567 574 q 544 614 551 606 q 531 627 536 625 q 521 629 525 629 q 480 607 494 629 q 459 554 465 585 q 451 492 453 524 q 450 442 450 460 q 451 410 450 428 q 458 375 453 392 q 474 347 463 358 q 503 335 485 335 z "},"":{"ha":589,"x_min":42,"x_max":546,"o":"m 453 488 q 410 493 432 488 q 383 525 389 499 q 380 543 382 531 q 368 556 378 556 q 356 547 364 556 q 333 526 347 538 q 298 505 318 514 q 249 496 278 496 q 167 512 204 496 q 101 556 129 528 q 58 620 74 583 q 42 700 42 657 q 60 800 42 757 q 110 871 78 843 q 187 913 143 899 q 281 926 231 926 q 322 922 307 926 q 346 910 336 917 q 356 903 353 903 q 360 907 360 904 q 338 941 360 933 q 281 949 317 949 q 221 945 247 949 q 161 942 194 942 q 115 963 139 942 q 92 1010 92 983 q 113 1065 92 1043 q 163 1099 133 1086 q 227 1115 193 1111 q 286 1119 261 1119 q 410 1098 360 1119 q 490 1038 460 1076 q 533 944 521 999 q 546 825 546 890 q 546 696 546 760 q 543 568 546 632 q 515 510 540 532 q 453 488 490 488 m 372 729 q 358 786 372 775 q 301 797 343 797 q 237 776 257 797 q 217 714 217 754 q 235 671 217 685 q 288 657 254 657 q 351 678 329 657 q 372 729 372 699 m 60 385 q 86 451 60 433 q 158 468 113 468 l 465 465 q 519 447 494 465 q 543 390 543 428 q 530 340 543 356 q 488 318 517 324 q 415 314 460 313 q 304 315 369 315 q 243 314 274 315 q 182 313 213 313 q 143 315 164 313 q 103 326 122 318 q 72 347 85 333 q 60 385 60 361 z "},"":{"ha":758,"x_min":42,"x_max":701,"o":"m 294 185 q 260 197 275 185 q 232 224 246 208 l 57 419 q 42 464 42 438 q 53 526 42 504 q 88 571 64 549 l 251 726 q 281 752 267 742 q 315 763 296 763 q 342 756 328 763 q 367 738 356 749 q 387 710 379 726 q 394 675 394 694 q 374 614 394 643 q 329 559 354 585 q 284 513 304 533 q 264 479 264 493 q 282 444 264 464 q 322 401 300 425 q 363 349 344 378 q 381 288 381 321 q 373 247 381 265 q 353 214 365 228 q 325 192 340 200 q 294 185 310 185 m 601 185 q 567 197 582 185 q 539 224 553 208 l 364 419 q 349 464 349 438 q 360 526 349 504 q 394 571 371 549 l 558 726 q 588 752 574 742 q 622 763 603 763 q 649 756 635 763 q 674 738 663 749 q 694 710 686 726 q 701 675 701 694 q 681 614 701 643 q 636 559 661 585 q 591 513 611 533 q 571 479 571 493 q 589 444 571 464 q 629 401 607 425 q 669 349 651 378 q 688 288 688 321 q 680 247 688 265 q 660 214 672 228 q 632 192 647 200 q 601 185 617 185 z "},"":{"ha":738,"x_min":42,"x_max":704,"o":"m 618 344 q 576 353 592 344 q 551 374 560 361 q 538 401 542 386 q 535 426 535 415 q 531 445 535 438 q 517 458 528 453 q 488 465 507 463 q 435 468 468 468 q 394 468 425 468 q 326 469 363 468 q 252 469 289 469 q 192 469 215 469 q 132 471 160 469 q 84 480 104 472 q 53 503 64 488 q 42 544 42 518 q 45 580 42 560 q 57 619 49 600 q 78 651 65 638 q 108 664 90 664 l 590 667 q 704 472 704 667 q 701 424 704 447 q 690 383 699 401 q 664 355 681 365 q 618 344 647 344 z "},"":{"ha":999,"x_min":28,"x_max":971,"o":"m 28 475 q 60 687 28 592 q 156 849 93 782 q 310 951 218 915 q 522 988 403 988 q 722 953 638 988 q 863 856 807 919 q 944 703 918 793 q 971 503 971 614 q 941 292 971 388 q 852 128 911 196 q 703 22 793 60 q 492 -15 613 -15 q 290 19 376 -15 q 144 117 203 54 q 57 272 86 181 q 28 475 28 363 m 838 501 q 819 645 838 579 q 763 760 801 711 q 665 836 725 808 q 522 864 606 864 q 364 835 431 864 q 253 756 297 807 q 187 633 208 704 q 165 475 165 561 q 186 328 165 396 q 249 211 207 261 q 354 133 292 161 q 500 104 417 104 q 653 136 589 104 q 758 222 717 168 q 818 349 799 276 q 838 501 838 421 m 479 339 q 475 290 479 314 q 460 246 471 265 q 429 215 449 226 q 381 203 410 203 q 326 224 346 203 q 297 274 307 244 q 285 336 288 303 q 283 394 283 369 q 285 494 283 444 q 286 594 286 544 q 291 685 286 650 q 313 739 296 719 q 365 765 331 758 q 458 772 399 772 q 549 765 500 772 q 639 740 597 758 q 708 687 681 721 q 736 600 736 653 q 704 492 736 542 q 624 415 672 443 q 658 394 638 407 q 699 364 679 381 q 733 328 719 347 q 747 292 747 310 q 719 233 747 256 q 657 210 692 210 q 608 224 632 210 q 560 258 583 238 q 517 300 538 278 q 479 339 496 322 m 476 518 q 486 514 476 507 q 508 535 496 521 q 531 568 521 550 q 542 597 542 586 q 533 618 542 608 q 513 633 524 628 q 492 636 501 638 q 482 625 482 635 l 476 518 z "},"":{"ha":542,"x_min":31,"x_max":511,"o":"m 135 1038 q 99 1041 117 1038 q 65 1053 81 1044 q 40 1078 50 1063 q 31 1117 31 1093 q 40 1161 31 1144 q 63 1186 49 1178 q 97 1197 78 1194 q 135 1200 115 1200 l 390 1200 q 431 1199 410 1200 q 469 1190 451 1197 q 499 1169 488 1183 q 511 1126 511 1154 q 495 1078 511 1096 q 456 1051 479 1060 q 407 1040 433 1042 q 360 1038 381 1038 l 135 1038 z "},"":{"ha":497,"x_min":49,"x_max":449,"o":"m 49 821 q 65 900 49 865 q 108 959 81 935 q 174 997 136 983 q 253 1010 211 1010 q 328 997 293 1010 q 391 962 364 985 q 433 906 418 939 q 449 831 449 872 q 433 752 449 788 q 389 692 417 717 q 324 653 361 667 q 243 639 286 639 q 167 651 203 639 q 106 688 132 664 q 64 745 79 711 q 49 821 49 779 m 208 831 q 217 797 208 807 q 250 786 226 786 q 281 797 271 786 q 290 828 290 808 q 283 860 290 850 q 251 869 275 869 q 220 861 232 869 q 208 831 208 853 z "},"":{"ha":668,"x_min":39,"x_max":628,"o":"m 446 786 q 445 747 446 764 q 444 708 444 729 q 453 688 444 694 q 476 678 461 681 q 508 674 490 675 q 544 674 526 674 q 605 652 585 674 q 625 578 625 631 q 614 528 625 547 q 582 499 603 510 q 531 486 561 489 q 465 483 501 483 q 443 468 443 483 q 444 422 443 449 q 436 372 444 396 q 406 333 428 349 q 338 317 383 317 q 289 331 307 317 q 262 365 271 344 q 250 410 253 386 q 247 453 247 433 q 238 483 247 478 q 221 489 229 488 q 165 494 196 493 q 106 501 133 494 q 60 525 79 507 q 42 582 42 543 q 61 644 42 615 q 117 674 81 674 q 163 673 140 674 q 208 672 185 672 q 242 694 238 672 q 247 760 247 717 q 269 822 247 793 q 353 850 290 850 q 384 847 368 850 q 414 835 400 843 q 437 815 428 828 q 446 786 446 803 m 39 207 q 58 269 39 240 q 114 299 78 299 l 533 294 q 603 270 578 294 q 628 197 628 246 q 613 151 628 168 q 572 126 599 135 q 508 115 546 118 q 425 113 471 113 l 353 113 q 295 113 336 113 q 209 116 254 114 q 126 122 164 118 q 76 132 88 125 q 47 164 56 144 q 39 207 39 183 z "},"":{"ha":586,"x_min":63,"x_max":518,"o":"m 513 968 q 483 870 513 911 q 411 794 454 829 q 381 773 399 785 q 347 749 364 761 q 319 728 331 738 q 308 711 308 718 q 315 709 308 710 q 328 708 321 708 q 343 708 336 708 q 351 708 350 708 q 401 707 372 708 q 456 697 429 706 q 500 672 482 689 q 518 626 518 656 q 503 583 518 599 q 465 558 488 567 q 418 548 443 550 q 372 546 393 546 l 257 546 q 192 548 226 546 q 129 560 158 550 q 81 594 100 571 q 63 657 63 617 q 81 710 63 683 q 128 763 100 736 q 190 815 157 789 q 251 868 222 842 q 298 921 279 894 q 317 972 317 947 q 308 995 317 986 q 283 1004 300 1004 q 242 988 260 1004 q 219 944 225 972 q 194 903 215 919 q 139 888 172 888 q 81 918 96 888 q 65 985 65 949 q 82 1069 65 1033 q 128 1127 99 1104 q 199 1160 158 1150 q 289 1171 240 1171 q 455 1124 397 1171 q 513 968 513 1076 z "},"":{"ha":575,"x_min":65,"x_max":506,"o":"m 139 781 q 185 767 169 781 q 206 732 200 753 q 224 699 210 711 q 268 688 239 688 q 307 699 296 688 q 318 733 318 710 q 301 776 318 765 q 258 788 283 788 q 211 800 231 788 q 192 847 192 813 q 200 883 192 871 q 219 902 208 896 q 240 910 231 908 q 254 911 250 911 q 313 968 313 911 q 304 999 313 986 q 274 1013 296 1013 q 222 967 235 1013 q 197 924 215 942 q 144 907 179 907 q 92 930 106 907 q 78 985 78 953 q 96 1060 78 1028 q 142 1116 114 1093 q 208 1151 171 1139 q 282 1163 244 1163 q 385 1155 343 1163 q 453 1126 426 1147 q 491 1069 479 1106 q 503 978 503 1033 q 490 922 503 943 q 462 888 478 900 q 433 868 446 875 q 421 856 421 861 q 434 842 421 850 q 463 822 447 835 q 492 785 479 808 q 506 726 506 763 q 484 646 506 682 q 428 585 463 610 q 352 546 393 560 q 271 532 311 532 q 200 542 236 532 q 134 574 164 553 q 85 626 104 594 q 65 697 65 657 q 82 756 65 731 q 139 781 99 781 z "},"":{"ha":463,"x_min":68,"x_max":379,"o":"m 285 1060 q 251 1039 271 1051 q 208 1016 231 1026 q 165 998 186 1006 q 126 990 143 990 q 84 1009 100 990 q 68 1053 68 1028 q 92 1108 68 1078 q 148 1167 115 1139 q 216 1216 181 1196 q 274 1240 251 1236 q 314 1238 294 1243 q 348 1222 333 1233 q 371 1192 363 1210 q 376 1151 379 1174 q 344 1099 374 1119 q 285 1060 315 1079 z "},"":{"ha":922,"x_min":46,"x_max":865,"o":"m 381 -11 q 382 69 381 29 q 383 149 383 108 q 374 179 383 171 q 344 194 364 188 q 203 253 261 222 q 111 326 146 283 q 61 428 76 369 q 46 571 46 486 q 83 757 46 679 q 181 885 119 835 q 325 958 243 935 q 499 982 407 982 q 554 983 526 982 q 610 985 582 985 q 678 983 644 985 q 747 982 713 982 q 815 962 792 982 q 850 902 839 942 q 863 805 861 863 q 865 674 865 747 l 865 522 q 865 287 865 404 q 864 51 864 169 q 857 -6 864 22 q 834 -57 850 -35 q 794 -93 818 -79 q 738 -107 771 -107 q 697 -87 713 -107 q 670 -35 681 -67 q 655 35 660 -3 q 649 110 650 74 q 647 177 647 147 q 647 221 647 207 q 650 409 647 315 q 653 597 653 503 q 653 631 653 604 q 651 688 653 658 q 644 742 649 718 q 628 765 639 765 q 617 747 622 765 q 610 705 613 728 q 607 660 608 682 q 606 633 606 639 q 600 427 600 529 q 600 221 600 325 q 599 175 600 206 q 596 108 599 144 q 587 35 593 72 q 569 -34 581 -3 q 539 -85 557 -65 q 494 -104 521 -104 q 413 -86 444 -104 q 381 -11 381 -68 z "},"":{"ha":471,"x_min":76,"x_max":394,"o":"m 76 501 q 90 567 76 539 q 126 615 104 596 q 178 644 149 635 q 236 654 207 654 q 294 644 265 654 q 344 615 322 635 q 381 567 367 596 q 394 501 394 539 q 381 435 394 464 q 344 386 367 406 q 294 357 322 367 q 236 347 265 347 q 177 357 206 347 q 126 386 149 367 q 90 434 104 406 q 76 501 76 463 z "},"":{"ha":453,"x_min":104,"x_max":385,"o":"m 104 -208 q 115 -170 104 -182 q 141 -153 125 -158 q 177 -147 157 -147 q 217 -142 197 -146 q 221 -137 218 -142 q 224 -131 224 -132 q 222 -124 224 -129 q 219 -118 221 -119 q 188 -98 206 -104 q 156 -86 171 -92 q 131 -73 142 -81 q 121 -49 121 -65 q 129 0 121 -24 q 152 43 138 24 q 188 74 167 63 q 236 86 210 86 q 275 72 260 86 q 290 33 290 57 q 287 17 290 25 q 286 0 283 8 q 306 -23 290 -15 q 340 -42 322 -31 q 371 -73 357 -53 q 385 -131 385 -93 q 370 -195 385 -165 q 331 -247 356 -225 q 274 -282 306 -269 q 210 -294 243 -294 q 173 -289 192 -294 q 139 -272 154 -283 q 114 -245 124 -261 q 104 -208 104 -229 z "},"":{"ha":479,"x_min":74,"x_max":414,"o":"m 85 615 q 95 665 85 644 q 138 686 106 686 q 156 700 151 686 q 161 729 160 714 l 168 936 q 168 949 168 942 q 164 957 168 957 q 151 944 160 957 q 138 931 147 938 q 122 925 128 925 q 88 947 103 925 q 74 997 74 968 q 90 1054 74 1025 q 130 1107 106 1083 q 183 1146 154 1131 q 239 1161 213 1161 q 311 1147 286 1161 q 347 1099 336 1132 q 358 1010 357 1065 q 360 874 360 956 l 360 807 q 359 764 360 785 q 357 721 358 743 q 360 691 356 706 q 375 676 364 676 q 405 659 396 676 q 414 619 414 642 q 394 575 414 590 q 348 552 375 560 q 291 543 321 544 q 242 542 261 542 l 207 542 q 168 544 189 542 q 128 556 147 547 q 97 578 110 564 q 85 615 85 593 z "},"":{"ha":583,"x_min":49,"x_max":535,"o":"m 535 815 q 525 693 535 751 q 489 591 515 635 q 415 522 463 547 q 290 496 367 496 q 162 519 210 496 q 89 585 114 543 q 56 683 64 626 q 49 804 49 739 q 56 913 49 857 q 90 1013 64 968 q 164 1088 115 1058 q 296 1117 213 1117 q 417 1092 371 1117 q 490 1026 464 1068 q 526 931 517 985 q 535 815 535 876 m 290 656 q 326 669 313 656 q 349 704 340 682 q 360 756 357 726 q 363 819 363 786 q 351 921 363 886 q 299 956 339 956 q 238 915 251 956 q 224 806 224 875 q 226 748 224 775 q 235 700 228 721 q 255 667 242 679 q 290 656 268 656 m 51 385 q 78 451 51 433 q 150 468 104 468 l 457 465 q 510 447 486 465 q 535 390 535 428 q 522 340 535 356 q 480 318 508 324 q 406 314 451 313 q 296 315 361 315 q 235 314 265 315 q 174 313 204 313 q 135 315 156 313 q 95 326 114 318 q 64 347 76 333 q 51 385 51 361 z "},"":{"ha":764,"x_min":42,"x_max":701,"o":"m 449 763 q 483 751 468 763 q 511 724 497 739 l 686 528 q 701 483 701 510 q 690 421 701 443 q 656 376 679 399 l 492 221 q 462 195 476 206 q 428 185 447 185 q 401 192 415 185 q 376 210 388 199 q 356 238 364 221 q 349 272 349 254 q 369 333 349 304 q 414 388 389 363 q 459 434 439 414 q 479 468 479 454 q 461 503 479 483 q 421 546 443 522 q 381 598 399 569 q 363 660 363 626 q 371 701 363 682 q 392 733 379 719 q 419 755 404 747 q 449 763 435 763 m 142 763 q 176 751 161 763 q 204 724 190 739 l 379 528 q 394 483 394 510 q 383 421 394 443 q 349 376 372 399 l 185 221 q 155 195 169 206 q 121 185 140 185 q 94 192 108 185 q 69 210 81 199 q 49 238 57 221 q 42 272 42 254 q 62 333 42 304 q 107 388 82 363 q 152 434 132 414 q 172 468 172 454 q 154 503 172 483 q 114 546 136 522 q 74 598 92 569 q 56 660 56 626 q 64 701 56 682 q 85 733 72 719 q 113 755 97 747 q 142 763 128 763 z "},"":{"ha":1222,"x_min":78,"x_max":1179,"o":"m 424 -28 q 356 1 379 -28 q 332 72 332 29 q 335 114 332 93 q 346 154 339 135 q 403 300 369 229 q 467 443 438 371 q 494 511 476 467 q 535 610 513 556 q 585 721 558 664 q 636 828 611 778 q 684 914 661 878 q 724 961 707 950 q 756 980 739 972 q 792 988 772 988 q 854 965 832 988 q 876 903 876 943 q 870 853 876 878 q 857 806 864 829 q 787 635 829 718 q 708 468 744 553 q 624 265 665 368 q 531 67 583 163 q 512 36 522 53 q 488 6 501 19 q 458 -18 474 -8 q 424 -28 442 -28 m 86 442 q 87 469 86 454 q 90 497 88 483 q 101 520 93 511 q 121 529 108 529 q 149 533 138 529 q 161 556 161 536 q 160 663 161 608 q 163 769 160 717 l 161 771 q 100 785 122 765 q 78 840 78 804 q 94 894 78 868 q 133 942 110 921 q 185 975 157 963 q 240 988 214 988 q 317 972 292 988 q 353 918 343 957 q 362 812 363 879 q 361 642 361 744 q 360 597 361 618 q 358 553 360 575 q 361 529 357 533 q 381 525 365 525 q 400 516 393 525 q 410 494 407 507 q 415 469 414 482 q 415 446 415 456 q 396 401 415 417 q 349 378 376 386 q 293 369 322 371 q 243 368 264 368 l 207 368 q 169 371 190 368 q 129 382 147 374 q 99 405 111 390 q 86 442 86 419 m 1019 -26 q 971 -10 986 -26 q 947 28 956 7 q 932 65 939 49 q 908 82 925 82 q 838 81 876 82 q 767 88 800 79 q 711 118 733 96 q 689 188 689 140 q 703 254 689 214 q 742 340 718 294 q 797 431 765 386 q 861 513 828 476 q 928 573 894 550 q 990 596 961 596 q 1066 573 1038 596 q 1109 515 1094 550 q 1128 438 1124 479 q 1132 361 1132 397 q 1130 314 1132 338 q 1129 267 1128 290 q 1133 244 1129 250 q 1150 238 1136 238 q 1164 230 1158 238 q 1173 211 1169 222 q 1178 189 1176 200 q 1179 169 1179 178 q 1177 147 1179 160 q 1171 121 1175 133 q 1160 100 1167 108 q 1146 92 1154 92 q 1130 89 1135 92 q 1121 75 1125 86 q 1088 4 1108 35 q 1019 -26 1068 -26 m 938 238 q 948 257 944 238 q 951 296 951 276 q 949 323 951 311 q 943 335 947 335 q 928 324 939 335 q 906 300 917 314 q 885 271 894 286 q 876 247 876 256 q 886 238 876 238 l 938 238 z "},"":{"ha":1215,"x_min":56,"x_max":1158,"o":"m 401 -28 q 333 1 357 -28 q 310 72 310 29 q 313 114 310 93 q 324 154 317 135 q 381 300 347 229 q 444 443 415 371 q 472 511 454 467 q 513 610 490 556 q 563 721 536 664 q 614 828 589 778 q 662 914 639 878 q 701 961 685 950 q 733 980 717 972 q 769 988 750 988 q 832 965 810 988 q 854 903 854 943 q 848 853 854 878 q 835 806 842 829 q 765 635 807 718 q 686 468 722 553 q 602 265 643 368 q 508 67 561 163 q 490 36 500 53 q 465 6 479 19 q 435 -18 451 -8 q 401 -28 419 -28 m 64 442 q 65 469 64 454 q 68 497 65 483 q 78 520 71 511 q 99 529 86 529 q 127 533 115 529 q 139 556 139 536 q 138 663 139 608 q 140 769 138 717 l 139 771 q 78 785 100 765 q 56 840 56 804 q 72 894 56 868 q 111 942 88 921 q 163 975 135 963 q 218 988 192 988 q 295 972 269 988 q 331 918 321 957 q 340 812 340 879 q 339 642 339 744 q 338 597 339 618 q 336 553 338 575 q 339 529 335 533 q 358 525 343 525 q 378 516 371 525 q 388 494 385 507 q 392 469 392 482 q 393 446 393 456 q 374 401 393 417 q 327 378 354 386 q 271 369 300 371 q 221 368 242 368 l 185 368 q 147 371 168 368 q 107 382 125 374 q 76 405 89 390 q 64 442 64 419 m 778 335 q 729 352 744 335 q 710 392 714 369 q 709 436 706 414 q 717 468 713 458 q 810 581 753 543 q 926 618 868 618 q 1008 603 968 618 q 1081 560 1049 588 q 1132 497 1113 533 q 1151 415 1151 460 q 1122 314 1151 358 q 1051 235 1092 269 q 1008 201 1029 215 q 975 178 986 188 q 953 158 953 160 q 957 156 954 156 q 1013 156 979 156 q 1080 149 1047 156 q 1135 125 1113 142 q 1158 75 1158 108 q 1143 33 1158 49 q 1105 8 1128 17 q 1056 -4 1082 -1 q 1011 -7 1031 -7 l 894 -7 q 831 -4 865 -7 q 767 9 796 -1 q 718 42 738 19 q 699 104 699 65 q 731 174 699 138 q 808 246 764 210 l 846 278 q 923 350 890 314 q 956 419 956 386 q 949 452 956 435 q 922 469 942 469 q 886 449 900 469 q 859 402 872 428 q 828 356 846 376 q 778 335 810 335 z "},"":{"ha":1244,"x_min":53,"x_max":1208,"o":"m 453 -28 q 385 1 408 -28 q 361 72 361 29 q 365 114 361 93 q 375 154 368 135 q 433 300 399 229 q 496 443 467 371 q 524 511 506 467 q 565 610 542 556 q 614 721 588 664 q 665 828 640 778 q 713 914 690 878 q 753 961 736 950 q 785 980 768 972 q 821 988 801 988 q 883 965 861 988 q 906 903 906 943 q 899 853 906 878 q 886 806 893 829 q 816 635 858 718 q 738 468 774 553 q 653 265 694 368 q 560 67 613 163 q 541 36 551 53 q 517 6 531 19 q 487 -18 503 -8 q 453 -28 471 -28 m 126 588 q 168 573 156 588 q 191 540 181 558 q 215 508 201 522 q 257 493 228 493 q 290 504 283 493 q 297 539 297 515 q 288 571 297 561 q 267 585 279 581 q 238 592 254 590 q 210 600 222 594 q 188 617 197 606 q 179 653 179 629 q 197 699 179 690 q 235 712 214 708 q 274 726 257 715 q 292 779 292 738 q 288 806 292 793 q 268 818 285 818 q 238 810 250 818 q 220 793 226 803 q 210 773 214 783 q 201 757 206 763 q 171 726 189 739 q 132 713 153 713 q 80 736 94 713 q 65 793 65 760 q 83 867 65 835 q 131 922 101 900 q 197 956 160 944 q 271 968 233 968 q 349 956 310 968 q 420 919 389 943 q 471 860 451 894 q 490 783 490 826 q 472 720 490 744 q 433 682 454 696 q 393 663 411 668 q 375 654 375 657 q 394 647 375 653 q 434 627 413 640 q 474 591 456 614 q 493 531 493 568 q 472 451 493 486 q 415 390 450 415 q 340 351 381 365 q 258 338 299 338 q 188 348 224 338 q 122 379 151 358 q 72 430 92 400 q 53 499 53 460 q 69 561 53 535 q 126 588 85 588 m 1049 -26 q 1000 -10 1015 -26 q 976 28 985 7 q 961 65 968 49 q 938 82 954 82 q 867 81 906 82 q 796 88 829 79 q 740 118 763 96 q 718 188 718 140 q 733 254 718 214 q 771 340 747 294 q 826 431 794 386 q 890 513 857 476 q 957 573 924 550 q 1019 596 990 596 q 1095 573 1067 596 q 1138 515 1124 550 q 1157 438 1153 479 q 1161 361 1161 397 q 1159 314 1161 338 q 1158 267 1157 290 q 1162 244 1158 250 q 1179 238 1165 238 q 1193 230 1188 238 q 1202 211 1199 222 q 1207 189 1206 200 q 1208 169 1208 178 q 1206 147 1208 160 q 1200 121 1204 133 q 1190 100 1196 108 q 1175 92 1183 92 q 1159 89 1164 92 q 1150 75 1154 86 q 1117 4 1138 35 q 1049 -26 1097 -26 m 967 238 q 977 257 974 238 q 981 296 981 276 q 978 323 981 311 q 972 335 976 335 q 957 324 968 335 q 935 300 946 314 q 915 271 924 286 q 906 247 906 256 q 915 238 906 238 l 967 238 z "},"":{"ha":706,"x_min":24,"x_max":676,"o":"m 528 732 q 487 651 528 682 q 381 619 446 619 q 340 626 361 619 q 302 646 319 632 q 274 681 285 660 q 263 732 263 703 q 302 816 263 788 q 393 844 342 844 q 442 838 418 844 q 485 817 467 831 q 516 781 504 803 q 528 732 528 760 m 246 483 q 293 566 263 535 q 372 597 324 597 q 415 591 392 597 q 457 571 438 585 q 490 535 476 557 q 503 483 503 514 q 472 392 503 435 q 402 307 440 349 q 333 224 364 265 q 301 138 301 183 q 317 67 301 89 q 358 44 332 44 q 392 67 382 44 q 403 132 403 90 q 415 182 403 160 q 447 219 426 204 q 496 243 468 235 q 554 251 524 251 q 643 214 610 251 q 676 129 676 176 q 649 8 676 64 q 574 -88 621 -47 q 464 -152 526 -129 q 333 -175 401 -175 q 215 -155 271 -175 q 116 -96 158 -135 q 49 -1 74 -57 q 24 128 24 56 q 37 223 24 185 q 71 290 50 261 q 118 339 92 318 q 169 381 144 360 q 214 425 193 401 q 246 483 235 449 z "},"":{"ha":803,"x_min":28,"x_max":775,"o":"m 249 1144 q 258 1180 249 1164 q 283 1207 268 1196 q 315 1224 297 1218 q 350 1231 333 1231 q 409 1210 374 1231 q 476 1161 444 1190 q 531 1099 508 1132 q 554 1043 554 1067 q 538 999 554 1017 q 494 981 521 981 q 433 998 474 981 q 351 1041 392 1015 q 279 1095 310 1067 q 249 1144 249 1124 m 638 1 q 565 24 590 1 q 528 81 540 47 q 511 156 515 115 q 502 230 507 196 q 488 287 497 264 q 454 310 478 310 l 375 310 q 320 294 335 310 q 294 242 306 278 q 276 166 285 208 q 253 86 268 124 q 213 22 239 49 q 138 -4 186 -4 q 78 17 100 -4 q 44 67 56 38 q 31 132 33 97 q 28 194 28 167 q 35 332 28 251 q 60 501 43 413 q 107 678 78 590 q 178 835 136 765 q 279 949 221 906 q 413 992 338 992 q 505 972 464 992 q 578 918 546 951 q 634 843 610 885 q 678 760 658 801 q 758 476 740 621 q 775 181 775 332 q 767 118 775 150 q 742 60 758 86 q 699 17 725 33 q 638 1 674 1 m 339 518 q 360 493 339 501 q 408 485 382 485 q 456 495 435 486 q 478 521 478 504 q 474 583 478 546 q 461 656 469 621 q 441 717 453 692 q 415 742 429 742 q 388 719 401 742 q 363 662 374 696 q 346 589 353 628 q 339 518 339 550 z "},"":{"ha":803,"x_min":28,"x_max":775,"o":"m 464 1060 q 430 1039 450 1051 q 388 1016 410 1026 q 344 998 365 1006 q 306 990 322 990 q 263 1009 279 990 q 247 1053 247 1028 q 271 1108 247 1078 q 327 1167 294 1139 q 395 1216 360 1196 q 453 1240 431 1236 q 493 1238 474 1243 q 527 1222 513 1233 q 550 1192 542 1210 q 556 1151 558 1174 q 524 1099 553 1119 q 464 1060 494 1079 m 638 1 q 565 24 590 1 q 528 81 540 47 q 511 156 515 115 q 502 230 507 196 q 488 287 497 264 q 454 310 478 310 l 375 310 q 320 294 335 310 q 294 242 306 278 q 276 166 285 208 q 253 86 268 124 q 213 22 239 49 q 138 -4 186 -4 q 78 17 100 -4 q 44 67 56 38 q 31 132 33 97 q 28 194 28 167 q 35 332 28 251 q 60 501 43 413 q 107 678 78 590 q 178 835 136 765 q 279 949 221 906 q 413 992 338 992 q 505 972 464 992 q 578 918 546 951 q 634 843 610 885 q 678 760 658 801 q 758 476 740 621 q 775 181 775 332 q 767 118 775 150 q 742 60 758 86 q 699 17 725 33 q 638 1 674 1 m 339 518 q 360 493 339 501 q 408 485 382 485 q 456 495 435 486 q 478 521 478 504 q 474 583 478 546 q 461 656 469 621 q 441 717 453 692 q 415 742 429 742 q 388 719 401 742 q 363 662 374 696 q 346 589 353 628 q 339 518 339 550 z "},"":{"ha":803,"x_min":28,"x_max":775,"o":"m 546 1003 q 505 1017 526 1003 q 465 1050 483 1032 q 431 1083 446 1068 q 408 1097 415 1097 q 386 1082 401 1097 q 351 1049 371 1067 q 307 1015 331 1031 q 260 1000 283 1000 q 206 1020 231 1000 q 181 1074 181 1040 q 208 1115 181 1088 q 274 1170 236 1143 q 349 1218 311 1197 q 407 1239 388 1239 q 463 1221 426 1239 q 535 1177 499 1203 q 597 1124 571 1151 q 624 1078 624 1097 q 601 1024 624 1044 q 546 1003 578 1003 m 638 1 q 565 24 590 1 q 528 81 540 47 q 511 156 515 115 q 502 230 507 196 q 488 287 497 264 q 454 310 478 310 l 375 310 q 320 294 335 310 q 294 242 306 278 q 276 166 285 208 q 253 86 268 124 q 213 22 239 49 q 138 -4 186 -4 q 78 17 100 -4 q 44 67 56 38 q 31 132 33 97 q 28 194 28 167 q 35 332 28 251 q 60 501 43 413 q 107 678 78 590 q 178 835 136 765 q 279 949 221 906 q 413 992 338 992 q 505 972 464 992 q 578 918 546 951 q 634 843 610 885 q 678 760 658 801 q 758 476 740 621 q 775 181 775 332 q 767 118 775 150 q 742 60 758 86 q 699 17 725 33 q 638 1 674 1 m 339 518 q 360 493 339 501 q 408 485 382 485 q 456 495 435 486 q 478 521 478 504 q 474 583 478 546 q 461 656 469 621 q 441 717 453 692 q 415 742 429 742 q 388 719 401 742 q 363 662 374 696 q 346 589 353 628 q 339 518 339 550 z "},"":{"ha":803,"x_min":28,"x_max":775,"o":"m 339 1044 q 312 1037 322 1044 q 292 1021 301 1029 q 271 1005 282 1013 q 244 997 260 997 q 177 1019 207 997 q 147 1079 147 1040 q 162 1135 147 1108 q 198 1183 176 1163 q 247 1216 219 1204 q 299 1228 274 1228 q 358 1219 333 1228 q 401 1199 382 1210 q 434 1180 419 1189 q 463 1171 449 1171 q 484 1180 474 1171 q 508 1199 494 1189 q 538 1218 522 1210 q 575 1226 554 1226 q 633 1204 611 1226 q 656 1125 656 1182 q 642 1072 656 1097 q 603 1028 628 1047 q 549 999 579 1010 q 485 989 518 989 q 429 998 451 989 q 391 1017 407 1007 q 363 1036 375 1028 q 339 1044 351 1044 m 638 1 q 565 24 590 1 q 528 81 540 47 q 511 156 515 115 q 502 230 507 196 q 488 287 497 264 q 454 310 478 310 l 375 310 q 320 294 335 310 q 294 242 306 278 q 276 166 285 208 q 253 86 268 124 q 213 22 239 49 q 138 -4 186 -4 q 78 17 100 -4 q 44 67 56 38 q 31 132 33 97 q 28 194 28 167 q 35 332 28 251 q 60 501 43 413 q 107 678 78 590 q 178 835 136 765 q 279 949 221 906 q 413 992 338 992 q 505 972 464 992 q 578 918 546 951 q 634 843 610 885 q 678 760 658 801 q 758 476 740 621 q 775 181 775 332 q 767 118 775 150 q 742 60 758 86 q 699 17 725 33 q 638 1 674 1 m 339 518 q 360 493 339 501 q 408 485 382 485 q 456 495 435 486 q 478 521 478 504 q 474 583 478 546 q 461 656 469 621 q 441 717 453 692 q 415 742 429 742 q 388 719 401 742 q 363 662 374 696 q 346 589 353 628 q 339 518 339 550 z "},"":{"ha":803,"x_min":28,"x_max":775,"o":"m 153 1108 q 163 1152 153 1133 q 189 1183 172 1171 q 227 1203 206 1196 q 271 1210 249 1210 q 314 1203 293 1210 q 351 1183 335 1196 q 378 1151 368 1169 q 388 1108 388 1132 q 351 1034 388 1061 q 271 1007 315 1007 q 189 1033 225 1007 q 153 1108 153 1060 m 415 1108 q 425 1152 415 1133 q 451 1183 435 1171 q 490 1203 468 1196 q 533 1210 511 1210 q 576 1203 556 1210 q 614 1183 597 1196 q 640 1151 631 1169 q 650 1108 650 1132 q 614 1034 650 1061 q 533 1007 578 1007 q 451 1033 488 1007 q 415 1108 415 1060 m 638 1 q 565 24 590 1 q 528 81 540 47 q 511 156 515 115 q 502 230 507 196 q 488 287 497 264 q 454 310 478 310 l 375 310 q 320 294 335 310 q 294 242 306 278 q 276 166 285 208 q 253 86 268 124 q 213 22 239 49 q 138 -4 186 -4 q 78 17 100 -4 q 44 67 56 38 q 31 132 33 97 q 28 194 28 167 q 35 332 28 251 q 60 501 43 413 q 107 678 78 590 q 178 835 136 765 q 279 949 221 906 q 413 992 338 992 q 505 972 464 992 q 578 918 546 951 q 634 843 610 885 q 678 760 658 801 q 758 476 740 621 q 775 181 775 332 q 767 118 775 150 q 742 60 758 86 q 699 17 725 33 q 638 1 674 1 m 339 518 q 360 493 339 501 q 408 485 382 485 q 456 495 435 486 q 478 521 478 504 q 474 583 478 546 q 461 656 469 621 q 441 717 453 692 q 415 742 429 742 q 388 719 401 742 q 363 662 374 696 q 346 589 353 628 q 339 518 339 550 z "},"":{"ha":803,"x_min":28,"x_max":775,"o":"m 638 1 q 565 24 590 1 q 528 81 540 47 q 511 156 515 115 q 502 230 507 196 q 488 287 497 264 q 454 310 478 310 l 375 310 q 320 294 335 310 q 294 242 306 278 q 276 166 285 208 q 253 86 268 124 q 213 22 239 49 q 138 -4 186 -4 q 78 17 100 -4 q 44 67 56 38 q 31 132 33 97 q 28 194 28 167 q 34 322 28 247 q 56 478 40 396 q 95 642 71 560 q 156 795 119 725 q 240 916 192 865 q 353 983 289 967 q 241 1022 282 990 q 200 1122 200 1053 q 215 1190 200 1163 q 258 1235 231 1218 q 324 1260 286 1253 q 406 1268 361 1268 q 485 1261 449 1268 q 547 1238 521 1254 q 588 1196 574 1222 q 603 1132 603 1169 q 563 1033 603 1067 q 458 988 524 999 q 533 956 500 979 q 592 902 565 933 q 640 834 618 871 q 678 760 661 797 q 758 476 740 621 q 775 181 775 332 q 767 118 775 150 q 742 60 758 86 q 699 17 725 33 q 638 1 674 1 m 344 1125 q 362 1095 344 1106 q 399 1085 379 1085 q 438 1096 418 1085 q 458 1126 458 1107 q 440 1156 458 1146 q 403 1165 422 1165 q 364 1155 383 1165 q 344 1125 344 1144 m 339 518 q 360 493 339 501 q 408 485 382 485 q 456 495 435 486 q 478 521 478 504 q 474 583 478 546 q 461 656 469 621 q 441 717 453 692 q 415 742 429 742 q 388 719 401 742 q 363 662 374 696 q 346 589 353 628 q 339 518 339 550 z "},"":{"ha":1160,"x_min":28,"x_max":1144,"o":"m 638 1 q 565 24 590 1 q 528 81 540 47 q 511 156 515 115 q 502 230 507 196 q 488 287 497 264 q 454 310 478 310 l 375 310 q 320 294 335 310 q 294 242 306 278 q 276 166 285 208 q 253 86 268 124 q 213 22 239 49 q 138 -4 186 -4 q 78 17 100 -4 q 44 67 56 38 q 31 132 33 97 q 28 194 28 167 q 35 332 28 251 q 60 501 43 413 q 107 678 78 590 q 178 835 136 765 q 279 949 221 906 q 413 992 338 992 q 515 967 471 992 q 593 901 558 942 q 657 958 619 938 q 744 979 694 979 l 925 979 q 989 976 957 979 q 1048 960 1021 972 q 1092 922 1075 947 q 1108 854 1108 897 q 1095 797 1108 819 q 1061 763 1082 775 q 1014 745 1040 750 q 961 740 988 740 q 924 742 940 740 q 892 748 908 744 q 860 753 876 751 q 824 756 844 756 q 807 749 814 756 q 796 732 800 742 q 790 712 792 722 q 788 694 788 701 q 788 672 788 683 q 791 650 788 660 q 802 635 794 640 q 825 629 810 629 q 871 631 851 629 q 908 633 890 632 q 946 634 926 633 q 992 635 965 635 q 1067 603 1040 635 q 1094 526 1094 571 q 1065 458 1094 486 q 990 431 1035 431 l 811 431 q 784 415 789 431 q 779 382 779 399 q 781 333 779 358 q 792 286 783 307 q 819 251 801 265 q 868 238 838 238 q 934 248 906 238 q 986 278 963 258 q 1017 297 1004 292 q 1050 303 1031 303 q 1119 269 1093 303 q 1144 169 1144 236 q 1112 85 1144 119 q 1032 32 1079 51 q 933 4 985 13 q 843 -4 881 -4 q 704 21 761 -4 q 638 1 676 1 m 339 518 q 360 493 339 501 q 408 485 382 485 q 456 495 435 486 q 478 521 478 504 q 474 583 478 546 q 461 656 469 621 q 441 717 453 692 q 415 742 429 742 q 388 719 401 742 q 363 662 374 696 q 346 589 353 628 q 339 518 339 550 z "},"":{"ha":768,"x_min":24,"x_max":735,"o":"m 600 581 q 523 597 556 575 q 490 674 490 618 q 469 736 490 710 q 411 763 449 763 q 350 742 372 763 q 317 686 328 722 q 302 599 306 650 q 299 486 299 549 q 303 383 299 433 q 319 292 307 332 q 355 227 332 251 q 415 203 378 203 q 476 230 461 203 q 490 289 490 257 q 505 341 490 321 q 540 372 519 361 q 583 387 561 383 q 618 390 604 390 q 669 378 647 390 q 706 347 692 367 q 728 302 721 328 q 735 247 735 276 q 710 147 735 193 q 646 67 686 101 q 553 11 606 33 q 443 -19 500 -11 q 468 -35 454 -28 q 494 -53 482 -42 q 516 -83 507 -65 q 525 -131 525 -101 q 510 -195 525 -165 q 471 -247 496 -225 q 415 -282 446 -269 q 350 -294 383 -294 q 313 -289 332 -294 q 279 -272 294 -283 q 254 -245 264 -261 q 244 -208 244 -229 q 255 -170 244 -182 q 281 -153 265 -158 q 317 -147 297 -147 q 357 -142 338 -146 q 361 -137 358 -142 q 364 -131 364 -132 q 363 -124 364 -129 q 360 -118 361 -119 q 328 -98 346 -104 q 297 -86 311 -92 q 272 -73 282 -81 q 261 -49 261 -65 q 267 -8 261 -26 q 153 61 200 14 q 78 174 107 108 q 36 317 49 239 q 24 479 24 396 q 42 672 24 578 q 106 839 61 765 q 224 958 150 913 q 408 1003 299 1003 q 529 986 472 1003 q 628 937 586 969 q 696 856 671 904 q 721 744 721 808 q 697 631 721 674 q 600 581 672 589 z "},"":{"ha":676,"x_min":26,"x_max":661,"o":"m 186 1144 q 196 1180 186 1164 q 220 1207 206 1196 q 253 1224 235 1218 q 288 1231 271 1231 q 347 1210 311 1231 q 414 1161 382 1190 q 469 1099 446 1132 q 492 1043 492 1067 q 475 999 492 1017 q 432 981 458 981 q 370 998 411 981 q 288 1041 329 1015 q 217 1095 247 1067 q 186 1144 186 1124 m 304 694 q 304 672 304 683 q 308 650 304 660 q 319 635 311 640 q 342 629 326 629 q 388 631 368 629 q 425 633 407 632 q 463 634 443 633 q 508 635 482 635 q 584 603 557 635 q 611 526 611 571 q 581 458 611 486 q 507 431 551 431 l 328 431 q 301 415 306 431 q 296 382 296 399 q 298 333 296 358 q 309 286 300 307 q 336 251 318 265 q 385 238 354 238 q 451 248 422 238 q 503 278 479 258 q 534 297 521 292 q 567 303 547 303 q 635 269 610 303 q 661 169 661 236 q 628 85 661 119 q 549 32 596 51 q 449 4 501 13 q 360 -4 397 -4 q 226 18 282 -4 q 134 78 171 40 q 76 167 97 117 q 43 276 54 218 q 29 397 32 335 q 26 519 26 460 q 37 690 26 607 q 74 838 47 774 q 147 940 101 901 q 261 979 192 979 l 442 979 q 506 976 474 979 q 565 960 538 972 q 608 922 592 947 q 625 854 625 897 q 612 797 625 819 q 578 763 599 775 q 531 745 557 750 q 478 740 504 740 q 441 742 457 740 q 409 748 425 744 q 377 753 393 751 q 340 756 361 756 q 324 749 331 756 q 313 732 317 742 q 306 712 308 722 q 304 694 304 701 z "},"":{"ha":676,"x_min":26,"x_max":661,"o":"m 400 1060 q 366 1039 386 1051 q 324 1016 346 1026 q 280 998 301 1006 q 242 990 258 990 q 199 1009 215 990 q 183 1053 183 1028 q 207 1108 183 1078 q 263 1167 231 1139 q 331 1216 296 1196 q 389 1240 367 1236 q 429 1238 410 1243 q 463 1222 449 1233 q 486 1192 478 1210 q 492 1151 494 1174 q 460 1099 489 1119 q 400 1060 431 1079 m 304 694 q 304 672 304 683 q 308 650 304 660 q 319 635 311 640 q 342 629 326 629 q 388 631 368 629 q 425 633 407 632 q 463 634 443 633 q 508 635 482 635 q 584 603 557 635 q 611 526 611 571 q 581 458 611 486 q 507 431 551 431 l 328 431 q 301 415 306 431 q 296 382 296 399 q 298 333 296 358 q 309 286 300 307 q 336 251 318 265 q 385 238 354 238 q 451 248 422 238 q 503 278 479 258 q 534 297 521 292 q 567 303 547 303 q 635 269 610 303 q 661 169 661 236 q 628 85 661 119 q 549 32 596 51 q 449 4 501 13 q 360 -4 397 -4 q 226 18 282 -4 q 134 78 171 40 q 76 167 97 117 q 43 276 54 218 q 29 397 32 335 q 26 519 26 460 q 37 690 26 607 q 74 838 47 774 q 147 940 101 901 q 261 979 192 979 l 442 979 q 506 976 474 979 q 565 960 538 972 q 608 922 592 947 q 625 854 625 897 q 612 797 625 819 q 578 763 599 775 q 531 745 557 750 q 478 740 504 740 q 441 742 457 740 q 409 748 425 744 q 377 753 393 751 q 340 756 361 756 q 324 749 331 756 q 313 732 317 742 q 306 712 308 722 q 304 694 304 701 z "},"":{"ha":676,"x_min":26,"x_max":661,"o":"m 482 1003 q 441 1017 463 1003 q 401 1050 419 1032 q 367 1083 382 1068 q 344 1097 351 1097 q 322 1082 338 1097 q 287 1049 307 1067 q 243 1015 267 1031 q 196 1000 219 1000 q 142 1020 167 1000 q 117 1074 117 1040 q 144 1115 117 1088 q 210 1170 172 1143 q 285 1218 247 1197 q 343 1239 324 1239 q 399 1221 363 1239 q 471 1177 435 1203 q 533 1124 507 1151 q 560 1078 560 1097 q 537 1024 560 1044 q 482 1003 514 1003 m 304 694 q 304 672 304 683 q 308 650 304 660 q 319 635 311 640 q 342 629 326 629 q 388 631 368 629 q 425 633 407 632 q 463 634 443 633 q 508 635 482 635 q 584 603 557 635 q 611 526 611 571 q 581 458 611 486 q 507 431 551 431 l 328 431 q 301 415 306 431 q 296 382 296 399 q 298 333 296 358 q 309 286 300 307 q 336 251 318 265 q 385 238 354 238 q 451 248 422 238 q 503 278 479 258 q 534 297 521 292 q 567 303 547 303 q 635 269 610 303 q 661 169 661 236 q 628 85 661 119 q 549 32 596 51 q 449 4 501 13 q 360 -4 397 -4 q 226 18 282 -4 q 134 78 171 40 q 76 167 97 117 q 43 276 54 218 q 29 397 32 335 q 26 519 26 460 q 37 690 26 607 q 74 838 47 774 q 147 940 101 901 q 261 979 192 979 l 442 979 q 506 976 474 979 q 565 960 538 972 q 608 922 592 947 q 625 854 625 897 q 612 797 625 819 q 578 763 599 775 q 531 745 557 750 q 478 740 504 740 q 441 742 457 740 q 409 748 425 744 q 377 753 393 751 q 340 756 361 756 q 324 749 331 756 q 313 732 317 742 q 306 712 308 722 q 304 694 304 701 z "},"":{"ha":676,"x_min":26,"x_max":661,"o":"m 90 1108 q 100 1152 90 1133 q 126 1183 110 1171 q 165 1203 143 1196 q 208 1210 186 1210 q 251 1203 231 1210 q 289 1183 272 1196 q 315 1151 306 1169 q 325 1108 325 1132 q 289 1034 325 1061 q 208 1007 253 1007 q 126 1033 163 1007 q 90 1108 90 1060 m 353 1108 q 363 1152 353 1133 q 389 1183 372 1171 q 427 1203 406 1196 q 471 1210 449 1210 q 514 1203 493 1210 q 551 1183 535 1196 q 578 1151 568 1169 q 588 1108 588 1132 q 551 1034 588 1061 q 471 1007 515 1007 q 389 1033 425 1007 q 353 1108 353 1060 m 304 694 q 304 672 304 683 q 308 650 304 660 q 319 635 311 640 q 342 629 326 629 q 388 631 368 629 q 425 633 407 632 q 463 634 443 633 q 508 635 482 635 q 584 603 557 635 q 611 526 611 571 q 581 458 611 486 q 507 431 551 431 l 328 431 q 301 415 306 431 q 296 382 296 399 q 298 333 296 358 q 309 286 300 307 q 336 251 318 265 q 385 238 354 238 q 451 248 422 238 q 503 278 479 258 q 534 297 521 292 q 567 303 547 303 q 635 269 610 303 q 661 169 661 236 q 628 85 661 119 q 549 32 596 51 q 449 4 501 13 q 360 -4 397 -4 q 226 18 282 -4 q 134 78 171 40 q 76 167 97 117 q 43 276 54 218 q 29 397 32 335 q 26 519 26 460 q 37 690 26 607 q 74 838 47 774 q 147 940 101 901 q 261 979 192 979 l 442 979 q 506 976 474 979 q 565 960 538 972 q 608 922 592 947 q 625 854 625 897 q 612 797 625 819 q 578 763 599 775 q 531 745 557 750 q 478 740 504 740 q 441 742 457 740 q 409 748 425 744 q 377 753 393 751 q 340 756 361 756 q 324 749 331 756 q 313 732 317 742 q 306 712 308 722 q 304 694 304 701 z "},"":{"ha":528,"x_min":17,"x_max":507,"o":"m 28 122 q 35 178 28 160 q 55 203 43 196 q 81 213 67 211 q 106 220 94 215 q 126 236 118 225 q 133 274 133 247 q 130 503 133 378 q 126 763 126 629 q 118 785 126 779 q 98 791 110 790 q 72 792 86 792 q 45 797 57 792 q 25 817 33 803 q 17 863 17 832 q 49 940 17 915 q 124 976 81 965 q 211 985 167 986 q 282 985 256 985 q 308 985 293 985 q 340 983 324 985 q 275 1008 314 989 q 200 1051 236 1026 q 138 1100 164 1075 q 111 1144 111 1125 q 121 1180 111 1164 q 145 1207 131 1196 q 178 1224 160 1218 q 213 1231 196 1231 q 272 1210 236 1231 q 339 1161 307 1190 q 394 1099 371 1132 q 417 1043 417 1067 q 401 1001 417 1018 q 363 981 386 983 q 413 971 388 978 q 460 952 439 964 q 494 921 481 940 q 507 874 507 901 q 473 816 507 836 q 400 789 439 796 q 390 786 394 788 q 385 778 385 785 q 387 585 385 675 q 389 392 389 494 q 388 319 389 351 q 386 254 386 286 q 394 221 386 231 q 415 208 403 211 q 443 205 428 206 q 471 197 458 204 q 492 174 483 190 q 500 125 500 158 q 470 52 500 78 q 399 15 440 26 q 314 1 357 3 q 244 0 271 0 q 181 1 218 0 q 109 15 143 3 q 51 51 75 26 q 28 122 28 76 z "},"":{"ha":528,"x_min":17,"x_max":507,"o":"m 326 1060 q 292 1039 313 1051 q 250 1016 272 1026 q 206 998 228 1006 q 168 990 185 990 q 126 1009 142 990 q 110 1053 110 1028 q 133 1108 110 1078 q 190 1167 157 1139 q 258 1216 222 1196 q 315 1240 293 1236 q 356 1238 336 1243 q 390 1222 375 1233 q 413 1192 404 1210 q 418 1151 421 1174 q 386 1099 415 1119 q 326 1060 357 1079 m 28 122 q 35 178 28 160 q 55 203 43 196 q 81 213 67 211 q 106 220 94 215 q 126 236 118 225 q 133 274 133 247 q 130 503 133 378 q 126 763 126 629 q 118 785 126 779 q 98 791 110 790 q 72 792 86 792 q 45 797 57 792 q 25 817 33 803 q 17 863 17 832 q 49 940 17 915 q 124 976 81 965 q 211 985 167 986 q 282 985 256 985 q 344 983 306 985 q 418 970 382 981 q 481 937 454 960 q 507 874 507 914 q 473 816 507 836 q 400 789 439 796 q 390 786 394 788 q 385 778 385 785 q 387 585 385 675 q 389 392 389 494 q 388 319 389 351 q 386 254 386 286 q 394 221 386 231 q 415 208 403 211 q 443 205 428 206 q 471 197 458 204 q 492 174 483 190 q 500 125 500 158 q 470 52 500 78 q 399 15 440 26 q 314 1 357 3 q 244 0 271 0 q 181 1 218 0 q 109 15 143 3 q 51 51 75 26 q 28 122 28 76 z "},"":{"ha":528,"x_min":17,"x_max":507,"o":"m 408 1003 q 367 1017 389 1003 q 327 1050 346 1032 q 293 1083 308 1068 q 271 1097 278 1097 q 249 1082 264 1097 q 213 1049 233 1067 q 169 1015 193 1031 q 122 1000 146 1000 q 68 1020 93 1000 q 43 1074 43 1040 q 71 1115 43 1088 q 136 1170 99 1143 q 212 1218 174 1197 q 269 1239 250 1239 q 325 1221 289 1239 q 397 1177 361 1203 q 460 1124 433 1151 q 486 1078 486 1097 q 463 1024 486 1044 q 408 1003 440 1003 m 28 122 q 35 178 28 160 q 55 203 43 196 q 81 213 67 211 q 106 220 94 215 q 126 236 118 225 q 133 274 133 247 q 130 503 133 378 q 126 763 126 629 q 118 785 126 779 q 98 791 110 790 q 72 792 86 792 q 45 797 57 792 q 25 817 33 803 q 17 863 17 832 q 49 940 17 915 q 124 976 81 965 q 211 985 167 986 q 282 985 256 985 q 344 983 306 985 q 418 970 382 981 q 481 937 454 960 q 507 874 507 914 q 473 816 507 836 q 400 789 439 796 q 390 786 394 788 q 385 778 385 785 q 387 585 385 675 q 389 392 389 494 q 388 319 389 351 q 386 254 386 286 q 394 221 386 231 q 415 208 403 211 q 443 205 428 206 q 471 197 458 204 q 492 174 483 190 q 500 125 500 158 q 470 52 500 78 q 399 15 440 26 q 314 1 357 3 q 244 0 271 0 q 181 1 218 0 q 109 15 143 3 q 51 51 75 26 q 28 122 28 76 z "},"":{"ha":528,"x_min":15,"x_max":513,"o":"m 15 1108 q 25 1152 15 1133 q 51 1183 35 1171 q 90 1203 68 1196 q 133 1210 111 1210 q 176 1203 156 1210 q 214 1183 197 1196 q 240 1151 231 1169 q 250 1108 250 1132 q 214 1034 250 1061 q 133 1007 178 1007 q 51 1033 88 1007 q 15 1108 15 1060 m 278 1108 q 288 1152 278 1133 q 314 1183 297 1171 q 352 1203 331 1196 q 396 1210 374 1210 q 439 1203 418 1210 q 476 1183 460 1196 q 503 1151 493 1169 q 513 1108 513 1132 q 476 1034 513 1061 q 396 1007 440 1007 q 314 1033 350 1007 q 278 1108 278 1060 m 28 122 q 35 178 28 160 q 55 203 43 196 q 81 213 67 211 q 106 220 94 215 q 126 236 118 225 q 133 274 133 247 q 130 503 133 378 q 126 763 126 629 q 118 785 126 779 q 98 791 110 790 q 72 792 86 792 q 45 797 57 792 q 25 817 33 803 q 17 863 17 832 q 49 940 17 915 q 124 976 81 965 q 211 985 167 986 q 282 985 256 985 q 344 983 306 985 q 418 970 382 981 q 481 937 454 960 q 507 874 507 914 q 473 816 507 836 q 400 789 439 796 q 390 786 394 788 q 385 778 385 785 q 387 585 385 675 q 389 392 389 494 q 388 319 389 351 q 386 254 386 286 q 394 221 386 231 q 415 208 403 211 q 443 205 428 206 q 471 197 458 204 q 492 174 483 190 q 500 125 500 158 q 470 52 500 78 q 399 15 440 26 q 314 1 357 3 q 244 0 271 0 q 181 1 218 0 q 109 15 143 3 q 51 51 75 26 q 28 122 28 76 z "},"":{"ha":785,"x_min":-31,"x_max":751,"o":"m 275 0 q 97 57 151 0 q 43 240 43 114 q 42 306 43 265 q 40 390 42 347 q -11 426 8 401 q -31 500 -31 451 q -12 549 -31 525 q 39 582 7 574 q 40 682 39 629 q 46 783 42 735 q 58 872 50 832 q 81 932 67 911 q 304 997 124 997 q 494 971 411 997 q 635 888 578 944 q 722 740 692 831 q 751 522 751 650 q 717 284 751 383 q 619 122 682 185 q 469 29 557 58 q 275 0 382 0 m 286 592 l 399 594 q 457 565 443 596 q 471 486 471 535 q 447 423 471 450 q 360 388 424 396 q 324 383 342 385 q 286 381 306 382 l 286 358 q 298 284 286 313 q 349 256 310 256 q 414 283 388 256 q 457 351 440 310 q 481 444 474 393 q 488 544 488 496 q 485 599 488 564 q 471 667 482 633 q 435 725 460 700 q 369 750 411 750 q 307 722 328 750 q 286 643 286 694 l 286 592 z "},"":{"ha":818,"x_min":36,"x_max":783,"o":"m 347 1044 q 320 1037 331 1044 q 300 1021 310 1029 q 279 1005 290 1013 q 253 997 268 997 q 185 1019 215 997 q 156 1079 156 1040 q 170 1135 156 1108 q 206 1183 185 1163 q 255 1216 228 1204 q 307 1228 282 1228 q 366 1219 342 1228 q 409 1199 390 1210 q 442 1180 428 1189 q 471 1171 457 1171 q 492 1180 482 1171 q 517 1199 503 1189 q 547 1218 531 1210 q 583 1226 563 1226 q 642 1204 619 1226 q 664 1125 664 1182 q 650 1072 664 1097 q 612 1028 636 1047 q 557 999 588 1010 q 493 989 526 989 q 438 998 460 989 q 399 1017 415 1007 q 372 1036 383 1028 q 347 1044 360 1044 m 601 -3 q 526 29 563 -3 q 459 108 490 61 q 401 211 428 156 q 354 314 375 267 q 317 393 333 361 q 293 425 301 425 q 285 419 288 425 q 281 404 282 413 q 279 388 279 396 q 279 376 279 379 q 292 279 279 332 q 304 182 304 226 q 302 125 304 157 q 288 64 300 93 q 251 15 276 35 q 176 -4 225 -4 q 94 41 122 -4 q 52 157 65 86 q 38 315 39 228 q 36 488 36 403 q 37 597 36 542 q 38 706 38 651 q 44 806 38 756 q 69 895 51 856 q 117 959 86 935 q 199 983 149 983 q 274 948 236 983 q 346 858 311 913 q 412 742 381 804 q 467 626 443 681 q 509 537 492 572 q 532 501 526 501 q 542 517 540 501 q 542 538 543 533 q 523 692 529 613 q 524 836 517 771 q 557 943 532 901 q 633 985 582 985 q 720 967 690 985 q 765 919 750 950 q 781 847 779 889 q 783 754 783 804 q 782 640 783 703 q 778 518 781 578 q 775 409 776 458 q 774 335 774 360 q 769 202 774 264 q 747 95 764 140 q 695 24 729 50 q 601 -3 661 -3 z "},"":{"ha":899,"x_min":36,"x_max":861,"o":"m 446 -15 q 284 13 358 -15 q 154 102 210 42 q 67 255 99 163 q 36 474 36 347 q 67 704 36 607 q 155 864 99 801 q 290 957 211 926 q 464 988 368 988 q 492 987 479 988 q 518 985 506 986 q 453 1012 492 993 q 381 1053 415 1031 q 322 1101 346 1076 q 297 1144 297 1126 q 307 1180 297 1164 q 331 1207 317 1196 q 364 1224 346 1218 q 399 1231 382 1231 q 458 1210 422 1231 q 525 1161 493 1190 q 580 1099 557 1132 q 603 1043 603 1067 q 588 1001 603 1018 q 549 981 572 983 q 783 835 704 956 q 861 504 861 715 q 755 122 861 258 q 446 -15 649 -15 m 303 474 q 311 390 303 436 q 338 302 319 343 q 386 233 357 261 q 458 206 415 206 q 531 232 504 206 q 572 299 557 258 q 590 388 586 339 q 594 479 594 436 q 585 573 594 524 q 558 665 576 622 q 511 736 539 708 q 447 764 483 764 q 395 742 421 764 q 349 683 369 721 q 315 591 328 644 q 303 474 303 538 z "},"":{"ha":899,"x_min":36,"x_max":861,"o":"m 511 1060 q 477 1039 497 1051 q 435 1016 457 1026 q 391 998 413 1006 q 353 990 369 990 q 310 1009 326 990 q 294 1053 294 1028 q 318 1108 294 1078 q 374 1167 342 1139 q 442 1216 407 1196 q 500 1240 478 1236 q 540 1238 521 1243 q 574 1222 560 1233 q 597 1192 589 1210 q 603 1151 606 1174 q 571 1099 600 1119 q 511 1060 542 1079 m 446 -15 q 284 13 358 -15 q 154 102 210 42 q 67 255 99 163 q 36 474 36 347 q 67 704 36 607 q 155 864 99 801 q 290 957 211 926 q 464 988 368 988 q 761 865 661 988 q 861 504 861 743 q 755 122 861 258 q 446 -15 649 -15 m 303 474 q 311 390 303 436 q 338 302 319 343 q 386 233 357 261 q 458 206 415 206 q 531 232 504 206 q 572 299 557 258 q 590 388 586 339 q 594 479 594 436 q 585 573 594 524 q 558 665 576 622 q 511 736 539 708 q 447 764 483 764 q 395 742 421 764 q 349 683 369 721 q 315 591 328 644 q 303 474 303 538 z "},"":{"ha":899,"x_min":36,"x_max":861,"o":"m 593 1003 q 552 1017 574 1003 q 512 1050 531 1032 q 478 1083 493 1068 q 456 1097 463 1097 q 433 1082 449 1097 q 398 1049 418 1067 q 354 1015 378 1031 q 307 1000 331 1000 q 253 1020 278 1000 q 228 1074 228 1040 q 256 1115 228 1088 q 321 1170 283 1143 q 397 1218 358 1197 q 454 1239 435 1239 q 510 1221 474 1239 q 582 1177 546 1203 q 644 1124 618 1151 q 671 1078 671 1097 q 648 1024 671 1044 q 593 1003 625 1003 m 446 -15 q 284 13 358 -15 q 154 102 210 42 q 67 255 99 163 q 36 474 36 347 q 67 704 36 607 q 155 864 99 801 q 290 957 211 926 q 464 988 368 988 q 761 865 661 988 q 861 504 861 743 q 755 122 861 258 q 446 -15 649 -15 m 303 474 q 311 390 303 436 q 338 302 319 343 q 386 233 357 261 q 458 206 415 206 q 531 232 504 206 q 572 299 557 258 q 590 388 586 339 q 594 479 594 436 q 585 573 594 524 q 558 665 576 622 q 511 736 539 708 q 447 764 483 764 q 395 742 421 764 q 349 683 369 721 q 315 591 328 644 q 303 474 303 538 z "},"":{"ha":899,"x_min":36,"x_max":861,"o":"m 388 1044 q 360 1037 371 1044 q 340 1021 350 1029 q 319 1005 331 1013 q 293 997 308 997 q 226 1019 256 997 q 196 1079 196 1040 q 210 1135 196 1108 q 247 1183 225 1163 q 295 1216 268 1204 q 347 1228 322 1228 q 406 1219 382 1228 q 449 1199 431 1210 q 483 1180 468 1189 q 511 1171 497 1171 q 533 1180 522 1171 q 557 1199 543 1189 q 587 1218 571 1210 q 624 1226 603 1226 q 682 1204 660 1226 q 704 1125 704 1182 q 690 1072 704 1097 q 652 1028 676 1047 q 597 999 628 1010 q 533 989 567 989 q 478 998 500 989 q 440 1017 456 1007 q 412 1036 424 1028 q 388 1044 400 1044 m 446 -15 q 284 13 358 -15 q 154 102 210 42 q 67 255 99 163 q 36 474 36 347 q 67 704 36 607 q 155 864 99 801 q 290 957 211 926 q 464 988 368 988 q 761 865 661 988 q 861 504 861 743 q 755 122 861 258 q 446 -15 649 -15 m 303 474 q 311 390 303 436 q 338 302 319 343 q 386 233 357 261 q 458 206 415 206 q 531 232 504 206 q 572 299 557 258 q 590 388 586 339 q 594 479 594 436 q 585 573 594 524 q 558 665 576 622 q 511 736 539 708 q 447 764 483 764 q 395 742 421 764 q 349 683 369 721 q 315 591 328 644 q 303 474 303 538 z "},"":{"ha":899,"x_min":36,"x_max":861,"o":"m 201 1108 q 211 1152 201 1133 q 238 1183 221 1171 q 276 1203 254 1196 q 319 1210 297 1210 q 363 1203 342 1210 q 400 1183 383 1196 q 426 1151 417 1169 q 436 1108 436 1132 q 400 1034 436 1061 q 319 1007 364 1007 q 238 1033 274 1007 q 201 1108 201 1060 m 464 1108 q 474 1152 464 1133 q 500 1183 483 1171 q 538 1203 517 1196 q 582 1210 560 1210 q 625 1203 604 1210 q 663 1183 646 1196 q 689 1151 679 1169 q 699 1108 699 1132 q 663 1034 699 1061 q 582 1007 626 1007 q 500 1033 536 1007 q 464 1108 464 1060 m 446 -15 q 284 13 358 -15 q 154 102 210 42 q 67 255 99 163 q 36 474 36 347 q 67 704 36 607 q 155 864 99 801 q 290 957 211 926 q 464 988 368 988 q 761 865 661 988 q 861 504 861 743 q 755 122 861 258 q 446 -15 649 -15 m 303 474 q 311 390 303 436 q 338 302 319 343 q 386 233 357 261 q 458 206 415 206 q 531 232 504 206 q 572 299 557 258 q 590 388 586 339 q 594 479 594 436 q 585 573 594 524 q 558 665 576 622 q 511 736 539 708 q 447 764 483 764 q 395 742 421 764 q 349 683 369 721 q 315 591 328 644 q 303 474 303 538 z "},"":{"ha":556,"x_min":42,"x_max":514,"o":"m 424 278 q 382 292 401 278 q 346 324 363 307 q 315 356 329 342 q 290 371 301 371 q 263 356 278 371 q 228 322 247 340 q 189 289 210 304 q 146 274 168 274 q 87 299 113 274 q 61 358 61 324 q 78 394 61 378 q 115 425 94 411 q 153 450 136 439 q 169 471 169 461 q 149 496 169 481 q 106 529 129 511 q 62 567 82 547 q 42 603 42 586 q 53 641 42 624 q 82 671 64 658 q 121 690 100 683 q 160 697 142 697 q 201 679 182 697 q 235 640 219 661 q 263 601 251 619 q 282 583 274 583 q 299 601 289 583 q 323 642 308 619 q 356 682 338 664 q 394 700 374 700 q 433 693 413 700 q 472 674 454 686 q 502 645 490 663 q 514 607 514 628 q 497 571 514 590 q 458 533 479 551 q 419 497 436 514 q 401 471 401 481 q 419 449 401 460 q 458 426 436 439 q 497 398 479 414 q 514 361 514 382 q 485 303 514 328 q 424 278 457 278 z "},"":{"ha":899,"x_min":36,"x_max":861,"o":"m 446 -15 q 340 -4 393 -15 q 294 -56 319 -33 q 236 -78 268 -78 q 165 -47 186 -78 q 143 29 143 -17 q 146 67 143 49 q 153 103 149 85 q 67 256 99 164 q 36 474 36 347 q 67 704 36 607 q 155 864 99 801 q 290 957 211 926 q 464 988 368 988 q 503 986 485 988 q 542 982 522 985 q 552 1001 547 992 q 563 1018 557 1010 q 607 1057 578 1044 q 667 1069 636 1069 q 733 1042 710 1069 q 757 974 757 1015 q 752 937 757 958 q 740 888 747 915 q 861 504 861 764 q 755 122 861 258 q 446 -15 649 -15 m 303 475 q 333 539 318 507 q 361 603 347 571 q 394 678 376 638 q 432 763 413 718 q 385 733 408 757 q 343 671 361 708 q 314 583 325 633 q 303 475 303 533 m 446 207 q 458 206 450 206 q 531 232 504 206 q 572 299 557 258 q 590 388 586 339 q 594 479 594 436 q 594 503 594 490 q 592 526 593 515 q 559 457 574 489 q 533 404 544 425 q 489 306 510 356 q 446 207 468 256 z "},"":{"ha":810,"x_min":35,"x_max":775,"o":"m 253 1144 q 263 1180 253 1164 q 287 1207 272 1196 q 319 1224 301 1218 q 354 1231 338 1231 q 413 1210 378 1231 q 481 1161 449 1190 q 535 1099 513 1132 q 558 1043 558 1067 q 542 999 558 1017 q 499 981 525 981 q 437 998 478 981 q 355 1041 396 1015 q 283 1095 314 1067 q 253 1144 253 1124 m 408 -7 q 195 42 271 -7 q 84 170 119 92 q 42 347 49 249 q 35 546 35 446 q 38 715 35 636 q 56 853 42 793 q 101 947 71 913 q 185 981 131 981 q 256 957 231 981 q 293 898 281 933 q 308 822 306 863 q 311 747 311 782 q 308 603 311 675 q 306 458 306 531 q 308 387 306 425 q 322 315 311 349 q 351 260 332 282 q 404 238 371 238 q 469 260 446 238 q 503 328 492 283 q 516 437 514 372 q 518 585 518 501 q 514 728 518 657 q 510 871 510 799 q 543 956 510 926 q 628 986 576 986 q 703 968 674 986 q 748 918 732 950 q 769 842 764 886 q 775 743 775 797 l 775 608 q 772 460 775 535 q 758 318 769 386 q 724 190 747 250 q 660 87 700 131 q 558 18 619 43 q 408 -7 496 -7 z "},"":{"ha":810,"x_min":35,"x_max":775,"o":"m 467 1060 q 433 1039 453 1051 q 390 1016 413 1026 q 347 998 368 1006 q 308 990 325 990 q 266 1009 282 990 q 250 1053 250 1028 q 274 1108 250 1078 q 330 1167 297 1139 q 398 1216 363 1196 q 456 1240 433 1236 q 496 1238 476 1243 q 530 1222 515 1233 q 553 1192 544 1210 q 558 1151 561 1174 q 526 1099 556 1119 q 467 1060 497 1079 m 408 -7 q 195 42 271 -7 q 84 170 119 92 q 42 347 49 249 q 35 546 35 446 q 38 715 35 636 q 56 853 42 793 q 101 947 71 913 q 185 981 131 981 q 256 957 231 981 q 293 898 281 933 q 308 822 306 863 q 311 747 311 782 q 308 603 311 675 q 306 458 306 531 q 308 387 306 425 q 322 315 311 349 q 351 260 332 282 q 404 238 371 238 q 469 260 446 238 q 503 328 492 283 q 516 437 514 372 q 518 585 518 501 q 514 728 518 657 q 510 871 510 799 q 543 956 510 926 q 628 986 576 986 q 703 968 674 986 q 748 918 732 950 q 769 842 764 886 q 775 743 775 797 l 775 608 q 772 460 775 535 q 758 318 769 386 q 724 190 747 250 q 660 87 700 131 q 558 18 619 43 q 408 -7 496 -7 z "},"":{"ha":810,"x_min":35,"x_max":775,"o":"m 549 1003 q 508 1017 529 1003 q 467 1050 486 1032 q 433 1083 449 1068 q 411 1097 418 1097 q 389 1082 404 1097 q 353 1049 374 1067 q 310 1015 333 1031 q 263 1000 286 1000 q 208 1020 233 1000 q 183 1074 183 1040 q 211 1115 183 1088 q 276 1170 239 1143 q 352 1218 314 1197 q 410 1239 390 1239 q 465 1221 429 1239 q 538 1177 501 1203 q 600 1124 574 1151 q 626 1078 626 1097 q 603 1024 626 1044 q 549 1003 581 1003 m 408 -7 q 195 42 271 -7 q 84 170 119 92 q 42 347 49 249 q 35 546 35 446 q 38 715 35 636 q 56 853 42 793 q 101 947 71 913 q 185 981 131 981 q 256 957 231 981 q 293 898 281 933 q 308 822 306 863 q 311 747 311 782 q 308 603 311 675 q 306 458 306 531 q 308 387 306 425 q 322 315 311 349 q 351 260 332 282 q 404 238 371 238 q 469 260 446 238 q 503 328 492 283 q 516 437 514 372 q 518 585 518 501 q 514 728 518 657 q 510 871 510 799 q 543 956 510 926 q 628 986 576 986 q 703 968 674 986 q 748 918 732 950 q 769 842 764 886 q 775 743 775 797 l 775 608 q 772 460 775 535 q 758 318 769 386 q 724 190 747 250 q 660 87 700 131 q 558 18 619 43 q 408 -7 496 -7 z "},"":{"ha":810,"x_min":35,"x_max":775,"o":"m 157 1108 q 167 1152 157 1133 q 193 1183 176 1171 q 231 1203 210 1196 q 275 1210 253 1210 q 318 1203 297 1210 q 356 1183 339 1196 q 382 1151 372 1169 q 392 1108 392 1132 q 356 1034 392 1061 q 275 1007 319 1007 q 193 1033 229 1007 q 157 1108 157 1060 m 419 1108 q 429 1152 419 1133 q 456 1183 439 1171 q 494 1203 472 1196 q 538 1210 515 1210 q 581 1203 560 1210 q 618 1183 601 1196 q 644 1151 635 1169 q 654 1108 654 1132 q 618 1034 654 1061 q 538 1007 582 1007 q 456 1033 492 1007 q 419 1108 419 1060 m 408 -7 q 195 42 271 -7 q 84 170 119 92 q 42 347 49 249 q 35 546 35 446 q 38 715 35 636 q 56 853 42 793 q 101 947 71 913 q 185 981 131 981 q 256 957 231 981 q 293 898 281 933 q 308 822 306 863 q 311 747 311 782 q 308 603 311 675 q 306 458 306 531 q 308 387 306 425 q 322 315 311 349 q 351 260 332 282 q 404 238 371 238 q 469 260 446 238 q 503 328 492 283 q 516 437 514 372 q 518 585 518 501 q 514 728 518 657 q 510 871 510 799 q 543 956 510 926 q 628 986 576 986 q 703 968 674 986 q 748 918 732 950 q 769 842 764 886 q 775 743 775 797 l 775 608 q 772 460 775 535 q 758 318 769 386 q 724 190 747 250 q 660 87 700 131 q 558 18 619 43 q 408 -7 496 -7 z "},"":{"ha":729,"x_min":7,"x_max":722,"o":"m 426 1060 q 392 1039 413 1051 q 350 1016 372 1026 q 306 998 328 1006 q 268 990 285 990 q 226 1009 242 990 q 210 1053 210 1028 q 233 1108 210 1078 q 290 1167 257 1139 q 358 1216 322 1196 q 415 1240 393 1236 q 456 1238 436 1243 q 490 1222 475 1233 q 513 1192 504 1210 q 518 1151 521 1174 q 486 1099 515 1119 q 426 1060 457 1079 m 243 238 q 244 319 243 278 q 246 400 246 360 q 228 446 246 415 q 184 517 211 476 q 126 604 157 558 q 69 694 96 650 q 24 776 42 738 q 7 839 7 814 q 47 948 7 914 q 139 982 86 982 q 192 958 167 982 q 240 897 217 933 q 282 819 263 861 q 318 742 301 778 q 348 681 335 706 q 372 657 361 657 q 394 681 383 657 q 420 742 406 706 q 452 822 435 779 q 491 902 469 865 q 540 963 513 939 q 599 988 567 988 q 688 958 653 988 q 722 881 722 928 q 705 797 722 843 q 662 701 688 750 q 606 605 636 653 q 549 517 575 557 q 506 451 524 478 q 489 415 489 424 q 492 338 489 376 q 494 260 494 299 q 493 178 494 224 q 480 94 492 133 q 442 27 468 54 q 365 0 415 0 q 294 24 319 0 q 258 85 269 49 q 245 163 247 122 q 243 238 243 204 z "},"":{"ha":835,"x_min":44,"x_max":803,"o":"m 803 529 q 763 354 803 419 q 656 254 722 289 q 504 210 589 219 q 329 200 419 200 q 312 185 317 200 q 306 147 307 169 q 302 97 304 124 q 292 47 300 69 q 265 8 283 24 q 213 -7 247 -7 q 101 20 136 -7 q 56 91 67 47 q 47 190 44 135 q 50 301 50 246 q 49 383 50 332 q 49 497 49 435 q 51 624 50 558 q 56 750 53 690 q 67 856 60 810 q 83 925 74 903 q 125 979 101 964 q 192 994 149 994 q 267 965 244 994 q 290 904 290 936 q 295 866 290 885 q 315 844 300 847 q 333 846 319 844 q 363 849 346 847 q 398 853 379 851 q 431 856 417 856 q 574 835 507 856 q 692 774 642 815 q 773 672 743 733 q 803 529 803 611 m 307 444 q 317 425 307 433 q 340 412 326 417 q 370 404 354 407 q 397 401 386 401 q 506 430 472 401 q 539 535 539 458 q 527 597 539 571 q 494 638 515 622 q 444 660 472 653 q 382 667 415 667 q 365 666 376 667 q 342 662 354 665 q 322 652 331 658 q 313 633 313 646 q 308 544 310 589 q 307 444 307 499 z "},"":{"ha":814,"x_min":1,"x_max":788,"o":"m 332 732 q 337 564 332 646 q 347 409 342 482 q 356 273 353 336 q 357 160 360 210 q 344 74 353 106 q 320 25 335 42 q 286 3 306 8 q 242 -1 267 -1 q 176 14 201 -1 q 136 55 151 29 q 115 114 121 81 q 107 181 108 147 q 107 249 106 215 q 108 308 108 282 l 108 415 q 108 424 108 419 q 110 433 108 429 l 101 442 q 31 458 60 442 q 1 522 1 475 q 13 574 1 556 q 37 603 24 592 q 61 626 50 615 q 72 657 72 638 q 65 717 72 688 q 58 779 58 747 q 88 876 58 836 q 161 940 117 915 q 258 976 206 965 q 357 988 311 988 q 484 969 415 988 q 612 914 553 950 q 710 824 671 878 q 749 701 749 771 q 729 622 749 656 q 685 564 710 589 q 642 522 661 539 q 622 490 622 504 q 648 457 622 478 q 705 402 674 436 q 762 319 736 368 q 788 201 788 271 q 764 105 788 146 q 701 38 740 64 q 615 -1 663 11 q 517 -14 567 -14 q 393 93 393 -14 q 403 140 393 125 q 430 162 414 156 q 465 169 446 168 q 499 172 483 169 q 526 182 515 174 q 536 211 536 190 q 510 249 536 226 q 454 303 485 272 q 398 373 424 333 q 372 463 372 413 q 391 540 372 504 q 433 604 410 575 q 474 658 456 633 q 493 703 493 682 q 481 742 493 726 q 452 767 469 758 q 414 780 435 776 q 374 783 393 783 q 341 772 350 783 q 332 732 332 760 z "},"":{"ha":835,"x_min":28,"x_max":794,"o":"m 265 1144 q 275 1180 265 1164 q 299 1207 285 1196 q 332 1224 314 1218 q 367 1231 350 1231 q 426 1210 390 1231 q 493 1161 461 1190 q 548 1099 525 1132 q 571 1043 571 1067 q 554 999 571 1017 q 511 981 538 981 q 449 998 490 981 q 367 1041 408 1015 q 296 1095 326 1067 q 265 1144 265 1124 m 667 -29 q 632 -28 650 -29 q 598 -20 614 -26 q 571 -2 582 -14 q 556 31 560 10 q 553 43 554 35 q 549 60 551 51 q 542 74 546 68 q 529 81 538 81 q 510 65 524 81 q 473 33 496 50 q 417 0 450 15 q 338 -15 383 -15 q 209 10 267 -15 q 111 81 151 36 q 49 185 71 125 q 28 314 28 246 q 53 474 28 406 q 127 588 79 543 q 242 656 175 633 q 390 678 308 678 q 456 669 432 678 q 494 650 479 661 q 512 642 507 640 q 517 647 517 644 q 508 699 517 681 q 482 727 499 718 q 442 738 465 736 q 390 739 419 739 q 291 728 338 739 q 192 717 244 717 q 155 724 174 717 q 121 743 136 731 q 95 773 106 756 q 85 811 85 790 q 118 900 85 865 q 200 955 151 935 q 303 982 249 975 q 399 989 357 989 q 594 954 518 989 q 715 857 671 919 q 777 707 760 794 q 794 514 794 619 q 794 307 794 410 q 789 100 794 204 q 757 6 786 42 q 667 -29 728 -29 m 508 457 q 476 478 497 468 q 431 488 454 488 q 322 443 357 488 q 286 335 286 399 q 317 254 286 288 q 401 221 349 221 q 460 233 435 221 q 503 266 486 246 q 528 311 519 286 q 536 361 536 336 q 530 422 536 401 q 508 457 524 442 z "},"":{"ha":835,"x_min":28,"x_max":794,"o":"m 479 1060 q 445 1039 465 1051 q 403 1016 425 1026 q 359 998 381 1006 q 321 990 338 990 q 278 1009 294 990 q 263 1053 263 1028 q 286 1108 263 1078 q 342 1167 310 1139 q 410 1216 375 1196 q 468 1240 446 1236 q 508 1238 489 1243 q 542 1222 528 1233 q 565 1192 557 1210 q 571 1151 574 1174 q 539 1099 568 1119 q 479 1060 510 1079 m 667 -29 q 632 -28 650 -29 q 598 -20 614 -26 q 571 -2 582 -14 q 556 31 560 10 q 553 43 554 35 q 549 60 551 51 q 542 74 546 68 q 529 81 538 81 q 510 65 524 81 q 473 33 496 50 q 417 0 450 15 q 338 -15 383 -15 q 209 10 267 -15 q 111 81 151 36 q 49 185 71 125 q 28 314 28 246 q 53 474 28 406 q 127 588 79 543 q 242 656 175 633 q 390 678 308 678 q 456 669 432 678 q 494 650 479 661 q 512 642 507 640 q 517 647 517 644 q 508 699 517 681 q 482 727 499 718 q 442 738 465 736 q 390 739 419 739 q 291 728 338 739 q 192 717 244 717 q 155 724 174 717 q 121 743 136 731 q 95 773 106 756 q 85 811 85 790 q 118 900 85 865 q 200 955 151 935 q 303 982 249 975 q 399 989 357 989 q 594 954 518 989 q 715 857 671 919 q 777 707 760 794 q 794 514 794 619 q 794 307 794 410 q 789 100 794 204 q 757 6 786 42 q 667 -29 728 -29 m 508 457 q 476 478 497 468 q 431 488 454 488 q 322 443 357 488 q 286 335 286 399 q 317 254 286 288 q 401 221 349 221 q 460 233 435 221 q 503 266 486 246 q 528 311 519 286 q 536 361 536 336 q 530 422 536 401 q 508 457 524 442 z "},"":{"ha":835,"x_min":28,"x_max":794,"o":"m 561 1003 q 520 1017 542 1003 q 480 1050 499 1032 q 446 1083 461 1068 q 424 1097 431 1097 q 401 1082 417 1097 q 366 1049 386 1067 q 322 1015 346 1031 q 275 1000 299 1000 q 221 1020 246 1000 q 196 1074 196 1040 q 224 1115 196 1088 q 289 1170 251 1143 q 365 1218 326 1197 q 422 1239 403 1239 q 478 1221 442 1239 q 550 1177 514 1203 q 613 1124 586 1151 q 639 1078 639 1097 q 616 1024 639 1044 q 561 1003 593 1003 m 667 -29 q 632 -28 650 -29 q 598 -20 614 -26 q 571 -2 582 -14 q 556 31 560 10 q 553 43 554 35 q 549 60 551 51 q 542 74 546 68 q 529 81 538 81 q 510 65 524 81 q 473 33 496 50 q 417 0 450 15 q 338 -15 383 -15 q 209 10 267 -15 q 111 81 151 36 q 49 185 71 125 q 28 314 28 246 q 53 474 28 406 q 127 588 79 543 q 242 656 175 633 q 390 678 308 678 q 456 669 432 678 q 494 650 479 661 q 512 642 507 640 q 517 647 517 644 q 508 699 517 681 q 482 727 499 718 q 442 738 465 736 q 390 739 419 739 q 291 728 338 739 q 192 717 244 717 q 155 724 174 717 q 121 743 136 731 q 95 773 106 756 q 85 811 85 790 q 118 900 85 865 q 200 955 151 935 q 303 982 249 975 q 399 989 357 989 q 594 954 518 989 q 715 857 671 919 q 777 707 760 794 q 794 514 794 619 q 794 307 794 410 q 789 100 794 204 q 757 6 786 42 q 667 -29 728 -29 m 508 457 q 476 478 497 468 q 431 488 454 488 q 322 443 357 488 q 286 335 286 399 q 317 254 286 288 q 401 221 349 221 q 460 233 435 221 q 503 266 486 246 q 528 311 519 286 q 536 361 536 336 q 530 422 536 401 q 508 457 524 442 z "},"":{"ha":835,"x_min":28,"x_max":794,"o":"m 356 1044 q 328 1037 339 1044 q 308 1021 318 1029 q 288 1005 299 1013 q 261 997 276 997 q 194 1019 224 997 q 164 1079 164 1040 q 178 1135 164 1108 q 215 1183 193 1163 q 263 1216 236 1204 q 315 1228 290 1228 q 374 1219 350 1228 q 417 1199 399 1210 q 451 1180 436 1189 q 479 1171 465 1171 q 501 1180 490 1171 q 525 1199 511 1189 q 555 1218 539 1210 q 592 1226 571 1226 q 650 1204 628 1226 q 672 1125 672 1182 q 658 1072 672 1097 q 620 1028 644 1047 q 565 999 596 1010 q 501 989 535 989 q 446 998 468 989 q 408 1017 424 1007 q 380 1036 392 1028 q 356 1044 368 1044 m 667 -29 q 632 -28 650 -29 q 598 -20 614 -26 q 571 -2 582 -14 q 556 31 560 10 q 553 43 554 35 q 549 60 551 51 q 542 74 546 68 q 529 81 538 81 q 510 65 524 81 q 473 33 496 50 q 417 0 450 15 q 338 -15 383 -15 q 209 10 267 -15 q 111 81 151 36 q 49 185 71 125 q 28 314 28 246 q 53 474 28 406 q 127 588 79 543 q 242 656 175 633 q 390 678 308 678 q 456 669 432 678 q 494 650 479 661 q 512 642 507 640 q 517 647 517 644 q 508 699 517 681 q 482 727 499 718 q 442 738 465 736 q 390 739 419 739 q 291 728 338 739 q 192 717 244 717 q 155 724 174 717 q 121 743 136 731 q 95 773 106 756 q 85 811 85 790 q 118 900 85 865 q 200 955 151 935 q 303 982 249 975 q 399 989 357 989 q 594 954 518 989 q 715 857 671 919 q 777 707 760 794 q 794 514 794 619 q 794 307 794 410 q 789 100 794 204 q 757 6 786 42 q 667 -29 728 -29 m 508 457 q 476 478 497 468 q 431 488 454 488 q 322 443 357 488 q 286 335 286 399 q 317 254 286 288 q 401 221 349 221 q 460 233 435 221 q 503 266 486 246 q 528 311 519 286 q 536 361 536 336 q 530 422 536 401 q 508 457 524 442 z "},"":{"ha":835,"x_min":28,"x_max":794,"o":"m 169 1108 q 179 1152 169 1133 q 206 1183 189 1171 q 244 1203 222 1196 q 288 1210 265 1210 q 331 1203 310 1210 q 368 1183 351 1196 q 394 1151 385 1169 q 404 1108 404 1132 q 368 1034 404 1061 q 288 1007 332 1007 q 206 1033 242 1007 q 169 1108 169 1060 m 432 1108 q 442 1152 432 1133 q 468 1183 451 1171 q 506 1203 485 1196 q 550 1210 528 1210 q 593 1203 572 1210 q 631 1183 614 1196 q 657 1151 647 1169 q 667 1108 667 1132 q 631 1034 667 1061 q 550 1007 594 1007 q 468 1033 504 1007 q 432 1108 432 1060 m 667 -29 q 632 -28 650 -29 q 598 -20 614 -26 q 571 -2 582 -14 q 556 31 560 10 q 553 43 554 35 q 549 60 551 51 q 542 74 546 68 q 529 81 538 81 q 510 65 524 81 q 473 33 496 50 q 417 0 450 15 q 338 -15 383 -15 q 209 10 267 -15 q 111 81 151 36 q 49 185 71 125 q 28 314 28 246 q 53 474 28 406 q 127 588 79 543 q 242 656 175 633 q 390 678 308 678 q 456 669 432 678 q 494 650 479 661 q 512 642 507 640 q 517 647 517 644 q 508 699 517 681 q 482 727 499 718 q 442 738 465 736 q 390 739 419 739 q 291 728 338 739 q 192 717 244 717 q 155 724 174 717 q 121 743 136 731 q 95 773 106 756 q 85 811 85 790 q 118 900 85 865 q 200 955 151 935 q 303 982 249 975 q 399 989 357 989 q 594 954 518 989 q 715 857 671 919 q 777 707 760 794 q 794 514 794 619 q 794 307 794 410 q 789 100 794 204 q 757 6 786 42 q 667 -29 728 -29 m 508 457 q 476 478 497 468 q 431 488 454 488 q 322 443 357 488 q 286 335 286 399 q 317 254 286 288 q 401 221 349 221 q 460 233 435 221 q 503 266 486 246 q 528 311 519 286 q 536 361 536 336 q 530 422 536 401 q 508 457 524 442 z "},"":{"ha":835,"x_min":28,"x_max":794,"o":"m 667 -29 q 632 -28 650 -29 q 598 -20 614 -26 q 571 -2 582 -14 q 556 31 560 10 q 553 43 554 35 q 549 60 551 51 q 542 74 546 68 q 529 81 538 81 q 510 65 524 81 q 473 33 496 50 q 417 0 450 15 q 338 -15 383 -15 q 209 10 267 -15 q 111 81 151 36 q 49 185 71 125 q 28 314 28 246 q 53 474 28 406 q 127 588 79 543 q 242 656 175 633 q 390 678 308 678 q 456 669 432 678 q 494 650 479 661 q 512 642 507 640 q 517 647 517 644 q 508 699 517 681 q 482 727 499 718 q 442 738 465 736 q 390 739 419 739 q 291 728 338 739 q 192 717 244 717 q 155 724 174 717 q 121 743 136 731 q 95 773 106 756 q 85 811 85 790 q 110 890 85 858 q 173 942 135 922 q 257 972 211 963 q 344 986 303 982 q 251 1028 286 996 q 217 1122 217 1060 q 232 1190 217 1163 q 275 1235 247 1218 q 340 1260 303 1253 q 422 1268 378 1268 q 501 1261 465 1268 q 564 1238 538 1254 q 605 1196 590 1222 q 619 1132 619 1169 q 578 1031 619 1065 q 467 986 536 996 q 627 938 564 976 q 728 838 690 900 q 780 694 765 776 q 794 514 794 613 q 794 307 794 410 q 789 100 794 204 q 757 6 786 42 q 667 -29 728 -29 m 361 1125 q 378 1095 361 1106 q 415 1085 396 1085 q 455 1096 435 1085 q 475 1126 475 1107 q 457 1156 475 1146 q 419 1165 439 1165 q 381 1155 400 1165 q 361 1125 361 1144 m 508 457 q 476 478 497 468 q 431 488 454 488 q 322 443 357 488 q 286 335 286 399 q 317 254 286 288 q 401 221 349 221 q 460 233 435 221 q 503 266 486 246 q 528 311 519 286 q 536 361 536 336 q 530 422 536 401 q 508 457 524 442 z "},"":{"ha":1297,"x_min":28,"x_max":1265,"o":"m 667 -29 q 632 -28 650 -29 q 598 -20 614 -26 q 571 -2 582 -14 q 556 31 560 10 q 553 43 554 35 q 549 60 551 51 q 542 74 546 68 q 529 81 538 81 q 510 65 524 81 q 473 33 496 50 q 417 0 450 15 q 338 -15 383 -15 q 209 10 267 -15 q 111 81 151 36 q 49 185 71 125 q 28 314 28 246 q 53 474 28 406 q 127 588 79 543 q 242 656 175 633 q 390 678 308 678 q 456 669 432 678 q 494 650 479 661 q 512 642 507 640 q 517 647 517 644 q 508 699 517 681 q 482 727 499 718 q 442 738 465 736 q 390 739 419 739 q 291 728 338 739 q 192 717 244 717 q 155 724 174 717 q 121 743 136 731 q 95 773 106 756 q 85 811 85 790 q 118 900 85 865 q 200 955 151 935 q 303 982 249 975 q 399 989 357 989 q 558 967 492 989 q 671 906 625 946 q 767 967 711 944 q 897 989 822 989 q 1033 968 968 989 q 1146 907 1097 947 q 1224 807 1194 867 q 1253 669 1253 747 q 1228 529 1253 589 q 1161 430 1203 469 q 1063 371 1119 390 q 944 351 1007 351 q 883 357 908 351 q 836 369 858 363 q 816 369 822 375 q 814 331 810 364 q 824 291 817 310 q 848 258 832 272 q 890 236 864 244 q 958 228 917 228 q 1042 240 1013 228 q 1091 267 1071 253 q 1130 294 1111 282 q 1183 306 1149 306 q 1244 278 1224 306 q 1265 214 1265 250 q 1241 116 1265 158 q 1173 45 1217 74 q 1069 2 1129 17 q 935 -12 1008 -12 q 767 19 839 -12 q 667 -29 736 -29 m 804 651 q 815 605 804 625 q 840 571 825 585 q 873 550 856 557 q 903 543 890 543 q 948 554 928 543 q 983 584 968 565 q 1005 626 997 603 q 1013 671 1013 649 q 985 740 1013 710 q 899 771 957 771 q 828 738 851 771 q 804 651 804 704 m 508 457 q 476 478 497 468 q 431 488 454 488 q 322 443 357 488 q 286 335 286 399 q 317 254 286 288 q 401 221 349 221 q 460 233 435 221 q 503 266 486 246 q 528 311 519 286 q 536 361 536 336 q 530 422 536 401 q 508 457 524 442 z "},"":{"ha":788,"x_min":28,"x_max":765,"o":"m 458 229 q 527 240 503 229 q 570 263 551 250 q 610 285 589 275 q 668 296 631 296 q 740 260 714 296 q 765 176 765 224 q 731 90 765 125 q 647 32 697 54 q 542 -1 597 10 q 444 -14 486 -12 q 469 -31 454 -24 q 499 -49 485 -37 q 524 -78 514 -60 q 535 -131 535 -97 q 520 -195 535 -165 q 481 -247 506 -225 q 424 -282 456 -269 q 360 -294 393 -294 q 323 -289 342 -294 q 289 -272 304 -283 q 264 -245 274 -261 q 254 -208 254 -229 q 265 -170 254 -182 q 291 -153 275 -158 q 327 -147 307 -147 q 367 -142 347 -146 q 371 -137 368 -142 q 374 -131 374 -132 q 372 -124 374 -129 q 369 -118 371 -119 q 338 -98 356 -104 q 306 -86 321 -92 q 281 -73 292 -81 q 271 -49 271 -65 q 274 -21 271 -35 q 281 6 276 -7 q 161 69 210 26 q 83 173 113 113 q 40 310 53 233 q 28 474 28 386 q 46 669 28 574 q 108 839 64 765 q 225 958 151 913 q 408 1003 299 1003 q 552 978 489 1003 q 659 906 615 953 q 726 793 703 858 q 749 646 749 728 q 743 585 749 615 q 724 531 738 556 q 686 492 710 507 q 626 476 663 476 q 565 492 585 476 q 538 532 546 507 q 528 591 529 557 q 522 663 526 625 q 515 705 519 685 q 501 741 510 725 q 477 767 492 757 q 440 776 463 776 q 376 748 401 776 q 335 678 350 719 q 313 590 319 636 q 306 511 306 544 q 306 411 306 461 q 318 320 306 361 q 363 254 331 279 q 458 229 394 229 z "},"":{"ha":796,"x_min":36,"x_max":764,"o":"m 246 1144 q 256 1180 246 1164 q 280 1207 265 1196 q 313 1224 294 1218 q 347 1231 331 1231 q 406 1210 371 1231 q 474 1161 442 1190 q 528 1099 506 1132 q 551 1043 551 1067 q 535 999 551 1017 q 492 981 518 981 q 430 998 471 981 q 348 1041 389 1015 q 276 1095 307 1067 q 246 1144 246 1124 m 335 369 q 315 369 321 375 q 313 331 308 364 q 323 291 315 310 q 347 258 331 272 q 389 236 363 244 q 457 228 415 228 q 540 240 511 228 q 590 267 569 253 q 628 294 610 282 q 682 306 647 306 q 743 278 722 306 q 764 214 764 250 q 740 116 764 158 q 672 45 715 74 q 567 2 628 17 q 433 -12 507 -12 q 253 26 328 -12 q 130 128 178 64 q 59 278 82 193 q 36 460 36 364 q 51 647 36 553 q 105 817 65 742 q 215 941 144 893 q 396 989 285 989 q 531 968 467 989 q 644 907 596 947 q 722 807 693 867 q 751 669 751 747 q 726 529 751 589 q 660 430 701 469 q 562 371 618 390 q 443 351 506 351 q 382 357 407 351 q 335 369 357 363 m 303 651 q 313 605 303 625 q 339 571 324 585 q 372 550 354 557 q 401 543 389 543 q 447 554 426 543 q 481 584 467 565 q 503 626 496 603 q 511 671 511 649 q 483 740 511 710 q 397 771 456 771 q 326 738 350 771 q 303 651 303 704 z "},"":{"ha":796,"x_min":36,"x_max":764,"o":"m 460 1060 q 426 1039 446 1051 q 383 1016 406 1026 q 340 998 361 1006 q 301 990 318 990 q 259 1009 275 990 q 243 1053 243 1028 q 267 1108 243 1078 q 323 1167 290 1139 q 391 1216 356 1196 q 449 1240 426 1236 q 489 1238 469 1243 q 523 1222 508 1233 q 546 1192 538 1210 q 551 1151 554 1174 q 519 1099 549 1119 q 460 1060 490 1079 m 335 369 q 315 369 321 375 q 313 331 308 364 q 323 291 315 310 q 347 258 331 272 q 389 236 363 244 q 457 228 415 228 q 540 240 511 228 q 590 267 569 253 q 628 294 610 282 q 682 306 647 306 q 743 278 722 306 q 764 214 764 250 q 740 116 764 158 q 672 45 715 74 q 567 2 628 17 q 433 -12 507 -12 q 253 26 328 -12 q 130 128 178 64 q 59 278 82 193 q 36 460 36 364 q 51 647 36 553 q 105 817 65 742 q 215 941 144 893 q 396 989 285 989 q 531 968 467 989 q 644 907 596 947 q 722 807 693 867 q 751 669 751 747 q 726 529 751 589 q 660 430 701 469 q 562 371 618 390 q 443 351 506 351 q 382 357 407 351 q 335 369 357 363 m 303 651 q 313 605 303 625 q 339 571 324 585 q 372 550 354 557 q 401 543 389 543 q 447 554 426 543 q 481 584 467 565 q 503 626 496 603 q 511 671 511 649 q 483 740 511 710 q 397 771 456 771 q 326 738 350 771 q 303 651 303 704 z "},"":{"ha":796,"x_min":36,"x_max":764,"o":"m 542 1003 q 501 1017 522 1003 q 460 1050 479 1032 q 426 1083 442 1068 q 404 1097 411 1097 q 382 1082 397 1097 q 347 1049 367 1067 q 303 1015 326 1031 q 256 1000 279 1000 q 201 1020 226 1000 q 176 1074 176 1040 q 204 1115 176 1088 q 269 1170 232 1143 q 345 1218 307 1197 q 403 1239 383 1239 q 458 1221 422 1239 q 531 1177 494 1203 q 593 1124 567 1151 q 619 1078 619 1097 q 597 1024 619 1044 q 542 1003 574 1003 m 335 369 q 315 369 321 375 q 313 331 308 364 q 323 291 315 310 q 347 258 331 272 q 389 236 363 244 q 457 228 415 228 q 540 240 511 228 q 590 267 569 253 q 628 294 610 282 q 682 306 647 306 q 743 278 722 306 q 764 214 764 250 q 740 116 764 158 q 672 45 715 74 q 567 2 628 17 q 433 -12 507 -12 q 253 26 328 -12 q 130 128 178 64 q 59 278 82 193 q 36 460 36 364 q 51 647 36 553 q 105 817 65 742 q 215 941 144 893 q 396 989 285 989 q 531 968 467 989 q 644 907 596 947 q 722 807 693 867 q 751 669 751 747 q 726 529 751 589 q 660 430 701 469 q 562 371 618 390 q 443 351 506 351 q 382 357 407 351 q 335 369 357 363 m 303 651 q 313 605 303 625 q 339 571 324 585 q 372 550 354 557 q 401 543 389 543 q 447 554 426 543 q 481 584 467 565 q 503 626 496 603 q 511 671 511 649 q 483 740 511 710 q 397 771 456 771 q 326 738 350 771 q 303 651 303 704 z "},"":{"ha":796,"x_min":36,"x_max":764,"o":"m 150 1108 q 160 1152 150 1133 q 186 1183 169 1171 q 224 1203 203 1196 q 268 1210 246 1210 q 311 1203 290 1210 q 349 1183 332 1196 q 375 1151 365 1169 q 385 1108 385 1132 q 349 1034 385 1061 q 268 1007 313 1007 q 186 1033 222 1007 q 150 1108 150 1060 m 413 1108 q 422 1152 413 1133 q 449 1183 432 1171 q 487 1203 465 1196 q 531 1210 508 1210 q 574 1203 553 1210 q 611 1183 594 1196 q 638 1151 628 1169 q 647 1108 647 1132 q 611 1034 647 1061 q 531 1007 575 1007 q 449 1033 485 1007 q 413 1108 413 1060 m 335 369 q 315 369 321 375 q 313 331 308 364 q 323 291 315 310 q 347 258 331 272 q 389 236 363 244 q 457 228 415 228 q 540 240 511 228 q 590 267 569 253 q 628 294 610 282 q 682 306 647 306 q 743 278 722 306 q 764 214 764 250 q 740 116 764 158 q 672 45 715 74 q 567 2 628 17 q 433 -12 507 -12 q 253 26 328 -12 q 130 128 178 64 q 59 278 82 193 q 36 460 36 364 q 51 647 36 553 q 105 817 65 742 q 215 941 144 893 q 396 989 285 989 q 531 968 467 989 q 644 907 596 947 q 722 807 693 867 q 751 669 751 747 q 726 529 751 589 q 660 430 701 469 q 562 371 618 390 q 443 351 506 351 q 382 357 407 351 q 335 369 357 363 m 303 651 q 313 605 303 625 q 339 571 324 585 q 372 550 354 557 q 401 543 389 543 q 447 554 426 543 q 481 584 467 565 q 503 626 496 603 q 511 671 511 649 q 483 740 511 710 q 397 771 456 771 q 326 738 350 771 q 303 651 303 704 z "},"":{"ha":336,"x_min":15,"x_max":321,"o":"m 15 1144 q 25 1180 15 1164 q 49 1207 35 1196 q 82 1224 64 1218 q 117 1231 100 1231 q 176 1210 140 1231 q 243 1161 211 1190 q 298 1099 275 1132 q 321 1043 321 1067 q 304 999 321 1017 q 261 981 288 981 q 199 998 240 981 q 117 1041 158 1015 q 46 1095 76 1067 q 15 1144 15 1124 m 38 829 q 49 894 38 868 q 78 935 60 919 q 119 958 96 950 q 168 967 143 965 q 217 965 193 968 q 259 949 240 961 q 290 913 278 936 q 301 854 301 890 l 301 115 q 294 58 301 86 q 270 7 286 29 q 230 -28 254 -15 q 172 -42 206 -42 q 99 -31 126 -42 q 58 0 72 -19 q 39 47 43 19 q 35 108 35 75 q 35 199 35 142 q 35 324 35 256 q 36 469 36 393 q 37 613 36 544 q 38 739 38 682 q 38 829 38 796 z "},"":{"ha":336,"x_min":14,"x_max":325,"o":"m 231 1060 q 197 1039 217 1051 q 154 1016 176 1026 q 110 998 132 1006 q 72 990 89 990 q 30 1009 46 990 q 14 1053 14 1028 q 38 1108 14 1078 q 94 1167 61 1139 q 162 1216 126 1196 q 219 1240 197 1236 q 260 1238 240 1243 q 294 1222 279 1233 q 317 1192 308 1210 q 322 1151 325 1174 q 290 1099 319 1119 q 231 1060 261 1079 m 38 829 q 49 894 38 868 q 78 935 60 919 q 119 958 96 950 q 168 967 143 965 q 217 965 193 968 q 259 949 240 961 q 290 913 278 936 q 301 854 301 890 l 301 115 q 294 58 301 86 q 270 7 286 29 q 230 -28 254 -15 q 172 -42 206 -42 q 99 -31 126 -42 q 58 0 72 -19 q 39 47 43 19 q 35 108 35 75 q 35 199 35 142 q 35 324 35 256 q 36 469 36 393 q 37 613 36 544 q 38 739 38 682 q 38 829 38 796 z "},"":{"ha":336,"x_min":-54,"x_max":389,"o":"m 311 1003 q 270 1017 292 1003 q 230 1050 249 1032 q 196 1083 211 1068 q 174 1097 181 1097 q 151 1082 167 1097 q 116 1049 136 1067 q 72 1015 96 1031 q 25 1000 49 1000 q -29 1020 -4 1000 q -54 1074 -54 1040 q -26 1115 -54 1088 q 39 1170 1 1143 q 115 1218 76 1197 q 172 1239 153 1239 q 228 1221 192 1239 q 300 1177 264 1203 q 363 1124 336 1151 q 389 1078 389 1097 q 366 1024 389 1044 q 311 1003 343 1003 m 38 829 q 49 894 38 868 q 78 935 60 919 q 119 958 96 950 q 168 967 143 965 q 217 965 193 968 q 259 949 240 961 q 290 913 278 936 q 301 854 301 890 l 301 115 q 294 58 301 86 q 270 7 286 29 q 230 -28 254 -15 q 172 -42 206 -42 q 99 -31 126 -42 q 58 0 72 -19 q 39 47 43 19 q 35 108 35 75 q 35 199 35 142 q 35 324 35 256 q 36 469 36 393 q 37 613 36 544 q 38 739 38 682 q 38 829 38 796 z "},"":{"ha":336,"x_min":-81,"x_max":417,"o":"m -81 1108 q -71 1152 -81 1133 q -44 1183 -61 1171 q -6 1203 -28 1196 q 38 1210 15 1210 q 81 1203 60 1210 q 118 1183 101 1196 q 144 1151 135 1169 q 154 1108 154 1132 q 118 1034 154 1061 q 38 1007 82 1007 q -44 1033 -8 1007 q -81 1108 -81 1060 m 182 1108 q 192 1152 182 1133 q 218 1183 201 1171 q 256 1203 235 1196 q 300 1210 278 1210 q 343 1203 322 1210 q 381 1183 364 1196 q 407 1151 397 1169 q 417 1108 417 1132 q 381 1034 417 1061 q 300 1007 344 1007 q 218 1033 254 1007 q 182 1108 182 1060 m 38 829 q 49 894 38 868 q 78 935 60 919 q 119 958 96 950 q 168 967 143 965 q 217 965 193 968 q 259 949 240 961 q 290 913 278 936 q 301 854 301 890 l 301 115 q 294 58 301 86 q 270 7 286 29 q 230 -28 254 -15 q 172 -42 206 -42 q 99 -31 126 -42 q 58 0 72 -19 q 39 47 43 19 q 35 108 35 75 q 35 199 35 142 q 35 324 35 256 q 36 469 36 393 q 37 613 36 544 q 38 739 38 682 q 38 829 38 796 z "},"":{"ha":801,"x_min":24,"x_max":776,"o":"m 24 322 q 66 497 24 428 q 176 600 108 567 q 328 632 243 633 q 501 593 414 631 q 511 597 510 590 q 508 614 513 603 q 492 651 504 629 q 468 692 481 672 q 443 723 456 711 q 424 732 431 735 q 372 708 400 722 q 317 685 344 694 q 266 672 290 675 q 225 678 242 668 q 201 735 201 692 q 217 760 201 747 q 250 786 233 774 q 278 808 267 799 q 279 822 289 818 q 233 836 261 832 q 178 847 204 840 q 133 867 151 854 q 114 910 114 881 q 130 958 114 940 q 169 983 146 975 q 219 993 192 992 q 269 994 247 994 q 385 981 332 994 q 496 940 439 967 q 514 936 504 936 q 556 949 533 936 q 607 961 579 961 q 660 945 640 961 q 679 907 679 929 q 674 890 679 896 q 663 876 669 883 l 650 865 q 638 852 643 858 q 633 835 633 846 q 643 815 633 828 q 657 794 653 801 q 741 617 706 710 q 776 426 776 525 q 755 258 776 339 q 689 116 733 178 q 574 17 644 54 q 407 -19 504 -19 q 266 6 335 -19 q 143 78 197 32 q 56 186 89 124 q 24 322 24 249 m 542 397 q 526 430 542 415 q 490 454 511 444 q 444 469 468 464 q 400 474 419 474 q 343 460 368 474 q 301 426 318 447 q 274 376 283 404 q 265 319 265 349 q 274 264 265 292 q 298 213 282 236 q 338 176 314 190 q 392 163 361 163 q 465 185 436 163 q 510 240 493 207 q 535 313 528 274 q 542 385 542 351 l 542 397 z "},"":{"ha":788,"x_min":38,"x_max":757,"o":"m 411 757 q 324 649 357 757 q 292 343 292 542 q 294 255 292 299 q 297 167 297 211 q 295 113 297 142 q 284 58 293 83 q 256 15 275 32 q 203 -1 236 -1 q 128 20 158 -1 q 81 77 99 42 q 53 157 63 113 q 41 247 44 201 q 38 333 38 292 q 39 404 39 375 l 40 593 q 40 658 40 619 q 43 741 40 697 q 53 828 46 785 q 76 906 60 871 q 118 962 92 940 q 185 983 144 983 q 243 967 224 983 q 272 931 263 951 q 288 895 282 911 q 307 879 294 879 q 324 895 315 879 q 347 931 332 911 q 389 969 363 951 q 460 990 415 986 q 413 1001 432 993 q 378 1019 393 1010 q 353 1037 364 1029 q 332 1044 343 1044 q 305 1037 315 1044 q 285 1021 294 1029 q 264 1005 275 1013 q 238 997 253 997 q 170 1019 200 997 q 140 1079 140 1040 q 155 1135 140 1108 q 191 1183 169 1163 q 240 1216 213 1204 q 292 1228 267 1228 q 351 1219 326 1228 q 394 1199 375 1210 q 427 1180 413 1189 q 456 1171 442 1171 q 477 1180 467 1171 q 501 1199 488 1189 q 531 1218 515 1210 q 568 1226 547 1226 q 626 1204 604 1226 q 649 1125 649 1182 q 636 1076 649 1099 q 603 1035 624 1053 q 555 1005 582 1017 q 497 990 528 993 q 647 940 592 986 q 725 799 701 894 q 738 727 732 769 q 749 640 744 685 q 755 553 753 596 q 757 478 757 510 q 756 409 757 443 q 754 340 754 375 q 753 248 754 306 q 742 135 753 190 q 706 40 732 81 q 629 0 681 0 q 575 20 597 0 q 538 72 553 40 q 516 144 524 104 q 505 222 508 183 q 501 296 501 261 q 500 353 500 331 q 503 467 500 411 q 506 582 506 524 q 503 648 506 617 q 491 703 500 679 q 463 742 482 728 q 411 757 444 757 z "},"":{"ha":854,"x_min":32,"x_max":822,"o":"m 822 503 q 807 304 822 399 q 748 139 792 210 q 627 26 704 68 q 425 -15 550 -15 q 217 23 294 -15 q 98 128 139 61 q 44 286 57 194 q 32 485 32 378 q 37 603 32 543 q 56 719 42 663 q 98 825 71 775 q 169 913 125 875 q 279 972 214 950 q 435 993 344 993 q 456 993 446 993 q 475 992 465 993 q 411 1022 446 1003 q 347 1062 376 1040 q 296 1106 317 1083 q 275 1144 275 1128 q 285 1180 275 1164 q 309 1207 294 1196 q 342 1224 324 1218 q 376 1231 360 1231 q 435 1210 400 1231 q 503 1161 471 1190 q 558 1099 535 1132 q 581 1043 581 1067 q 569 1006 581 1022 q 540 983 558 990 q 683 922 628 967 q 769 813 738 878 q 811 669 800 749 q 822 503 822 590 m 425 200 q 494 225 468 200 q 536 292 521 250 q 557 392 551 335 q 563 515 563 450 q 558 628 563 579 q 541 710 554 676 q 503 760 528 743 q 440 776 479 776 q 365 757 394 776 q 321 700 336 738 q 300 609 306 663 q 294 489 294 556 q 299 377 294 429 q 317 285 303 325 q 356 223 331 246 q 425 200 382 200 z "},"":{"ha":854,"x_min":32,"x_max":822,"o":"m 489 1060 q 455 1039 475 1051 q 413 1016 435 1026 q 369 998 390 1006 q 331 990 347 990 q 288 1009 304 990 q 272 1053 272 1028 q 296 1108 272 1078 q 352 1167 319 1139 q 420 1216 385 1196 q 478 1240 456 1236 q 518 1238 499 1243 q 552 1222 538 1233 q 575 1192 567 1210 q 581 1151 583 1174 q 549 1099 578 1119 q 489 1060 519 1079 m 822 503 q 807 304 822 399 q 748 139 792 210 q 627 26 704 68 q 425 -15 550 -15 q 217 23 294 -15 q 98 128 139 61 q 44 286 57 194 q 32 485 32 378 q 37 603 32 543 q 56 719 42 663 q 98 825 71 775 q 169 913 125 875 q 279 972 214 950 q 435 993 344 993 q 633 953 557 993 q 751 847 708 914 q 808 690 793 779 q 822 503 822 601 m 425 200 q 494 225 468 200 q 536 292 521 250 q 557 392 551 335 q 563 515 563 450 q 558 628 563 579 q 541 710 554 676 q 503 760 528 743 q 440 776 479 776 q 365 757 394 776 q 321 700 336 738 q 300 609 306 663 q 294 489 294 556 q 299 377 294 429 q 317 285 303 325 q 356 223 331 246 q 425 200 382 200 z "},"":{"ha":854,"x_min":32,"x_max":822,"o":"m 571 1003 q 530 1017 551 1003 q 490 1050 508 1032 q 456 1083 471 1068 q 433 1097 440 1097 q 411 1082 426 1097 q 376 1049 396 1067 q 332 1015 356 1031 q 285 1000 308 1000 q 231 1020 256 1000 q 206 1074 206 1040 q 233 1115 206 1088 q 299 1170 261 1143 q 374 1218 336 1197 q 432 1239 413 1239 q 488 1221 451 1239 q 560 1177 524 1203 q 622 1124 596 1151 q 649 1078 649 1097 q 626 1024 649 1044 q 571 1003 603 1003 m 822 503 q 807 304 822 399 q 748 139 792 210 q 627 26 704 68 q 425 -15 550 -15 q 217 23 294 -15 q 98 128 139 61 q 44 286 57 194 q 32 485 32 378 q 37 603 32 543 q 56 719 42 663 q 98 825 71 775 q 169 913 125 875 q 279 972 214 950 q 435 993 344 993 q 633 953 557 993 q 751 847 708 914 q 808 690 793 779 q 822 503 822 601 m 425 200 q 494 225 468 200 q 536 292 521 250 q 557 392 551 335 q 563 515 563 450 q 558 628 563 579 q 541 710 554 676 q 503 760 528 743 q 440 776 479 776 q 365 757 394 776 q 321 700 336 738 q 300 609 306 663 q 294 489 294 556 q 299 377 294 429 q 317 285 303 325 q 356 223 331 246 q 425 200 382 200 z "},"":{"ha":854,"x_min":32,"x_max":822,"o":"m 822 503 q 807 304 822 399 q 748 139 792 210 q 627 26 704 68 q 425 -15 550 -15 q 217 23 294 -15 q 98 128 139 61 q 44 286 57 194 q 32 485 32 378 q 37 603 32 543 q 56 719 42 663 q 98 825 71 775 q 169 913 125 875 q 279 972 214 950 q 435 993 344 993 q 457 993 446 993 q 479 992 468 993 q 438 1005 456 996 q 408 1022 421 1014 q 386 1038 396 1031 q 365 1044 376 1044 q 338 1037 349 1044 q 318 1021 328 1029 q 297 1005 308 1013 q 271 997 286 997 q 203 1019 233 997 q 174 1079 174 1040 q 188 1135 174 1108 q 224 1183 203 1163 q 273 1216 246 1204 q 325 1228 300 1228 q 384 1219 360 1228 q 427 1199 408 1210 q 460 1180 446 1189 q 489 1171 475 1171 q 510 1180 500 1171 q 535 1199 521 1189 q 565 1218 549 1210 q 601 1226 581 1226 q 660 1204 638 1226 q 682 1125 682 1182 q 668 1072 682 1097 q 630 1028 654 1047 q 575 999 606 1010 q 511 989 544 989 l 507 989 q 667 933 606 976 q 763 825 729 890 q 810 677 797 760 q 822 503 822 594 m 425 200 q 494 225 468 200 q 536 292 521 250 q 557 392 551 335 q 563 515 563 450 q 558 628 563 579 q 541 710 554 676 q 503 760 528 743 q 440 776 479 776 q 365 757 394 776 q 321 700 336 738 q 300 609 306 663 q 294 489 294 556 q 299 377 294 429 q 317 285 303 325 q 356 223 331 246 q 425 200 382 200 z "},"":{"ha":854,"x_min":32,"x_max":822,"o":"m 179 1108 q 189 1152 179 1133 q 215 1183 199 1171 q 253 1203 232 1196 q 297 1210 275 1210 q 340 1203 319 1210 q 378 1183 361 1196 q 404 1151 394 1169 q 414 1108 414 1132 q 378 1034 414 1061 q 297 1007 342 1007 q 215 1033 251 1007 q 179 1108 179 1060 m 442 1108 q 451 1152 442 1133 q 478 1183 461 1171 q 516 1203 494 1196 q 560 1210 538 1210 q 603 1203 582 1210 q 640 1183 624 1196 q 667 1151 657 1169 q 676 1108 676 1132 q 640 1034 676 1061 q 560 1007 604 1007 q 478 1033 514 1007 q 442 1108 442 1060 m 822 503 q 807 304 822 399 q 748 139 792 210 q 627 26 704 68 q 425 -15 550 -15 q 217 23 294 -15 q 98 128 139 61 q 44 286 57 194 q 32 485 32 378 q 37 603 32 543 q 56 719 42 663 q 98 825 71 775 q 169 913 125 875 q 279 972 214 950 q 435 993 344 993 q 633 953 557 993 q 751 847 708 914 q 808 690 793 779 q 822 503 822 601 m 425 200 q 494 225 468 200 q 536 292 521 250 q 557 392 551 335 q 563 515 563 450 q 558 628 563 579 q 541 710 554 676 q 503 760 528 743 q 440 776 479 776 q 365 757 394 776 q 321 700 336 738 q 300 609 306 663 q 294 489 294 556 q 299 377 294 429 q 317 285 303 325 q 356 223 331 246 q 425 200 382 200 z "},"":{"ha":685,"x_min":53,"x_max":642,"o":"m 478 718 q 465 669 478 690 q 432 635 451 649 q 388 614 413 621 q 343 607 364 607 q 242 635 282 607 q 203 718 203 663 q 215 768 203 746 q 246 805 226 790 q 290 827 265 819 q 340 835 314 835 q 391 827 367 835 q 435 805 415 819 q 466 768 454 790 q 478 718 478 746 m 53 485 q 72 547 53 518 q 128 576 92 576 l 547 572 q 617 548 592 572 q 642 475 642 524 q 627 429 642 446 q 586 404 613 413 q 522 393 560 396 q 439 390 485 390 l 367 390 q 309 391 350 390 q 223 394 268 392 q 140 399 178 396 q 90 410 101 403 q 61 442 69 422 q 53 485 53 461 m 203 244 q 215 295 203 274 q 245 331 226 317 q 289 353 264 346 q 340 361 314 361 q 391 353 367 361 q 435 331 415 346 q 466 294 454 317 q 478 244 478 272 q 466 194 478 215 q 435 158 454 172 q 391 135 415 143 q 340 128 367 128 q 290 135 314 128 q 246 158 265 143 q 215 194 226 172 q 203 244 203 215 z "},"":{"ha":854,"x_min":32,"x_max":822,"o":"m 822 503 q 807 304 822 399 q 748 139 792 210 q 627 26 704 68 q 425 -15 550 -15 q 315 -7 365 -15 q 270 -57 296 -36 q 214 -78 244 -78 q 142 -47 164 -78 q 121 29 121 -17 q 128 88 121 56 q 78 164 97 121 q 49 258 60 207 q 35 365 39 308 q 32 485 32 422 q 37 603 32 543 q 56 719 42 663 q 98 825 71 775 q 169 913 125 875 q 279 972 214 950 q 435 993 344 993 q 481 992 458 993 q 522 988 503 990 q 531 1003 526 994 q 540 1018 536 1011 q 585 1057 556 1044 q 644 1069 614 1069 q 711 1042 688 1069 q 735 974 735 1015 q 718 889 735 942 q 801 720 781 821 q 822 503 822 619 m 294 506 q 317 553 306 529 q 339 603 328 578 q 374 683 354 639 q 415 775 394 728 q 355 749 378 769 q 319 694 332 728 q 300 612 306 660 q 294 506 294 564 m 425 200 q 494 224 468 200 q 536 292 521 249 q 557 392 551 335 q 563 513 563 449 q 534 451 547 478 q 511 404 521 424 q 465 302 488 353 q 421 200 443 251 l 425 200 z "},"":{"ha":819,"x_min":36,"x_max":781,"o":"m 257 1144 q 267 1180 257 1164 q 291 1207 276 1196 q 324 1224 306 1218 q 358 1231 342 1231 q 417 1210 382 1231 q 485 1161 453 1190 q 540 1099 517 1132 q 563 1043 563 1067 q 546 999 563 1017 q 503 981 529 981 q 441 998 482 981 q 359 1041 400 1015 q 288 1095 318 1067 q 257 1144 257 1124 m 668 -19 q 622 -10 642 -19 q 588 10 603 -1 q 562 30 572 21 q 544 39 551 39 q 528 27 535 39 q 504 2 521 15 q 453 -23 488 -11 q 353 -35 418 -35 q 196 2 257 -35 q 99 99 135 39 q 50 238 64 160 q 36 399 36 315 q 37 527 36 478 q 38 606 38 576 q 38 652 38 636 q 39 681 39 668 q 42 772 39 721 q 58 870 46 824 q 96 949 71 917 q 163 981 121 981 q 235 957 208 981 q 276 898 263 933 q 294 822 290 863 q 299 747 299 782 q 296 603 299 675 q 293 458 293 531 q 297 363 293 406 q 310 290 300 321 q 341 244 321 260 q 394 228 361 228 q 445 247 424 228 q 481 298 467 267 q 503 368 494 329 q 517 445 513 407 q 522 517 521 483 q 524 569 524 550 q 519 710 524 640 q 515 850 515 779 q 548 951 515 917 q 633 986 581 986 q 715 962 686 986 q 759 901 744 938 q 777 823 774 864 q 781 749 781 782 l 778 185 q 774 119 778 154 q 757 53 769 83 q 723 1 744 22 q 668 -19 701 -19 z "},"":{"ha":819,"x_min":36,"x_max":781,"o":"m 472 1060 q 438 1039 458 1051 q 396 1016 418 1026 q 352 998 374 1006 q 314 990 331 990 q 272 1009 288 990 q 256 1053 256 1028 q 279 1108 256 1078 q 335 1167 303 1139 q 403 1216 368 1196 q 461 1240 439 1236 q 501 1238 482 1243 q 535 1222 521 1233 q 558 1192 550 1210 q 564 1151 567 1174 q 532 1099 561 1119 q 472 1060 503 1079 m 668 -19 q 622 -10 642 -19 q 588 10 603 -1 q 562 30 572 21 q 544 39 551 39 q 528 27 535 39 q 504 2 521 15 q 453 -23 488 -11 q 353 -35 418 -35 q 196 2 257 -35 q 99 99 135 39 q 50 238 64 160 q 36 399 36 315 q 37 527 36 478 q 38 606 38 576 q 38 652 38 636 q 39 681 39 668 q 42 772 39 721 q 58 870 46 824 q 96 949 71 917 q 163 981 121 981 q 235 957 208 981 q 276 898 263 933 q 294 822 290 863 q 299 747 299 782 q 296 603 299 675 q 293 458 293 531 q 297 363 293 406 q 310 290 300 321 q 341 244 321 260 q 394 228 361 228 q 445 247 424 228 q 481 298 467 267 q 503 368 494 329 q 517 445 513 407 q 522 517 521 483 q 524 569 524 550 q 519 710 524 640 q 515 850 515 779 q 548 951 515 917 q 633 986 581 986 q 715 962 686 986 q 759 901 744 938 q 777 823 774 864 q 781 749 781 782 l 778 185 q 774 119 778 154 q 757 53 769 83 q 723 1 744 22 q 668 -19 701 -19 z "},"":{"ha":819,"x_min":36,"x_max":781,"o":"m 554 1003 q 513 1017 535 1003 q 473 1050 492 1032 q 439 1083 454 1068 q 417 1097 424 1097 q 394 1082 410 1097 q 359 1049 379 1067 q 315 1015 339 1031 q 268 1000 292 1000 q 214 1020 239 1000 q 189 1074 189 1040 q 217 1115 189 1088 q 282 1170 244 1143 q 358 1218 319 1197 q 415 1239 396 1239 q 471 1221 435 1239 q 543 1177 507 1203 q 606 1124 579 1151 q 632 1078 632 1097 q 609 1024 632 1044 q 554 1003 586 1003 m 668 -19 q 622 -10 642 -19 q 588 10 603 -1 q 562 30 572 21 q 544 39 551 39 q 528 27 535 39 q 504 2 521 15 q 453 -23 488 -11 q 353 -35 418 -35 q 196 2 257 -35 q 99 99 135 39 q 50 238 64 160 q 36 399 36 315 q 37 527 36 478 q 38 606 38 576 q 38 652 38 636 q 39 681 39 668 q 42 772 39 721 q 58 870 46 824 q 96 949 71 917 q 163 981 121 981 q 235 957 208 981 q 276 898 263 933 q 294 822 290 863 q 299 747 299 782 q 296 603 299 675 q 293 458 293 531 q 297 363 293 406 q 310 290 300 321 q 341 244 321 260 q 394 228 361 228 q 445 247 424 228 q 481 298 467 267 q 503 368 494 329 q 517 445 513 407 q 522 517 521 483 q 524 569 524 550 q 519 710 524 640 q 515 850 515 779 q 548 951 515 917 q 633 986 581 986 q 715 962 686 986 q 759 901 744 938 q 777 823 774 864 q 781 749 781 782 l 778 185 q 774 119 778 154 q 757 53 769 83 q 723 1 744 22 q 668 -19 701 -19 z "},"":{"ha":819,"x_min":36,"x_max":781,"o":"m 161 1108 q 171 1152 161 1133 q 197 1183 181 1171 q 235 1203 214 1196 q 279 1210 257 1210 q 322 1203 301 1210 q 360 1183 343 1196 q 386 1151 376 1169 q 396 1108 396 1132 q 360 1034 396 1061 q 279 1007 324 1007 q 197 1033 233 1007 q 161 1108 161 1060 m 424 1108 q 433 1152 424 1133 q 460 1183 443 1171 q 498 1203 476 1196 q 542 1210 519 1210 q 585 1203 564 1210 q 622 1183 606 1196 q 649 1151 639 1169 q 658 1108 658 1132 q 622 1034 658 1061 q 542 1007 586 1007 q 460 1033 496 1007 q 424 1108 424 1060 m 668 -19 q 622 -10 642 -19 q 588 10 603 -1 q 562 30 572 21 q 544 39 551 39 q 528 27 535 39 q 504 2 521 15 q 453 -23 488 -11 q 353 -35 418 -35 q 196 2 257 -35 q 99 99 135 39 q 50 238 64 160 q 36 399 36 315 q 37 527 36 478 q 38 606 38 576 q 38 652 38 636 q 39 681 39 668 q 42 772 39 721 q 58 870 46 824 q 96 949 71 917 q 163 981 121 981 q 235 957 208 981 q 276 898 263 933 q 294 822 290 863 q 299 747 299 782 q 296 603 299 675 q 293 458 293 531 q 297 363 293 406 q 310 290 300 321 q 341 244 321 260 q 394 228 361 228 q 445 247 424 228 q 481 298 467 267 q 503 368 494 329 q 517 445 513 407 q 522 517 521 483 q 524 569 524 550 q 519 710 524 640 q 515 850 515 779 q 548 951 515 917 q 633 986 581 986 q 715 962 686 986 q 759 901 744 938 q 777 823 774 864 q 781 749 781 782 l 778 185 q 774 119 778 154 q 757 53 769 83 q 723 1 744 22 q 668 -19 701 -19 z "},"":{"ha":786,"x_min":31,"x_max":753,"o":"m 456 1060 q 422 1039 442 1051 q 379 1016 401 1026 q 335 998 357 1006 q 297 990 314 990 q 255 1009 271 990 q 239 1053 239 1028 q 263 1108 239 1078 q 319 1167 286 1139 q 387 1216 351 1196 q 444 1240 422 1236 q 485 1238 465 1243 q 519 1222 504 1233 q 542 1192 533 1210 q 547 1151 550 1174 q 515 1099 544 1119 q 456 1060 486 1079 m 326 217 q 391 228 364 217 q 437 256 418 239 q 465 291 456 272 q 474 324 474 310 q 463 353 474 347 q 443 358 453 358 q 389 352 415 358 q 335 346 363 346 q 219 360 274 346 q 122 403 164 374 q 56 481 81 433 q 32 594 32 528 q 32 623 32 606 q 31 659 32 640 q 31 695 31 678 q 31 722 31 713 q 33 811 31 765 q 49 894 36 857 q 90 956 63 932 q 165 981 117 981 q 233 967 211 981 q 265 932 256 954 q 273 881 274 910 q 272 822 272 853 q 270 758 272 790 q 268 693 268 725 q 272 635 268 667 q 285 576 275 603 q 317 532 296 550 q 374 514 339 514 q 414 521 393 514 q 451 540 435 528 q 478 570 468 553 q 489 610 489 588 q 486 712 489 661 q 483 814 483 763 q 488 874 483 843 q 506 930 493 904 q 542 972 519 956 q 601 988 565 988 q 681 963 651 988 q 726 903 711 939 q 744 823 740 867 q 749 742 749 779 q 751 647 749 693 q 753 551 753 600 q 749 410 753 481 q 721 274 744 340 q 667 164 701 215 q 584 74 633 113 q 469 14 535 36 q 321 -8 404 -8 q 222 4 274 -8 q 128 42 171 17 q 59 106 86 67 q 32 199 32 144 q 40 239 32 218 q 60 277 47 260 q 90 306 72 294 q 126 317 107 317 q 188 301 165 317 q 230 267 211 286 q 270 233 249 249 q 326 217 292 217 z "},"":{"ha":753,"x_min":42,"x_max":721,"o":"m 363 236 q 344 234 353 236 q 335 218 335 232 q 333 148 335 186 q 322 77 332 110 q 287 22 311 44 q 217 0 263 0 q 178 6 194 0 q 149 22 161 11 q 125 46 136 32 q 103 76 114 60 q 77 153 88 99 q 60 281 67 208 q 49 434 53 353 q 44 591 46 515 q 42 729 42 667 q 42 825 42 792 q 45 889 42 857 q 60 947 49 921 q 96 989 72 972 q 160 1006 119 1006 q 235 978 210 1006 q 272 919 260 951 q 292 860 285 888 q 311 833 299 833 q 331 842 317 833 q 365 862 344 851 q 413 881 386 872 q 469 889 439 889 q 575 863 528 889 q 654 795 622 838 q 703 699 686 753 q 721 586 721 644 q 706 441 721 507 q 656 328 690 375 q 566 254 621 281 q 432 228 511 228 q 397 232 414 228 q 363 236 379 236 m 318 518 q 325 458 318 481 q 342 426 332 436 q 363 413 351 415 q 382 410 374 410 q 438 428 415 410 q 472 472 460 447 q 490 524 485 497 q 494 568 494 551 q 473 637 494 607 q 413 667 451 667 q 345 630 372 667 q 318 518 318 593 z "},"":{"ha":786,"x_min":31,"x_max":753,"o":"m 144 1108 q 154 1152 144 1133 q 181 1183 164 1171 q 219 1203 197 1196 q 263 1210 240 1210 q 306 1203 285 1210 q 343 1183 326 1196 q 369 1151 360 1169 q 379 1108 379 1132 q 343 1034 379 1061 q 263 1007 307 1007 q 181 1033 217 1007 q 144 1108 144 1060 m 407 1108 q 417 1152 407 1133 q 443 1183 426 1171 q 481 1203 460 1196 q 525 1210 503 1210 q 568 1203 547 1210 q 606 1183 589 1196 q 632 1151 622 1169 q 642 1108 642 1132 q 606 1034 642 1061 q 525 1007 569 1007 q 443 1033 479 1007 q 407 1108 407 1060 m 326 217 q 391 228 364 217 q 437 256 418 239 q 465 291 456 272 q 474 324 474 310 q 463 353 474 347 q 443 358 453 358 q 389 352 415 358 q 335 346 363 346 q 219 360 274 346 q 122 403 164 374 q 56 481 81 433 q 32 594 32 528 q 32 623 32 606 q 31 659 32 640 q 31 695 31 678 q 31 722 31 713 q 33 811 31 765 q 49 894 36 857 q 90 956 63 932 q 165 981 117 981 q 233 967 211 981 q 265 932 256 954 q 273 881 274 910 q 272 822 272 853 q 270 758 272 790 q 268 693 268 725 q 272 635 268 667 q 285 576 275 603 q 317 532 296 550 q 374 514 339 514 q 414 521 393 514 q 451 540 435 528 q 478 570 468 553 q 489 610 489 588 q 486 712 489 661 q 483 814 483 763 q 488 874 483 843 q 506 930 493 904 q 542 972 519 956 q 601 988 565 988 q 681 963 651 988 q 726 903 711 939 q 744 823 740 867 q 749 742 749 779 q 751 647 749 693 q 753 551 753 600 q 749 410 753 481 q 721 274 744 340 q 667 164 701 215 q 584 74 633 113 q 469 14 535 36 q 321 -8 404 -8 q 222 4 274 -8 q 128 42 171 17 q 59 106 86 67 q 32 199 32 144 q 40 239 32 218 q 60 277 47 260 q 90 306 72 294 q 126 317 107 317 q 188 301 165 317 q 230 267 211 286 q 270 233 249 249 q 326 217 292 217 z "},"":{"ha":785,"x_min":-31,"x_max":751,"o":"m 275 0 q 97 57 151 0 q 43 240 43 114 q 42 306 43 265 q 40 390 42 347 q -11 426 8 401 q -31 500 -31 451 q -12 549 -31 525 q 39 582 7 574 q 40 682 39 629 q 46 783 42 735 q 58 872 50 832 q 81 932 67 911 q 304 997 124 997 q 494 971 411 997 q 635 888 578 944 q 722 740 692 831 q 751 522 751 650 q 717 284 751 383 q 619 122 682 185 q 469 29 557 58 q 275 0 382 0 m 286 592 l 399 594 q 457 565 443 596 q 471 486 471 535 q 447 423 471 450 q 360 388 424 396 q 324 383 342 385 q 286 381 306 382 l 286 358 q 298 284 286 313 q 349 256 310 256 q 414 283 388 256 q 457 351 440 310 q 481 444 474 393 q 488 544 488 496 q 485 599 488 564 q 471 667 482 633 q 435 725 460 700 q 369 750 411 750 q 307 722 328 750 q 286 643 286 694 l 286 592 z "},"":{"ha":835,"x_min":28,"x_max":874,"o":"m 667 -29 q 632 -28 650 -29 q 598 -20 614 -26 q 571 -2 582 -14 q 556 31 560 10 q 553 43 554 35 q 549 60 551 51 q 542 74 546 68 q 529 81 538 81 q 510 65 524 81 q 473 33 496 50 q 417 0 450 15 q 338 -15 383 -15 q 209 17 267 -15 q 111 101 151 49 q 49 221 71 154 q 28 356 28 288 q 53 523 28 447 q 122 653 78 599 q 225 736 165 707 q 356 765 285 765 q 410 760 388 765 q 449 748 433 756 q 476 733 465 740 q 494 719 488 725 q 511 711 507 711 l 514 711 q 517 717 517 714 q 516 735 517 725 q 515 760 515 746 l 497 760 q 461 763 479 760 q 428 776 443 767 q 403 800 413 785 q 393 839 393 815 q 402 883 393 867 q 426 908 411 900 q 459 919 440 917 q 497 922 478 922 l 526 922 q 636 989 556 989 q 724 972 692 989 q 774 922 757 954 q 809 919 792 922 q 841 908 826 917 q 865 886 856 900 q 874 849 874 872 q 851 794 874 813 q 800 768 829 775 l 800 760 q 797 646 800 707 q 794 514 794 585 q 794 307 794 410 q 789 100 794 204 q 757 6 786 42 q 667 -29 728 -29 m 504 522 q 472 543 493 533 q 426 553 450 553 q 363 537 390 553 q 318 494 336 521 q 291 436 300 468 q 282 372 282 404 q 290 322 282 349 q 313 271 299 294 q 349 232 328 247 q 397 217 371 217 q 456 236 431 217 q 499 283 482 256 q 524 342 515 311 q 532 399 532 374 q 526 473 532 439 q 504 522 519 507 z "},"":{"ha":336,"x_min":35,"x_max":301,"o":"m 38 829 q 49 894 38 868 q 78 935 60 919 q 119 958 96 950 q 168 967 143 965 q 217 965 193 968 q 259 949 240 961 q 290 913 278 936 q 301 854 301 890 l 301 115 q 294 58 301 86 q 270 7 286 29 q 230 -28 254 -15 q 172 -42 206 -42 q 99 -31 126 -42 q 58 0 72 -19 q 39 47 43 19 q 35 108 35 75 q 35 199 35 142 q 35 324 35 256 q 36 469 36 393 q 37 613 36 544 q 38 739 38 682 q 38 829 38 796 z "},"":{"ha":604,"x_min":-61,"x_max":589,"o":"m 289 408 q 290 370 289 393 q 296 326 292 347 q 310 290 300 306 q 336 275 319 275 q 380 292 356 275 q 450 332 404 308 q 507 339 482 347 q 551 308 532 331 q 579 256 569 286 q 589 199 589 226 q 522 54 589 110 q 338 -1 456 -1 q 212 3 268 -1 q 116 35 156 8 q 55 115 76 61 q 33 267 33 169 l 33 349 q -19 369 4 351 q -57 429 -42 386 q -60 459 -61 443 q -51 491 -58 475 q -29 520 -43 507 q 4 542 -15 533 l 33 553 l 33 738 q 38 819 33 775 q 58 900 43 863 q 103 963 74 938 q 181 988 132 988 q 243 970 221 988 q 277 926 265 953 q 292 866 289 899 q 294 804 294 833 q 294 722 294 760 q 293 647 293 683 l 397 685 q 462 676 439 700 q 500 606 485 651 q 498 538 511 572 q 428 476 485 504 q 366 449 403 464 q 289 421 329 435 l 289 408 z "},"":{"ha":449,"x_min":-71,"x_max":481,"o":"m 290 368 q 288 328 290 357 q 285 269 285 299 q 293 221 286 240 q 321 210 300 201 q 349 213 331 214 q 386 202 368 213 q 418 169 404 192 q 432 104 432 146 q 397 6 432 33 q 274 -21 361 -21 q 90 39 144 -21 q 35 218 35 99 l 35 271 q -19 284 7 269 q -64 338 -44 299 q -71 367 -71 350 q -66 400 -71 383 q -49 432 -61 417 q -18 457 -37 447 l 35 485 l 35 672 q 38 765 35 711 q 55 869 40 819 q 100 953 69 918 q 185 988 131 988 q 245 967 222 988 q 281 915 268 946 q 297 849 293 885 q 301 783 301 813 l 301 674 l 301 628 l 351 654 q 417 654 392 675 q 464 590 443 633 q 472 523 481 558 q 410 451 463 488 q 357 419 389 436 q 290 382 325 401 l 290 368 z "},"":{"ha":1256,"x_min":36,"x_max":1240,"o":"m 446 -15 q 284 13 358 -15 q 154 102 210 42 q 67 255 99 163 q 36 474 36 347 q 67 704 36 607 q 155 864 99 801 q 290 957 211 926 q 464 988 368 988 q 703 919 610 988 q 763 963 729 947 q 840 979 796 979 l 1021 979 q 1085 976 1053 979 q 1144 960 1117 972 q 1188 922 1171 947 q 1204 854 1204 897 q 1191 797 1204 819 q 1157 763 1178 775 q 1110 745 1136 750 q 1057 740 1083 740 q 1020 742 1036 740 q 988 748 1004 744 q 956 753 972 751 q 919 756 940 756 q 903 749 910 756 q 892 732 896 742 q 885 712 888 722 q 883 694 883 701 q 883 672 883 683 q 887 650 883 660 q 898 635 890 640 q 921 629 906 629 q 967 631 947 629 q 1004 633 986 632 q 1042 634 1022 633 q 1088 635 1061 635 q 1163 603 1136 635 q 1190 526 1190 571 q 1160 458 1190 486 q 1086 431 1131 431 l 907 431 q 880 415 885 431 q 875 382 875 399 q 877 333 875 358 q 888 286 879 307 q 915 251 897 265 q 964 238 933 238 q 1030 248 1001 238 q 1082 278 1058 258 q 1113 297 1100 292 q 1146 303 1126 303 q 1215 269 1189 303 q 1240 169 1240 236 q 1208 85 1240 119 q 1128 32 1175 51 q 1028 4 1081 13 q 939 -4 976 -4 q 805 18 860 -4 q 714 78 750 40 q 446 -15 610 -15 m 303 474 q 311 390 303 436 q 338 302 319 343 q 386 233 357 261 q 458 206 415 206 q 531 232 504 206 q 572 299 557 258 q 590 388 586 339 q 594 479 594 436 q 585 573 594 524 q 558 665 576 622 q 511 736 539 708 q 447 764 483 764 q 395 742 421 764 q 349 683 369 721 q 315 591 328 644 q 303 474 303 538 z "},"":{"ha":1329,"x_min":32,"x_max":1297,"o":"m 868 369 q 848 369 854 375 q 846 331 842 364 q 856 291 849 310 q 880 258 864 272 q 922 236 896 244 q 990 228 949 228 q 1074 240 1044 228 q 1123 267 1103 253 q 1162 294 1143 282 q 1215 306 1181 306 q 1276 278 1256 306 q 1297 214 1297 250 q 1273 116 1297 158 q 1205 45 1249 74 q 1101 2 1161 17 q 967 -12 1040 -12 q 816 13 881 -12 q 704 82 751 38 q 590 10 658 36 q 425 -15 522 -15 q 217 23 294 -15 q 98 128 139 61 q 44 286 57 194 q 32 485 32 378 q 37 603 32 543 q 56 719 42 663 q 98 825 71 775 q 169 913 125 875 q 279 972 214 950 q 435 993 344 993 q 593 970 528 993 q 703 906 658 947 q 799 967 743 944 q 929 989 854 989 q 1065 968 1000 989 q 1178 907 1129 947 q 1256 807 1226 867 q 1285 669 1285 747 q 1260 529 1285 589 q 1193 430 1235 469 q 1095 371 1151 390 q 976 351 1039 351 q 915 357 940 351 q 868 369 890 363 m 425 200 q 494 225 468 200 q 536 292 521 250 q 557 392 551 335 q 563 515 563 450 q 558 628 563 579 q 541 710 554 676 q 503 760 528 743 q 440 776 479 776 q 365 757 394 776 q 321 700 336 738 q 300 609 306 663 q 294 489 294 556 q 299 377 294 429 q 317 285 303 325 q 356 223 331 246 q 425 200 382 200 m 836 651 q 847 605 836 625 q 872 571 857 585 q 905 550 888 557 q 935 543 922 543 q 980 554 960 543 q 1015 584 1000 565 q 1037 626 1029 603 q 1044 671 1044 649 q 1017 740 1044 710 q 931 771 989 771 q 860 738 883 771 q 836 651 836 704 z "},"":{"ha":743,"x_min":15,"x_max":719,"o":"m 228 1222 q 269 1212 247 1222 q 309 1189 290 1201 q 343 1166 328 1176 q 365 1156 358 1156 q 388 1167 372 1156 q 423 1190 403 1178 q 467 1214 443 1203 q 514 1225 490 1225 q 568 1205 543 1225 q 593 1151 593 1185 q 565 1111 593 1138 q 500 1059 538 1085 q 424 1015 463 1033 q 367 996 386 996 q 311 1013 347 996 q 239 1053 275 1029 q 176 1103 203 1076 q 150 1147 150 1129 q 173 1201 150 1181 q 228 1222 196 1222 m 128 418 q 190 401 163 418 q 224 351 218 383 q 269 247 235 282 q 371 213 304 213 q 435 224 411 213 q 458 256 458 236 q 428 301 458 278 q 351 352 397 325 q 251 411 306 379 q 151 483 197 443 q 75 573 106 524 q 44 685 44 622 q 72 808 44 751 q 148 906 100 865 q 261 969 196 946 q 401 992 326 992 q 533 972 476 992 q 628 919 590 953 q 685 840 667 886 q 704 740 704 794 q 674 648 704 682 q 594 614 643 614 q 522 638 542 614 q 494 693 503 661 q 460 749 485 728 q 394 769 435 769 q 340 755 361 769 q 318 711 318 740 q 348 661 318 685 q 422 613 378 638 q 519 559 467 589 q 615 490 571 529 q 690 399 660 451 q 719 278 719 347 q 691 156 719 210 q 616 64 663 101 q 510 6 569 26 q 390 -14 451 -14 q 229 8 299 -14 q 112 69 160 29 q 40 163 64 108 q 15 286 15 218 q 22 335 15 311 q 43 377 29 358 q 78 407 57 396 q 128 418 100 418 z "},"":{"ha":733,"x_min":31,"x_max":703,"o":"m 224 1222 q 265 1212 243 1222 q 305 1189 286 1201 q 339 1166 324 1176 q 361 1156 354 1156 q 383 1167 368 1156 q 419 1190 399 1178 q 463 1214 439 1203 q 510 1225 486 1225 q 564 1205 539 1225 q 589 1151 589 1185 q 561 1111 589 1138 q 496 1059 533 1085 q 420 1015 458 1033 q 363 996 382 996 q 307 1013 343 996 q 235 1053 271 1029 q 172 1103 199 1076 q 146 1147 146 1129 q 169 1201 146 1181 q 224 1222 192 1222 m 561 565 q 489 590 511 565 q 467 651 467 615 q 458 708 467 685 q 438 746 450 731 q 410 768 425 761 q 382 775 394 775 q 322 749 342 775 q 301 678 301 724 q 331 631 301 651 q 406 588 361 610 q 502 543 450 567 q 599 485 554 519 q 673 406 643 451 q 703 296 703 360 q 675 165 703 222 q 600 67 647 107 q 492 7 553 28 q 364 -14 431 -14 q 242 0 301 -14 q 135 44 182 14 q 60 124 89 75 q 31 243 31 174 q 38 299 31 272 q 60 347 46 326 q 95 379 75 367 q 140 392 115 392 q 196 381 172 392 q 235 338 219 369 q 253 296 244 318 q 274 254 261 274 q 306 222 286 235 q 360 208 326 208 q 384 210 371 208 q 408 219 397 213 q 427 235 419 225 q 435 264 435 246 q 406 315 435 293 q 335 359 378 338 q 242 406 292 381 q 150 465 193 431 q 78 548 107 500 q 50 663 50 596 q 69 783 50 724 q 129 888 89 842 q 230 963 169 935 q 374 992 290 992 q 504 969 447 992 q 601 908 561 947 q 661 818 640 869 q 682 708 682 767 q 653 603 682 642 q 561 565 624 565 z "},"":{"ha":729,"x_min":7,"x_max":722,"o":"m 117 1108 q 126 1152 117 1133 q 153 1183 136 1171 q 191 1203 169 1196 q 235 1210 213 1210 q 278 1203 257 1210 q 315 1183 299 1196 q 342 1151 332 1169 q 351 1108 351 1132 q 315 1034 351 1061 q 235 1007 279 1007 q 153 1033 189 1007 q 117 1108 117 1060 m 379 1108 q 389 1152 379 1133 q 415 1183 399 1171 q 453 1203 432 1196 q 497 1210 475 1210 q 540 1203 519 1210 q 578 1183 561 1196 q 604 1151 594 1169 q 614 1108 614 1132 q 578 1034 614 1061 q 497 1007 542 1007 q 415 1033 451 1007 q 379 1108 379 1060 m 243 238 q 244 319 243 278 q 246 400 246 360 q 228 446 246 415 q 184 517 211 476 q 126 604 157 558 q 69 694 96 650 q 24 776 42 738 q 7 839 7 814 q 47 948 7 914 q 139 982 86 982 q 192 958 167 982 q 240 897 217 933 q 282 819 263 861 q 318 742 301 778 q 348 681 335 706 q 372 657 361 657 q 394 681 383 657 q 420 742 406 706 q 452 822 435 779 q 491 902 469 865 q 540 963 513 939 q 599 988 567 988 q 688 958 653 988 q 722 881 722 928 q 705 797 722 843 q 662 701 688 750 q 606 605 636 653 q 549 517 575 557 q 506 451 524 478 q 489 415 489 424 q 492 338 489 376 q 494 260 494 299 q 493 178 494 224 q 480 94 492 133 q 442 27 468 54 q 365 0 415 0 q 294 24 319 0 q 258 85 269 49 q 245 163 247 122 q 243 238 243 204 z "},"":{"ha":751,"x_min":24,"x_max":731,"o":"m 232 1222 q 273 1212 251 1222 q 313 1189 294 1201 q 347 1166 332 1176 q 369 1156 363 1156 q 392 1167 376 1156 q 427 1190 407 1178 q 471 1214 447 1203 q 518 1225 494 1225 q 572 1205 547 1225 q 597 1151 597 1185 q 569 1111 597 1138 q 504 1059 542 1085 q 428 1015 467 1033 q 371 996 390 996 q 315 1013 351 996 q 243 1053 279 1029 q 181 1103 207 1076 q 154 1147 154 1129 q 177 1201 154 1181 q 232 1222 200 1222 m 717 807 q 691 727 717 775 q 627 624 665 679 q 544 511 589 568 q 462 406 500 454 q 398 322 424 357 q 372 274 372 286 q 391 249 372 253 q 425 244 410 244 q 477 247 451 244 q 529 249 503 249 q 615 249 578 249 q 678 240 653 250 q 717 206 704 231 q 731 131 731 181 q 692 49 731 76 q 602 8 654 21 q 497 -6 550 -4 q 411 -7 443 -7 q 328 -6 369 -7 q 244 -4 286 -4 q 169 3 208 -4 q 98 28 131 10 q 44 78 65 47 q 24 157 24 110 q 51 256 24 199 q 121 377 79 314 q 210 503 163 440 q 300 617 258 565 q 369 705 342 669 q 397 749 397 740 q 385 764 397 761 q 365 767 374 767 q 314 763 346 767 q 244 756 282 758 q 169 753 207 753 q 101 764 132 754 q 51 794 71 774 q 32 853 32 815 q 65 931 32 903 q 143 973 97 960 q 237 989 189 986 q 314 992 285 992 q 471 988 397 992 q 599 967 544 985 q 685 913 654 950 q 717 807 717 875 z "}}}
